<svg xmlns="http://www.w3.org/2000/svg" xml:space="preserve" id="apple-clock" x="0" y="0" version="1.1" viewBox="0 0 100 100">
  <g id="Symbols_2_">
    <path id="Background_1_" fill="#1E1E1F" d="M63.6 5c9 0 13.5 0 18.4 1.5 5.3 1.9 9.5 6.1 11.4 11.4C95 22.8 95 27.4 95 36.4v27.2c0 9 0 13.5-1.5 18.4-1.9 5.3-6.1 9.5-11.4 11.4C77.2 95 72.6 95 63.6 95H36.4c-9 0-13.5 0-18.4-1.5-5.3-2-9.5-6.1-11.4-11.5C5 77.2 5 72.7 5 63.6V36.4c0-9 0-13.5 1.5-18.4 2-5.3 6.2-9.5 11.5-11.4C22.8 5 27.4 5 36.4 5h27.2z" style="fill:#1e1e1f"></path>
    <g id="Icon_1_" transform="translate(4 4)">
      <linearGradient id="Oval_6_" x1="46.904" x2="46.904" y1="745.346" y2="743.846" gradientTransform="matrix(52 0 0 -52 -2393 38765)" gradientUnits="userSpaceOnUse">
        <stop offset="0" stop-color="#F5F4F9"></stop>
        <stop offset="1" stop-color="#EEE"></stop>
      </linearGradient>
      <circle id="Oval" cx="46" cy="46" r="39" fill="url(#Oval_6_)" style="fill:url(#Oval_6_)"></circle>
      <g id="Numbers" transform="translate(4.5 3.5)">
        <path id="_x31_2" d="M39.7 15.5V9.1h-.6c0 .2-.1.4-.2.6-.1.2-.3.3-.4.4-.2.1-.3.2-.6.2h-.6v.7H39v4.6h.7zm2.2-4.1h.8c0-.2 0-.4.1-.6 0-.2.1-.4.2-.5.1-.2.2-.3.4-.4.2-.1.3-.1.6-.1.2 0 .3 0 .5.1.1.1.3.1.4.2.1.1.2.2.3.4.1.1.1.3.1.5s0 .4-.1.6c-.1.2-.2.3-.3.5-.1.1-.3.3-.5.4-.2.1-.4.3-.7.5-.2.1-.4.3-.6.4-.2.1-.4.3-.5.5-.2.2-.3.4-.4.7-.1.3-.2.6-.2 1h4.2v-.7h-3.3c0-.2.1-.4.2-.5.1-.2.3-.3.4-.4.2-.1.3-.3.5-.4.2-.1.4-.2.6-.4.2-.1.4-.3.6-.4.2-.1.4-.3.5-.5.1-.2.3-.4.3-.6.1-.2.1-.5.1-.7 0-.3-.1-.6-.2-.8-.1-.2-.2-.4-.4-.6-.2-.2-.4-.3-.6-.4-.2-.1-.5-.1-.8-.1-.3 0-.6.1-.9.2-.3.1-.5.3-.7.5-.2.2-.3.4-.4.7-.2.3-.2.6-.2.9z" style="stroke:#000;stroke-width:.3"></path>
        <path id="_x31_1" d="M24.7 20v-6.4h-.6c0 .2-.1.4-.2.6-.1.2-.3.3-.4.4-.2.1-.3.2-.6.2h-.6v.6H24V20h.7zm5 0v-6.4h-.6c0 .2-.1.4-.2.6-.1.2-.3.3-.4.4-.2.1-.3.2-.6.2h-.6v.6H29V20h.7z" style="stroke:#000;stroke-width:.3"></path>
        <path id="_x31_0" d="M12.7 31.3v-6.4h-.6c0 .2-.1.4-.2.6-.1.2-.3.3-.4.4-.2.1-.3.2-.6.2h-.6v.6H12v4.6h.7zm3-3.2V27c0-.2.1-.4.1-.6.1-.2.1-.3.2-.5.1-.1.2-.2.4-.3.1-.1.3-.1.5-.1s.4 0 .5.1c.1.1.3.2.4.3.1.1.2.3.2.5.1.2.1.4.1.6v1.9c0 .3-.1.6-.1.8-.1.3-.2.5-.4.7-.2.2-.4.3-.8.3s-.6-.1-.8-.3c-.2-.2-.3-.4-.4-.7-.1-.3-.1-.5-.1-.8s.2-.5.2-.8zm-.8 0v.7c0 .3 0 .5.1.7 0 .2.1.5.2.7.1.2.2.4.4.6.2.2.4.3.6.4.2.1.5.1.9.1.3 0 .6 0 .9-.1.2-.1.4-.2.6-.4.2-.2.3-.3.4-.6.1-.2.2-.4.2-.7 0-.2.1-.5.1-.7v-1.4c0-.3 0-.5-.1-.7 0-.2-.1-.5-.2-.7-.1-.2-.2-.4-.4-.6-.2-.2-.4-.3-.6-.4-.2-.1-.5-.1-.9-.1-.3 0-.6 0-.9.1-.2.1-.4.2-.6.4-.2.2-.3.4-.4.6-.1.2-.2.4-.2.7 0 .2-.1.5-.1.7v.7z" style="stroke:#000;stroke-width:.3"></path>
        <path id="_x39_" d="M10.2 44h-.8c0 .6.2 1 .6 1.2.4.3.8.4 1.3.4.8 0 1.3-.3 1.7-.9.4-.6.5-1.4.5-2.5 0-.6-.1-1.1-.2-1.5-.1-.4-.3-.7-.5-.9-.2-.2-.4-.4-.7-.5-.3-.1-.5-.1-.8-.1-.3 0-.6.1-.8.2-.3.1-.5.2-.7.4-.2.2-.3.4-.4.7-.1.3-.2.5-.2.8 0 .3 0 .6.1.9s.2.5.4.7c.2.2.4.3.6.4.3.1.5.2.9.2.3 0 .6-.1.9-.2.3-.2.5-.4.6-.6 0 .8-.2 1.5-.4 1.9-.2.4-.6.6-1.1.6-.3 0-.6-.1-.8-.3s-.2-.6-.2-.9zm2.5-2.7c0 .2 0 .4-.1.5-.1.2-.1.3-.3.4-.1.1-.3.2-.4.3-.2.1-.3.1-.5.1s-.4 0-.5-.1c-.2-.1-.3-.2-.4-.3-.1-.1-.2-.3-.3-.4-.1-.2-.1-.3-.1-.5s0-.4.1-.6c0-.2.1-.3.2-.5.1-.1.2-.3.4-.3.2-.1.4-.1.6-.1.2 0 .4 0 .6.1.2.1.3.2.4.3.1.1.2.3.3.5v.6z" style="stroke:#000;stroke-width:.3"></path>
        <path id="_x38_" d="M13.4 56.5c0-.2 0-.3.1-.4.1-.1.1-.2.2-.3.1-.1.2-.1.4-.2.1 0 .3-.1.4-.1.3 0 .6.1.8.2.2.2.3.4.3.7 0 .3-.1.6-.3.8-.2.2-.4.3-.8.3-.2 0-.3 0-.4-.1-.1 0-.3-.1-.4-.2-.1-.1-.2-.2-.2-.3-.1 0-.1-.2-.1-.4zm-.8 0c0 .3.1.6.2.8.2.2.4.4.6.5-.4.1-.6.3-.8.6-.2.3-.3.6-.3 1 0 .3.1.6.2.9.1.2.3.4.5.6.2.2.4.3.7.4.3.1.5.1.9.1.3 0 .6 0 .8-.1.3-.1.5-.2.7-.4.2-.2.3-.4.4-.6.1-.2.2-.5.2-.8 0-.4-.1-.7-.3-1-.2-.3-.5-.5-.9-.6.3-.1.5-.3.6-.5.2-.2.2-.5.2-.8 0-.2 0-.4-.1-.6-.1-.2-.2-.4-.3-.5-.2-.2-.4-.3-.6-.4-.2-.1-.5-.1-.9-.1-.2 0-.5 0-.7.1l-.6.3c-.2.1-.3.3-.4.5-.1.1-.1.3-.1.6zm.6 3c0-.2 0-.4.1-.5.1-.1.2-.3.3-.4.1-.1.3-.2.4-.2.2-.1.3-.1.5-.1s.3 0 .5.1.3.1.4.3c.1.1.2.2.3.4.1.1.1.3.1.5s0 .3-.1.5c-.1.1-.2.3-.3.4-.1.1-.3.2-.4.3-.2.1-.3.1-.5.1-.4 0-.7-.1-1-.3-.2-.5-.3-.8-.3-1.1z" style="stroke:#000;stroke-width:.3"></path>
        <path id="_x37_" d="M27.8 66.1v-.7h-4.1v.7H27c-.3.4-.6.7-.9 1.2-.3.4-.5.9-.8 1.3-.2.5-.4 1-.5 1.5-.1.5-.2 1-.3 1.6h.9c0-.5.1-1 .3-1.5.1-.5.3-1 .5-1.5s.5-1 .8-1.4c.2-.5.5-.8.8-1.2z" style="stroke:#000;stroke-width:.3"></path>
        <path id="_x36_" d="M42.7 71.5h.8c0-.5-.2-.9-.5-1.2-.3-.3-.7-.4-1.3-.4-.5 0-.8.1-1.1.3-.3.2-.5.4-.7.8-.2.3-.3.7-.4 1.1-.1.4-.1.8-.1 1.3 0 .3 0 .7.1 1 .1.4.2.7.3 1 .2.3.4.5.7.7.3.2.7.3 1.1.3.4 0 .7-.1 1-.2.3-.1.5-.3.7-.5.2-.2.3-.4.4-.7.1-.3.1-.5.1-.7 0-.3 0-.6-.1-.8-.1-.3-.2-.5-.4-.7-.2-.2-.4-.3-.6-.4-.2-.1-.5-.2-.8-.2-.3 0-.7.1-.9.2-.3.1-.5.3-.7.6 0-.2 0-.5.1-.8 0-.3.1-.5.2-.8.1-.2.3-.4.5-.6.2-.2.5-.2.8-.2.3 0 .6.1.7.3 0 .1.1.3.1.6zm-1.1 1.3c.2 0 .4 0 .6.1.2.1.3.2.4.3.1.1.2.3.2.5.1.2.1.4.1.6 0 .2 0 .4-.1.5-.1.2-.1.3-.2.5-.1.1-.2.2-.4.3-.2.1-.3.1-.6.1-.2 0-.4 0-.6-.1-.2-.1-.3-.2-.4-.3-.1-.1-.2-.3-.3-.4-.1-.2-.1-.4-.1-.6 0-.2 0-.4.1-.6.1-.2.1-.3.3-.5.1-.1.3-.2.4-.3.2 0 .4-.1.6-.1z" style="stroke:#000;stroke-width:.3"></path>
        <path id="_x35_" d="M59 66.2v-.7h-3.1l-.6 3.3h.7c.1-.2.3-.3.5-.4.2-.1.4-.2.7-.2.2 0 .4 0 .6.1.2.1.3.2.5.3.1.1.2.3.3.5.1.2.1.4.1.6 0 .3 0 .5-.1.7-.1.2-.2.3-.3.5-.1.1-.3.2-.4.3-.2.1-.3.1-.5.1s-.4 0-.5-.1c-.2-.1-.3-.1-.4-.2-.1-.1-.2-.2-.3-.4-.1-.1-.1-.3-.1-.5h-.8c0 .3.1.5.2.8.1.2.3.4.4.6.2.2.4.3.6.4.2.1.5.1.8.1.4 0 .7-.1 1-.2.3-.1.5-.3.7-.5.2-.2.3-.4.4-.7.1-.3.1-.5.1-.8 0-.4-.1-.7-.2-1-.1-.3-.3-.5-.4-.7-.2-.2-.4-.3-.7-.4-.3-.1-.5-.1-.8-.1-.2 0-.4 0-.7.1-.2.1-.4.2-.5.3l.3-1.8H59z" style="stroke:#000;stroke-width:.3"></path>
        <path id="_x34_" d="M69 59.1h-2.1L69 56v3.1zm.8 0v-4.2h-.6l-3 4.1v.7H69v1.5h.7v-1.5h.9V59h-.8z" style="stroke:#000;stroke-width:.3"></path>
        <path id="_x33_" d="M71.7 41.9v.6h.5c.2 0 .4 0 .5.1.2.1.3.1.4.2.1.1.2.2.3.4.1.2.1.3.1.5s0 .4-.1.5c-.1.2-.2.3-.3.4-.1.1-.3.2-.4.2-.2.1-.3.1-.5.1-.4 0-.8-.1-1-.4-.2-.3-.3-.6-.4-1H70c0 .3 0 .6.1.9.1.3.2.5.4.7.2.2.4.3.7.4.3.1.6.1.9.1.3 0 .6 0 .9-.1.3-.1.5-.2.7-.4.2-.2.4-.4.5-.6.1-.2.2-.5.2-.8 0-.4-.1-.7-.3-1-.2-.3-.5-.5-.9-.5.3-.1.5-.3.6-.5.2-.2.3-.5.3-.8 0-.3 0-.5-.1-.8-.1-.2-.2-.4-.4-.5l-.6-.3c-.2-.1-.5-.1-.8-.1-.3 0-.6.1-.8.2-.2.1-.4.2-.6.4-.2.2-.3.4-.4.6-.1.3-.1.5-.1.8h.8c0-.2 0-.4.1-.5 0-.2.1-.3.2-.4.1-.1.2-.2.4-.3.2-.1.3-.1.5-.1.3 0 .6.1.8.3.2.2.3.4.3.8 0 .2 0 .3-.1.4l-.3.3c-.1.1-.2.2-.4.2-.1 0-.3.1-.5.1h-.2l-.2-.1c.1 0 0 0 0 0z" style="stroke:#000;stroke-width:.3"></path>
        <path id="_x32_" d="M65.6 27.1h.8c0-.2 0-.4.1-.6s.1-.4.2-.5c.1-.2.2-.3.4-.4.2-.1.3-.1.6-.1.2 0 .3 0 .5.1.1.1.3.1.4.2.1.1.2.2.3.4.1.1.1.3.1.5s0 .4-.1.6c-.1.2-.2.3-.3.5-.1.1-.3.3-.5.4-.2.1-.4.3-.7.5-.2.1-.4.3-.6.4-.2.1-.4.3-.5.5-.2.2-.3.4-.4.7-.1.3-.2.6-.2 1h4.2v-.7h-3.3c0-.2.1-.4.2-.5.1-.2.3-.3.4-.4.2-.1.3-.3.5-.4.2-.1.4-.2.6-.4.2-.1.4-.3.6-.4.2-.1.4-.3.5-.5.1-.2.3-.4.3-.6.1-.2.1-.5.1-.7 0-.3-.1-.6-.2-.8-.1-.2-.2-.4-.4-.6-.2-.2-.4-.3-.6-.4-.2-.1-.5-.1-.8-.1-.3 0-.6.1-.9.2-.3.1-.5.3-.7.5-.2.2-.3.4-.4.7-.1.3-.2.6-.2.9z" style="stroke:#000;stroke-width:.3"></path>
        <path id="_x31_" d="M57.2 20v-6.4h-.6c0 .2-.1.4-.2.6-.1.2-.3.3-.4.4-.2.1-.3.2-.6.2h-.6v.6h1.7V20h.7z" style="stroke:#000;stroke-width:.3"></path>
      </g>
      <g id="Arrows" transform="translate(18 11)">
        <path id="Arrow" d="M21.5 12.8c.3-.1.6.1.7.4l6.7 21.9c.1.3-.1.6-.4.7-.3.1-.6-.1-.7-.4l-6.7-21.9c0-.3.1-.6.4-.7z" style="fill:#2b2a2a"></path>
        <path id="Arrow_1_" d="M27.9 34.6c.2-.1.5 0 .7.2l15.1 30c.1.2 0 .5-.2.7-.2.1-.5 0-.7-.2l-15.1-30c-.2-.3-.1-.6.2-.7z" style="fill:#2b2a2a"></path>
        <path id="Arrow_2_" d="M29.8 29.9c.2.1.3.3.2.5l-12.7 37c-.1.2-.3.3-.5.2-.2-.1-.3-.3-.2-.5l12.7-37c.1-.2.3-.3.5-.2z" style="fill:#ff9500"></path>
        <path id="Oval_1_" d="M28 33.1c1 0 1.9.8 1.9 1.9 0 1-.8 1.9-1.9 1.9-1 0-1.9-.8-1.9-1.9 0-1 .9-1.9 1.9-1.9z" style="fill:#2b2a2a"></path>
        <circle id="Oval_2_" cx="28" cy="35" r="1.5" style="fill:#ff9500"></circle>
      </g>
    </g>
  </g>
</svg>
