<svg width="376" height="376" viewBox="0 0 376 376" fill="none" xmlns="http://www.w3.org/2000/svg">
<g clip-path="url(#clip0_6300_167)">
<path d="M77.3447 14.1421C77.2786 13.9419 77.3101 14.0864 77.3994 13.7026C78.9982 13.2041 80.2372 12.5151 81.7794 11.9989C92.5409 8.39611 103.725 5.17061 115.082 4.07811C127.094 2.92236 138.983 2.16186 151.029 1.76186C154.388 1.65036 157.728 0.722606 161.05 0.651106C177.903 0.288606 194.713 0.486357 211.568 0.580107C214.065 0.594357 216.694 0.475607 219.176 0.612857C222.856 0.816607 226.582 1.40611 230.278 1.61511C234.862 1.87411 239.554 1.86736 244.101 2.44461L243.74 2.77361L244.101 2.85011C246.865 3.40786 251.02 3.32461 253.961 3.71261C260.102 4.52236 267.421 4.74261 273.414 6.26811C280.475 8.06461 288.945 10.1339 295.711 12.6361C317.54 20.7596 337.776 35.2211 351.099 53.9379C354.838 59.1914 356.754 64.0624 359.559 69.4746C368.636 86.9826 372.223 105.29 374.761 124.502C375.224 127.523 374.919 131.122 375.358 134.093C376.223 139.948 376.045 145.81 376.078 151.752C376.27 186.253 377.336 221.031 374.075 255.42C373.413 262.385 371.59 269.603 370.467 276.525C367.322 292.158 359.688 310.435 350.822 323.955C349.201 326.43 345.283 330.303 343.137 332.613C335.708 340.603 326.672 348.4 317.359 354.458C306.42 361.065 293.914 365.948 281.497 369.208C279.142 369.825 275.997 369.965 273.544 370.513C262.718 372.938 252.68 374 241.638 374.498C232.393 374.913 223.695 375.125 214.445 375.258C195.141 375.653 175.832 375.658 156.528 375.273C143.224 375.043 128.349 374.68 115.037 373.325C106.928 372.498 98.1396 370.028 90.0323 368.76C81.037 366.545 65.1789 359.695 57.4985 354.365C44.6606 345.09 32.4741 333.94 23.604 320.958C11.5997 303.385 6.36794 280.903 3.13372 260.378C-1.52909 230.638 -0.228071 199.322 -0.236077 169.347C-0.241758 146.754 1.01072 124.724 5.66036 102.815C12.6804 69.7354 29.3713 41.6014 59.144 23.3601C62.095 21.5521 65.2535 19.7239 68.3398 18.1246C71.1608 16.7201 74.487 15.6364 77.3447 14.1421Z" fill="#EDEAFC"/>
<path d="M122.468 38.6088C135.838 38.081 149.81 38.129 163.203 38.1033C172.996 38.0845 183.481 37.8685 193.207 38.1272C206.731 38.0587 220.255 38.109 233.78 38.2782C256.432 38.5687 271.87 38.0055 292.87 47.6465C321.463 60.7748 334.948 85.0963 338.775 114.685C339.703 121.868 339.589 130.269 339.672 137.657L339.772 153.476C339.78 155.867 339.912 160.03 339.718 162.282C339.909 181.471 339.919 200.661 339.752 219.85L339.731 237.9C339.726 240.353 339.832 245.66 339.535 247.953C340.475 287.308 321.99 323.585 281.074 334.87C273.603 336.93 268.464 338.335 260.541 338.6C258.331 339.26 253.995 338.48 252.889 340.228L256.657 340.408C255.614 341.188 175.885 340.908 166.6 340.898L137.728 340.848C133.11 340.83 125.67 340.983 121.258 340.49C122.084 340.288 126.931 340.32 128.315 340.235L128.2 339.885C126.573 338.95 120.206 339.153 117.026 338.613L116.814 338.615C86.0746 338.608 58.2697 321.313 45.3134 294.45C33.228 269.395 35.3572 243.048 35.1557 216.117L35.0581 152.02C35.0416 140.459 35.3497 124.504 36.7672 113.177C38.9803 95.4945 47.6422 74.462 60.9975 61.9538C67.6508 55.722 75.591 50.3412 84.1346 46.8465C85.7455 46.1877 87.8512 44.927 89.4836 44.3722C99.1065 41.103 112.365 38.609 122.468 38.6088Z" fill="url(#paint0_linear_6300_167)"/>
<path d="M117.026 338.613C125.667 338.278 136.316 338.578 145.064 338.62L196.492 338.773L239.205 338.67C244.848 338.648 255.361 338.273 260.541 338.6C258.331 339.26 253.995 338.48 252.889 340.228L256.657 340.408C255.614 341.188 175.885 340.908 166.6 340.898L137.728 340.848C133.11 340.83 125.67 340.983 121.258 340.49C122.084 340.288 126.932 340.32 128.315 340.235L128.2 339.885C126.573 338.95 120.206 339.153 117.026 338.613Z" fill="#B588FE"/>
<path d="M122.468 38.6088C135.838 38.081 149.81 38.129 163.203 38.1033C172.996 38.0845 183.481 37.8685 193.207 38.1272C194.232 38.2827 194.708 38.328 195.673 38.6612L123.369 39.4722C122.945 38.9895 122.988 38.9658 122.468 38.6088Z" fill="#B588FE"/>
<path d="M339.535 247.953C339.264 245.988 339.403 240.328 339.408 238.038L339.434 218.664C339.349 200.547 337.954 180.155 339.718 162.282C339.909 181.471 339.919 200.661 339.752 219.85L339.731 237.9C339.726 240.353 339.832 245.66 339.535 247.953Z" fill="#8D4FF7"/>
<path d="M154.268 146.195C156.479 143.843 158.768 137.626 160.163 134.428C162.284 129.674 164.441 124.935 166.634 120.211C170.382 112.03 174.566 99.6188 184.954 97.9033C198.248 95.7075 202.261 107.363 206.971 117.099L216.095 136.093C217.508 138.976 220.361 145.895 223.765 146.438C231.618 147.691 239.376 149.119 247.162 150.786C254.79 152.586 264.311 152.907 271.671 155.177C280.431 157.877 283.47 169.398 279.524 176.736C277.12 181.209 271.893 184.708 268.412 188.189C260.73 195.865 252.662 202.956 245.233 210.811C241.682 214.562 244.799 225.79 245.568 230.685C246.178 232.158 247.221 238.598 247.482 240.443C248.528 247.825 251.139 256.203 251.368 263.538C251.763 276.205 238.03 279 228.398 273.783C227.096 273.078 223.001 271.338 222.231 270.505C211.282 265.625 200.002 257.435 188.585 253.738C185.463 254.33 183.282 255.605 180.411 256.755C171.255 260.428 163.287 265.678 154.561 270.235C154.303 270.428 154.424 270.353 154.07 270.538C147.442 274.003 138.854 277.92 131.201 275.793C128.388 275.01 126.485 273.14 125.154 270.7C124.204 268.963 123.58 267.075 123.311 265.125C122.804 261.338 124.003 251.285 125.196 247.543C127.131 236.418 130.903 225.148 131.335 213.829C130.984 210.776 127.023 207.092 124.936 205.239C118.17 199.235 111.726 193.13 105.18 186.925C102.233 184.131 98.3542 181.288 96.0386 178.062C92.8844 173.667 93.113 165.315 96.014 160.881C97.5013 158.598 99.6436 156.784 102.179 155.661C105.817 154.085 113.577 153.103 117.689 152.351C124.286 151.143 130.99 149.446 137.586 148.38C143.111 147.487 148.645 147.4 154.268 146.195Z" fill="#ECE4FD"/>
<path d="M245.568 230.686C246.178 232.158 247.221 238.598 247.482 240.443C248.528 247.826 251.139 256.203 251.368 263.538C251.764 276.206 238.03 279.001 228.398 273.783C227.096 273.078 223.001 271.338 222.231 270.506C224.188 270.361 230.59 274.488 233.573 275.188C234.531 274.246 233.291 274.333 234.221 273.308C238.415 272.423 245.958 268.321 248.546 264.608C251.053 261.008 250.601 260.058 249.85 255.888C248.36 247.601 246.508 239.341 245.238 231.006L245.568 230.686Z" fill="#C0A7FC"/>
<path d="M125.196 247.543C125.439 248.428 123.624 262.078 123.695 265.245C130.921 266.493 134.92 270.028 140.329 274.455C143.321 276.905 151.798 269.053 154.561 270.235C154.303 270.428 154.424 270.353 154.07 270.538C147.442 274.003 138.854 277.92 131.201 275.793C128.388 275.01 126.485 273.14 125.154 270.7C124.204 268.963 123.58 267.075 123.311 265.125C122.804 261.338 124.003 251.285 125.196 247.543Z" fill="#C0A7FC"/>
</g>
<defs>
<linearGradient id="paint0_linear_6300_167" x1="187.464" y1="38.001" x2="187.464" y2="340.955" gradientUnits="userSpaceOnUse">
<stop stop-color="#BD77FE"/>
<stop offset="1" stop-color="#6C2DFD"/>
</linearGradient>
<clipPath id="clip0_6300_167">
<rect width="376" height="376" fill="white"/>
</clipPath>
</defs>
</svg>
