<svg width="182" height="32" viewBox="0 0 182 32" fill="none" xmlns="http://www.w3.org/2000/svg">
<g clip-path="url(#clip0_6385_6)">
<path d="M23.2691 20.6677L23.468 20.5504L23.4819 20.5424C23.5098 20.5822 23.5416 20.6219 23.5714 20.6597C23.9155 21.0177 24.3093 21.328 24.7428 21.5766L25.6935 19.9259L25.8009 19.7389L26.2941 18.8778L27.2527 17.2091C27.3004 17.1276 27.2368 17.0262 27.1413 17.0341L25.0093 17.2032H24.9755V17.2072L24.2357 17.2648L24.0646 17.2788L22.1216 17.4319C22.1534 17.8436 22.2329 18.2413 22.3543 18.6212C22.3702 18.657 22.3861 18.6948 22.402 18.7286C22.402 18.7326 22.406 18.7366 22.408 18.7425L22.398 18.7505L22.2031 18.8658L20.3913 19.9378L0 31.9999H4.11287L21.4573 21.7417L23.2691 20.6697V20.6677Z" fill="#6557EA"/>
<path d="M4.41146 26.9384C4.41146 26.9384 4.41941 26.9424 4.4214 26.9424C4.57454 26.9941 4.73762 27.022 4.90667 27.022C5.67236 27.022 6.3068 26.4711 6.43607 25.7432L19.596 17.957L21.4635 16.8512L21.74 16.6881L22.1318 16.4574L23.6791 15.5425C23.6791 15.5425 23.6791 15.5485 23.6791 15.5525L25.7176 14.3453C25.7494 14.3254 25.7812 14.3075 25.8131 14.2896C26.2685 14.029 26.7975 13.8819 27.3604 13.8819C28.1241 13.8819 28.8241 14.1543 29.3691 14.6098C29.373 14.6118 29.377 14.6157 29.381 14.6197C29.92 15.0732 30.3038 15.7056 30.441 16.4256L31.4633 15.821L31.4752 15.815L31.5369 15.7772H31.5409L31.5607 15.7613L32.3324 15.3059L37.8712 12.0283L39.683 10.9563L41.0116 10.1708L43.072 8.95161L43.8516 8.49021H43.8556L44.1837 8.29331L44.8838 7.87964C44.7486 7.60319 44.6014 7.33272 44.4463 7.06622C44.4463 7.06622 44.4463 7.06423 44.4463 7.06224C44.4164 7.00655 44.3846 6.95285 44.3528 6.89915C44.3528 6.89915 44.3528 6.89717 44.3508 6.89518C44.1798 6.61078 44.0008 6.33433 43.8098 6.06385C41.4093 2.65105 37.4874 0.389771 33.0285 0.264476C33.0205 0.264476 33.0146 0.264476 33.0066 0.264476C32.8853 0.260498 32.762 0.260498 32.6387 0.260498C30.2422 0.260498 27.9908 0.87703 26.0338 1.96292C26.0338 1.96292 26.0299 1.96292 26.0299 1.96491L25.3815 2.34875C25.3815 2.34875 25.3735 2.35273 25.3716 2.35671C25.3656 2.36068 25.3596 2.36466 25.3537 2.36665L12.0386 10.2443C11.9272 10.2185 11.8138 10.2066 11.6945 10.2066C10.9865 10.2066 10.3878 10.6819 10.2009 11.3302C10.1611 11.4655 10.1392 11.6107 10.1392 11.7598C10.1392 12.4181 10.5489 12.9809 11.1297 13.2077C11.1336 13.2077 11.1396 13.2116 11.1456 13.2116C11.3166 13.2753 11.4996 13.3111 11.6925 13.3111C12.4761 13.3111 13.1244 12.7304 13.2318 11.9766C13.2318 11.9726 13.2318 11.9666 13.2318 11.9607L20.497 7.66286L22.5355 6.45764L22.9094 6.23688C22.8935 6.2508 22.8756 6.26472 22.8597 6.28063L26.4037 4.18443C26.4037 4.18443 26.4117 4.18045 26.4137 4.17647C26.6424 4.0293 26.8771 3.89008 27.1157 3.76081C27.1237 3.75683 27.1317 3.75285 27.1396 3.74689C27.1436 3.7449 27.1456 3.74291 27.1496 3.74092C28.7824 2.8559 30.6519 2.35472 32.6387 2.35472C32.9111 2.35472 33.1836 2.36466 33.4521 2.38256C33.4799 2.38256 33.5078 2.38654 33.5336 2.38853C37.0141 2.65503 40.0609 4.46286 41.994 7.13185L38.6111 9.13259C38.1815 8.55981 37.6883 8.03676 37.1413 7.57734C37.1394 7.57535 37.1374 7.57336 37.1334 7.57336C36.5387 7.0682 35.8785 6.63862 35.1684 6.29456C34.3252 5.88287 33.4123 5.59449 32.4517 5.4513C32.4358 5.44732 32.4219 5.44533 32.406 5.44334C31.9565 5.37572 31.4971 5.3439 31.0297 5.3439C29.6316 5.3439 28.3031 5.6462 27.1078 6.19114L25.3716 7.21935L23.8899 8.09642L23.4643 8.349L22.1099 9.15049L19.3514 10.7833L8.67348 17.0978C8.65161 17.0918 8.62973 17.0878 8.60785 17.0819C8.50244 17.058 8.38908 17.0461 8.27572 17.0461C7.74272 17.0461 7.27336 17.3146 6.99294 17.7223L6.80002 18.1141C6.80002 18.1141 6.80002 18.1141 6.80002 18.1161C6.79604 18.13 6.79008 18.1439 6.7861 18.1598C6.77814 18.1817 6.77218 18.2036 6.76621 18.2254C6.73638 18.3448 6.72047 18.4721 6.72047 18.5993C6.72047 19.2596 7.13414 19.8264 7.71686 20.0492C7.72681 20.0532 7.73874 20.0591 7.75067 20.0631C7.91376 20.1208 8.08877 20.1546 8.27373 20.1546C9.04738 20.1546 9.68977 19.5898 9.80711 18.8479C9.80711 18.836 9.81108 18.8241 9.81108 18.8102L18.9974 13.3767L21.2328 12.0542L22.1497 11.5132L24.5959 10.0653C24.5959 10.0653 24.5979 10.0653 24.5999 10.0653L24.8445 9.92016L26.7876 8.77063C27.1018 8.54788 27.4359 8.35099 27.786 8.17995C27.8715 8.14017 27.955 8.1004 28.0405 8.06261C28.0405 8.06261 28.0425 8.06261 28.0445 8.06261C28.9554 7.65888 29.9657 7.43415 31.0277 7.43415C31.6602 7.43415 32.2747 7.5137 32.8614 7.66286C33.7087 7.87964 34.4962 8.2416 35.1963 8.7229C35.1983 8.7229 35.2003 8.72489 35.2042 8.72687C35.8049 9.14055 36.3438 9.63974 36.7993 10.2085C36.8032 10.2125 36.8052 10.2165 36.8092 10.2185L31.2644 13.498C31.2644 13.498 31.2584 13.4901 31.2545 13.4881C30.7413 12.9213 30.1069 12.4658 29.3909 12.1655C29.387 12.1655 29.385 12.1635 29.381 12.1616C28.7585 11.901 28.0724 11.7578 27.3564 11.7578C27.2311 11.7578 27.1058 11.7618 26.9825 11.7717C26.5131 11.8036 26.0617 11.899 25.6361 12.0462C25.4133 12.1238 25.1985 12.2153 24.9897 12.3207C24.9897 12.3207 24.9837 12.3246 24.9817 12.3246L24.4129 12.6607C24.4129 12.6607 24.409 12.6627 24.409 12.6647C24.409 12.6647 24.405 12.6667 24.405 12.6687C24.405 12.6687 24.397 12.6727 24.395 12.6747C24.395 12.6747 24.3931 12.6767 24.3911 12.6767L23.876 12.9829L21.5709 14.3473L21.1095 14.6197L19.1187 15.7971L5.31239 23.9652H5.3104C5.18312 23.9313 5.04788 23.9134 4.90866 23.9134C4.35378 23.9134 3.86652 24.2038 3.59207 24.6433C3.59207 24.6433 3.59207 24.6453 3.59207 24.6473L3.45285 24.9317C3.45285 24.9317 3.45285 24.9317 3.45285 24.9337C3.43296 24.9854 3.41705 25.0391 3.40313 25.0968C3.37529 25.2141 3.35938 25.3394 3.35938 25.4667C3.35938 26.1509 3.80089 26.7316 4.41543 26.9384H4.41146Z" fill="#6557EA"/>
<path d="M31.7457 25.4328L34.7647 23.6469L34.8801 23.5793H34.8821L35.8586 23.0005L35.8625 22.9985L36.1032 22.8573C36.1032 22.8573 36.1072 22.8553 36.1111 22.8534C37.8514 21.7814 39.1799 20.1247 39.9038 18.1757C39.9038 18.1757 39.9038 18.1737 39.9038 18.1717C40.234 17.2986 40.4388 16.3619 40.4965 15.3874C40.5064 15.2004 40.5124 15.0135 40.5124 14.8245C40.5124 14.7609 40.5124 14.6952 40.5104 14.6316C40.761 14.3552 40.9141 13.9892 40.9141 13.5855C40.9141 13.2971 40.8346 13.0266 40.6974 12.7959C40.5681 12.5732 40.3831 12.3862 40.1604 12.255C39.9277 12.1138 39.6532 12.0322 39.3609 12.0322C38.8458 12.0322 38.3903 12.2828 38.1059 12.6686C37.917 12.9252 37.8056 13.2414 37.8056 13.5855C37.8056 13.8739 37.8852 14.1443 38.0224 14.377C38.1258 14.5521 38.263 14.7072 38.4241 14.8285C38.4241 15.4987 38.3327 16.1471 38.1656 16.7656C37.6903 18.5416 36.5706 20.0531 35.071 21.0296C35.0531 21.0415 35.0332 21.0555 35.0153 21.0654C35.0133 21.0674 35.0113 21.0694 35.0093 21.0694C34.8721 21.1569 34.7329 21.2384 34.5897 21.318H34.5877L29.7052 24.2058L28.7247 24.7865L26.4933 26.1071L16.5293 32.0019H20.6442L28.9813 27.0716L31.7457 25.4348V25.4328Z" fill="#6557EA"/>
<path d="M26.471 23.6828L26.9722 23.3865L29.3011 22.0102L29.9912 21.6025L30.1821 21.4892C30.7628 21.1272 31.262 20.634 31.6538 20.0612C31.7095 19.9796 31.7672 19.8981 31.8189 19.8126C32.4096 19.6137 32.8412 19.0688 32.873 18.4204C32.873 18.3946 32.875 18.3687 32.875 18.3409C32.875 18.0525 32.7954 17.782 32.6582 17.5493C32.6423 17.5175 32.6224 17.4877 32.6025 17.4598C32.3221 17.0521 31.8527 16.7876 31.3217 16.7876C31.0194 16.7876 30.739 16.8731 30.5003 17.0223C30.0608 17.2967 29.7665 17.784 29.7665 18.3428C29.7665 18.5417 29.8042 18.7327 29.8719 18.9077C29.6292 19.2438 29.321 19.5262 28.963 19.737L26.9006 20.9561L25.3394 21.879L24.9615 22.1017L24.6651 22.2787L22.7996 23.3805L8.22363 32.002H12.4061L24.4782 24.8602L26.469 23.6828H26.471Z" fill="#6557EA"/>
<path d="M46.029 11.2188C46.1642 10.9881 46.2418 10.7196 46.2418 10.4332C46.2418 9.83256 45.9017 9.3095 45.4025 9.05295C45.1897 8.94157 44.9451 8.87793 44.6885 8.87793C44.1317 8.87793 43.6424 9.17227 43.368 9.61379C43.2208 9.85046 43.1333 10.1329 43.1333 10.4332C43.1333 10.7335 43.2128 10.992 43.3501 11.2247C43.5032 11.4853 43.7339 11.6981 44.0064 11.8313C44.1297 12.5075 44.1933 13.2036 44.1933 13.9156C44.1933 14.5281 44.1456 15.1288 44.0541 15.7155V15.7194C43.891 16.7556 43.5907 17.748 43.1731 18.6748C43.1731 18.6748 43.1731 18.6768 43.1711 18.6788C42.2065 20.8068 40.6155 22.5928 38.6326 23.798C38.5531 23.8457 38.4735 23.8935 38.392 23.9412C38.386 23.9452 38.382 23.9472 38.3761 23.9511C38.3741 23.9511 38.3721 23.9531 38.3681 23.9551L32.2684 27.5648C32.2684 27.5648 32.2684 27.5648 32.2704 27.5648L24.7666 32.0038H28.8815L36.9839 27.2108L36.9918 27.2068L37.0674 27.1631L37.0793 27.1551L39.3545 25.8087C39.3545 25.8087 39.3625 25.8047 39.3665 25.8027C39.3705 25.7988 39.3764 25.7968 39.3804 25.7948C39.3844 25.7928 39.3884 25.7908 39.3923 25.7868C39.3963 25.7848 39.4003 25.7828 39.4043 25.7789L39.7821 25.5541C41.9022 24.2515 43.6404 22.384 44.786 20.1605C44.786 20.1605 44.786 20.1565 44.788 20.1565C45.2892 19.182 45.677 18.1378 45.9335 17.046C45.9335 17.046 45.9335 17.044 45.9335 17.042C46.1682 16.0377 46.2935 14.9915 46.2935 13.9156C46.2935 12.9928 46.202 12.0919 46.027 11.2188H46.029Z" fill="#6557EA"/>
<path d="M70.6724 8.05888C70.0041 8.05888 69.4632 8.59984 69.4632 9.26808V10.2744C68.0551 8.8385 66.0941 7.94751 63.9263 7.94751C59.6404 7.94751 56.168 11.422 56.168 15.7059C56.168 19.9898 59.6424 23.4642 63.9263 23.4642C66.0961 23.4642 68.0551 22.5732 69.4632 21.1373V22.1437C69.4632 22.8119 70.0041 23.3529 70.6724 23.3529C71.3406 23.3529 71.8816 22.8119 71.8816 22.1437V9.26808C71.8816 8.59984 71.3406 8.05888 70.6724 8.05888ZM69.4632 15.7158C69.4592 18.7706 66.9811 21.2467 63.9263 21.2467C60.8715 21.2467 58.3875 18.7667 58.3875 15.7079C58.3875 12.6491 60.8675 10.169 63.9263 10.169C66.9851 10.169 69.4592 12.6451 69.4632 15.6999V15.7158Z" fill="#6557EA"/>
<path d="M82.6447 8.06079C80.4749 8.06079 78.514 8.95178 77.1059 10.3877V9.26999C77.1059 8.60175 76.5649 8.06079 75.8967 8.06079C75.2285 8.06079 74.6875 8.60175 74.6875 9.26999V32.0001H77.1079V21.2526C78.516 22.6885 80.4769 23.5795 82.6467 23.5795C86.9326 23.5795 90.4051 20.105 90.4051 15.8211C90.4051 11.5372 86.9306 8.06278 82.6467 8.06278L82.6447 8.06079ZM82.6447 21.358C79.5859 21.358 77.1059 18.8779 77.1059 15.8211C77.1059 12.7643 79.5859 10.2823 82.6447 10.2823C85.7035 10.2823 88.1836 12.7623 88.1836 15.8211C88.1836 18.8799 85.7035 21.358 82.6447 21.358Z" fill="#6557EA"/>
<path d="M100.443 8.06079C98.2728 8.06079 96.3118 8.95178 94.9037 10.3877V9.26999C94.9037 8.60175 94.3628 8.06079 93.6945 8.06079C93.0263 8.06079 92.4854 8.60175 92.4854 9.26999V32.0001H94.9057V21.2526C96.3138 22.6885 98.2748 23.5795 100.445 23.5795C104.73 23.5795 108.203 20.105 108.203 15.8211C108.203 11.5372 104.728 8.06278 100.445 8.06278L100.443 8.06079ZM100.443 21.358C97.3838 21.358 94.9037 18.8779 94.9037 15.8211C94.9037 12.7643 97.3838 10.2823 100.443 10.2823C103.501 10.2823 105.981 12.7623 105.981 15.8211C105.981 18.8799 103.501 21.358 100.443 21.358Z" fill="#6557EA"/>
<path d="M118.535 8.17017H117.925C115.15 8.17017 113.448 10.0575 112.67 11.3523V9.37936C112.67 8.71112 112.129 8.17017 111.461 8.17017C110.793 8.17017 110.252 8.71112 110.252 9.37936V22.2569C110.252 22.9252 110.793 23.4661 111.461 23.4661C112.129 23.4661 112.67 22.9252 112.67 22.2569V15.7913C112.67 13.0169 115.075 10.5011 117.925 10.5011H118.535C119.18 10.5011 119.701 9.97999 119.701 9.33561C119.701 8.69123 119.18 8.17017 118.535 8.17017Z" fill="#6557EA"/>
<path d="M134.821 14.1883C134.079 10.4533 130.657 7.68293 126.641 7.96932C122.811 8.24377 119.716 11.3622 119.47 15.1947C119.179 19.7133 122.757 23.4681 127.212 23.4681C129.78 23.4681 132.055 22.2212 133.467 20.298C133.922 19.6794 133.731 18.866 133.019 18.5776C132.506 18.3708 131.979 18.5617 131.685 18.9655C130.667 20.3616 129.016 21.2645 127.15 21.2446C124.265 21.2128 121.838 18.8959 121.683 16.0161C121.679 15.9445 121.679 15.8729 121.677 15.8013H133.636C134.388 15.8013 134.96 15.133 134.855 14.3892C134.845 14.3156 134.833 14.248 134.821 14.1883ZM122.075 13.6315C122.896 11.6009 124.885 10.1689 127.208 10.1689C129.531 10.1689 131.516 11.6029 132.339 13.6315H122.075Z" fill="#6557EA"/>
<path d="M150.427 8.05888C149.759 8.05888 149.218 8.59984 149.218 9.26808V10.2744C147.81 8.8385 145.849 7.94751 143.681 7.94751C139.395 7.94751 135.923 11.422 135.923 15.7059C135.923 19.9898 139.397 23.4642 143.681 23.4642C145.851 23.4642 147.81 22.5732 149.218 21.1373V22.1437C149.218 22.8119 149.759 23.3529 150.427 23.3529C151.096 23.3529 151.636 22.8119 151.636 22.1437V9.26808C151.636 8.59984 151.096 8.05888 150.427 8.05888ZM149.218 15.7158C149.214 18.7706 146.736 21.2467 143.681 21.2467C140.626 21.2467 138.142 18.7667 138.142 15.7079C138.142 12.6491 140.622 10.169 143.681 10.169C146.74 10.169 149.214 12.6451 149.218 15.6999V15.7158Z" fill="#6557EA"/>
<path d="M157.537 11.8315C159.49 9.87847 162.529 9.67163 164.711 11.211C165.167 11.5312 165.781 11.4994 166.175 11.1056C166.67 10.6104 166.592 9.79295 166.022 9.38922C162.935 7.19954 158.623 7.51178 155.883 10.32C155.905 10.2961 155.926 10.2703 155.95 10.2444L155.839 10.3618C155.825 10.3757 155.811 10.3876 155.797 10.4015V10.4055L155.801 10.4095C152.977 13.5637 152.856 18.4085 155.95 21.3281C158.772 23.9911 163.048 24.1522 166.044 21.8909C166.6 21.4693 166.652 20.6519 166.145 20.1726C165.739 19.7907 165.125 19.7768 164.679 20.1089C162.549 21.704 159.524 21.5906 157.516 19.7171C156.181 18.3687 155.676 16.5092 155.994 14.7729C156.213 13.7069 156.736 12.6787 157.537 11.8295V11.8315Z" fill="#6557EA"/>
<path d="M174.878 7.95724C173.172 7.95724 171.873 8.62548 170.797 9.66364V1.2092C170.797 0.540957 170.256 0 169.588 0C168.92 0 168.379 0.540957 168.379 1.2092V22.1454C168.379 22.8137 168.92 23.3546 169.588 23.3546C170.256 23.3546 170.797 22.8137 170.797 22.1454V14.4129C170.797 12.0741 172.504 10.2941 174.878 10.2941C177.03 10.2941 178.737 12.0761 178.737 14.4129V22.1872C178.737 22.8336 179.26 23.3566 179.906 23.3566C180.552 23.3566 181.075 22.8336 181.075 22.1872V14.4129C181.075 10.9981 178.701 7.95525 174.878 7.95525V7.95724Z" fill="#6557EA"/>
</g>
<defs>
<clipPath id="clip0_6385_6">
<rect width="181.075" height="32" fill="white"/>
</clipPath>
</defs>
</svg>
