<svg preserveAspectRatio="none" width="100%" height="100%" overflow="visible" style="display: block;" viewBox="0 0 93.6806 24" fill="none" xmlns="http://www.w3.org/2000/svg">
<g id="Group">
<path id="Vector" d="M10.8783 6.04406C10.3771 6.04406 9.97141 6.44978 9.97141 6.95096V7.70571C8.91535 6.62877 7.44462 5.96053 5.81877 5.96053C2.60435 5.96053 0 8.56637 0 11.7793C0 14.9922 2.60584 17.5981 5.81877 17.5981C7.44611 17.5981 8.91535 16.9298 9.97141 15.8529V16.6076C9.97141 17.1088 10.3771 17.5145 10.8783 17.5145C11.3795 17.5145 11.7852 17.1088 11.7852 16.6076V6.95096C11.7852 6.44978 11.3795 6.04406 10.8783 6.04406ZM9.97141 11.7868C9.96842 14.0779 8.10988 15.9349 5.81877 15.9349C3.52765 15.9349 1.66463 14.0749 1.66463 11.7808C1.66463 9.4867 3.52467 7.62666 5.81877 7.62666C8.11286 7.62666 9.96842 9.48371 9.97141 11.7748V11.7868Z" fill="var(--fill-0, #6557ea)"/>
<path id="Vector_2" d="M19.8578 6.04549C18.2305 6.04549 16.7598 6.71373 15.7037 7.79068V6.95239C15.7037 6.45121 15.298 6.04549 14.7968 6.04549C14.2956 6.04549 13.8899 6.45121 13.8899 6.95239V24H15.7052V15.9393C16.7612 17.0163 18.232 17.6845 19.8593 17.6845C23.0737 17.6845 25.6781 15.0787 25.6781 11.8658C25.6781 8.65283 23.0722 6.04698 19.8593 6.04698L19.8578 6.04549ZM19.8578 16.0184C17.5637 16.0184 15.7037 14.1584 15.7037 11.8658C15.7037 9.57315 17.5637 7.71162 19.8578 7.71162C22.1519 7.71162 24.012 9.57166 24.012 11.8658C24.012 14.1598 22.1519 16.0184 19.8578 16.0184Z" fill="var(--fill-0, #6557ea)"/>
<path id="Vector_3" d="M33.2062 6.04549C31.5789 6.04549 30.1081 6.71373 29.0521 7.79068V6.95239C29.0521 6.45121 28.6464 6.04549 28.1452 6.04549C27.644 6.04549 27.2383 6.45121 27.2383 6.95239V24H29.0536V15.9393C30.1096 17.0163 31.5804 17.6845 33.2077 17.6845C36.4221 17.6845 39.0265 15.0787 39.0265 11.8658C39.0265 8.65283 36.4206 6.04698 33.2077 6.04698L33.2062 6.04549ZM33.2062 16.0184C30.9121 16.0184 29.0521 14.1584 29.0521 11.8658C29.0521 9.57315 30.9121 7.71162 33.2062 7.71162C35.5003 7.71162 37.3603 9.57166 37.3603 11.8658C37.3603 14.1598 35.5003 16.0184 33.2062 16.0184Z" fill="var(--fill-0, #6557ea)"/>
<path id="Vector_4" d="M46.7754 6.1276H46.3175C44.2367 6.1276 42.9598 7.54314 42.3766 8.51418V7.0345C42.3766 6.53332 41.9709 6.1276 41.4697 6.1276C40.9685 6.1276 40.5628 6.53332 40.5628 7.0345V16.6927C40.5628 17.1939 40.9685 17.5996 41.4697 17.5996C41.9709 17.5996 42.3766 17.1939 42.3766 16.6927V11.8435C42.3766 9.76266 44.18 7.87577 46.3175 7.87577H46.7754C47.2587 7.87577 47.6495 7.48497 47.6495 7.00169C47.6495 6.51841 47.2587 6.1276 46.7754 6.1276Z" fill="var(--fill-0, #6557ea)"/>
<path id="Vector_5" d="M58.9902 10.6412C58.4339 7.83995 55.8668 5.76214 52.8552 5.97693C49.9824 6.18277 47.6615 8.52161 47.4765 11.3959C47.2587 14.7849 49.9421 17.601 53.2833 17.601C55.209 17.601 56.9154 16.6658 57.9744 15.2234C58.316 14.7595 58.1728 14.1495 57.6388 13.9332C57.254 13.778 56.8587 13.9212 56.638 14.224C55.8743 15.2711 54.6362 15.9483 53.2371 15.9334C51.0728 15.9096 49.253 14.1718 49.1367 12.012C49.1337 11.9583 49.1337 11.9046 49.1322 11.8509H58.1012C58.6651 11.8509 59.0946 11.3497 59.0156 10.7918C59.0081 10.7367 58.9992 10.6859 58.9902 10.6412ZM49.4305 10.2235C50.0465 8.70061 51.5381 7.62665 53.2803 7.62665C55.0225 7.62665 56.5112 8.7021 57.1287 10.2235H49.4305Z" fill="var(--fill-0, #6557ea)"/>
<path id="Vector_6" d="M70.6949 6.04406C70.1937 6.04406 69.788 6.44978 69.788 6.95096V7.70571C68.7319 6.62877 67.2612 5.96053 65.6353 5.96053C62.4209 5.96053 59.8166 8.56637 59.8166 11.7793C59.8166 14.9922 62.4224 17.5981 65.6353 17.5981C67.2627 17.5981 68.7319 16.9298 69.788 15.8529V16.6076C69.788 17.1088 70.1937 17.5145 70.6949 17.5145C71.1961 17.5145 71.6018 17.1088 71.6018 16.6076V6.95096C71.6018 6.44978 71.1961 6.04406 70.6949 6.04406ZM69.788 11.7868C69.785 14.0779 67.9265 15.9349 65.6353 15.9349C63.3442 15.9349 61.4812 14.0749 61.4812 11.7808C61.4812 9.4867 63.3412 7.62666 65.6353 7.62666C67.9294 7.62666 69.785 9.48371 69.788 11.7748V11.7868Z" fill="var(--fill-0, #6557ea)"/>
<path id="Vector_7" d="M76.0273 8.87359C77.4921 7.40883 79.7713 7.2537 81.4076 8.40821C81.7492 8.64836 82.2101 8.62449 82.5054 8.32916C82.8768 7.95774 82.8186 7.34469 82.3905 7.0419C80.0756 5.39963 76.8418 5.63382 74.7863 7.73997C74.8027 7.72207 74.8191 7.70268 74.837 7.68329L74.7535 7.77129C74.7431 7.78173 74.7326 7.79068 74.7222 7.80113V7.80411L74.7252 7.80709C72.6071 10.1728 72.5161 13.8063 74.837 15.996C76.9536 17.9933 80.1606 18.1141 82.407 16.4182C82.8246 16.1019 82.8634 15.4889 82.483 15.1294C82.1787 14.843 81.7178 14.8326 81.3837 15.0817C79.7862 16.2779 77.5175 16.1929 76.0109 14.7878C75.0101 13.7765 74.6312 12.3819 74.8698 11.0797C75.0339 10.2802 75.4262 9.50902 76.0273 8.8721V8.87359Z" fill="var(--fill-0, #6557ea)"/>
<path id="Vector_8" d="M89.0327 5.96793C87.7529 5.96793 86.7789 6.46911 85.9719 7.24773V0.906899C85.9719 0.405718 85.5662 0 85.065 0C84.5638 0 84.1581 0.405718 84.1581 0.906899V16.6091C84.1581 17.1103 84.5638 17.516 85.065 17.516C85.5662 17.516 85.9719 17.1103 85.9719 16.6091V10.8097C85.9719 9.05556 87.2517 7.72057 89.0327 7.72057C90.6466 7.72057 91.9264 9.05705 91.9264 10.8097V16.6404C91.9264 17.1252 92.3187 17.5175 92.8035 17.5175C93.2883 17.5175 93.6806 17.1252 93.6806 16.6404V10.8097C93.6806 8.2486 91.8996 5.96644 89.0327 5.96644V5.96793Z" fill="var(--fill-0, #6557ea)"/>
</g>
</svg>
