<svg width="159" height="28" viewBox="0 0 159 28" fill="none" xmlns="http://www.w3.org/2000/svg">
<g clip-path="url(#clip0_5847_6268)">
<path d="M20.3605 18.0844L20.5345 17.9817L20.5467 17.9748C20.571 18.0096 20.5989 18.0444 20.625 18.0775C20.926 18.3907 21.2706 18.6622 21.65 18.8797L22.4818 17.4353L22.5758 17.2717L23.0073 16.5182L23.8461 15.0582C23.8879 14.9868 23.8322 14.8981 23.7487 14.905L21.8832 15.053H21.8536V15.0564L21.2062 15.1069L21.0566 15.1191L19.3564 15.2531C19.3842 15.6133 19.4538 15.9614 19.56 16.2937C19.5739 16.3251 19.5878 16.3581 19.6017 16.3877C19.6017 16.3912 19.6052 16.3947 19.607 16.3999L19.5983 16.4069L19.4277 16.5078L17.8424 17.4458L0 28.0001H3.59876L18.7751 19.0241L20.3605 18.0862V18.0844Z" fill="#6557EA"/>
<path d="M3.86003 23.5712C3.86003 23.5712 3.86699 23.5747 3.86873 23.5747C4.00272 23.6199 4.14542 23.6443 4.29334 23.6443C4.96332 23.6443 5.51845 23.1623 5.63156 22.5254L17.1465 15.7124L18.7806 14.7449L19.0225 14.6022L19.3653 14.4003L20.7192 13.5998C20.7192 13.5998 20.7192 13.605 20.7192 13.6085L22.5029 12.5522C22.5308 12.5348 22.5586 12.5191 22.5864 12.5035C22.9849 12.2755 23.4478 12.1467 23.9403 12.1467C24.6086 12.1467 25.2211 12.3851 25.6979 12.7837C25.7014 12.7854 25.7049 12.7889 25.7084 12.7924C26.18 13.1891 26.5158 13.7425 26.6359 14.3725L27.5304 13.8434L27.5408 13.8382L27.5948 13.8052H27.5982L27.6156 13.7912L28.2909 13.3927L33.1373 10.5249L34.7227 9.58688L35.8851 8.8995L37.688 7.83275L38.3702 7.42902H38.3736L38.6608 7.25674L39.2733 6.89478C39.155 6.65289 39.0262 6.41622 38.8905 6.18303C38.8905 6.18303 38.8905 6.18129 38.8905 6.17955C38.8644 6.13082 38.8365 6.08384 38.8087 6.03685C38.8087 6.03685 38.8087 6.03511 38.8069 6.03337C38.6573 5.78452 38.5007 5.54263 38.3336 5.30596C36.2332 2.31976 32.8015 0.341141 28.8999 0.231508C28.893 0.231508 28.8877 0.231508 28.8808 0.231508C28.7746 0.228027 28.6667 0.228027 28.5588 0.228027C26.4619 0.228027 24.492 0.767493 22.7796 1.71765C22.7796 1.71765 22.7761 1.71765 22.7761 1.71939L22.2088 2.05525C22.2088 2.05525 22.2019 2.05873 22.2001 2.06221C22.1949 2.06569 22.1897 2.06917 22.1845 2.07091L10.5337 8.96389C10.4363 8.94126 10.3371 8.93082 10.2327 8.93082C9.61316 8.93082 9.08936 9.34673 8.92578 9.91404C8.89098 10.0324 8.87183 10.1594 8.87183 10.2899C8.87183 10.8659 9.23032 11.3584 9.73846 11.5568C9.74194 11.5568 9.74716 11.5603 9.75238 11.5603C9.90204 11.616 10.0621 11.6473 10.2309 11.6473C10.9166 11.6473 11.4839 11.1392 11.5779 10.4796C11.5779 10.4761 11.5779 10.4709 11.5779 10.4657L17.9349 6.70509L19.7186 5.65053L20.0457 5.45736C20.0318 5.46954 20.0161 5.48173 20.0022 5.49565L23.1033 3.66146C23.1033 3.66146 23.1102 3.65798 23.112 3.6545C23.3121 3.52573 23.5175 3.40391 23.7263 3.2908C23.7332 3.28732 23.7402 3.28384 23.7472 3.27862C23.7506 3.27688 23.7524 3.27514 23.7559 3.2734C25.1846 2.499 26.8204 2.06047 28.5588 2.06047C28.7973 2.06047 29.0357 2.06917 29.2706 2.08483C29.295 2.08483 29.3193 2.08831 29.3419 2.09005C32.3873 2.32324 35.0533 3.90509 36.7448 6.24046L33.7847 7.99111C33.4088 7.48993 32.9772 7.03225 32.4987 6.63026C32.4969 6.62852 32.4952 6.62678 32.4917 6.62678C31.9714 6.18477 31.3936 5.80888 30.7724 5.50783C30.0345 5.1476 29.2358 4.89527 28.3953 4.76998C28.3813 4.7665 28.3692 4.76476 28.3552 4.76302C27.962 4.70385 27.56 4.67601 27.151 4.67601C25.9276 4.67601 24.7652 4.94052 23.7193 5.41734L22.2001 6.31703L20.9037 7.08446L20.5312 7.30547L19.3462 8.00677L16.9325 9.43548L7.5893 14.9607C7.57016 14.9554 7.55101 14.952 7.53187 14.9467C7.43964 14.9259 7.34045 14.9154 7.24126 14.9154C6.77488 14.9154 6.36419 15.1503 6.11882 15.5071L5.95002 15.8499C5.95002 15.8499 5.95002 15.8499 5.95002 15.8516C5.94654 15.8638 5.94132 15.876 5.93784 15.8899C5.93088 15.9091 5.92566 15.9282 5.92044 15.9474C5.89433 16.0518 5.88041 16.1631 5.88041 16.2745C5.88041 16.8523 6.24237 17.3482 6.75226 17.5431C6.76096 17.5466 6.7714 17.5518 6.78184 17.5553C6.92454 17.6058 7.07768 17.6354 7.23951 17.6354C7.91646 17.6354 8.47855 17.1411 8.58122 16.492C8.58122 16.4816 8.5847 16.4712 8.5847 16.459L16.6227 11.7047L18.5787 10.5475L19.381 10.0741L21.5214 8.80727C21.5214 8.80727 21.5232 8.80727 21.5249 8.80727L21.739 8.68023L23.4391 7.67439C23.7141 7.47949 24.0065 7.30721 24.3127 7.15755C24.3876 7.12274 24.4606 7.08794 24.5355 7.05488C24.5355 7.05488 24.5372 7.05488 24.539 7.05488C25.336 6.70161 26.22 6.50497 27.1493 6.50497C27.7027 6.50497 28.2404 6.57458 28.7537 6.70509C29.4951 6.89478 30.1842 7.21149 30.7968 7.63263C30.7985 7.63263 30.8002 7.63437 30.8037 7.63611C31.3293 7.99807 31.8009 8.43486 32.1994 8.93256C32.2028 8.93604 32.2046 8.93952 32.2081 8.94127L27.3564 11.8109C27.3564 11.8109 27.3511 11.8039 27.3477 11.8022C26.8987 11.3062 26.3436 10.9077 25.7171 10.6449C25.7136 10.6449 25.7119 10.6432 25.7084 10.6415C25.1637 10.4135 24.5633 10.2882 23.9368 10.2882C23.8272 10.2882 23.7176 10.2917 23.6097 10.3004C23.199 10.3282 22.804 10.4117 22.4316 10.5405C22.2367 10.6084 22.0487 10.6884 21.866 10.7807C21.866 10.7807 21.8608 10.7841 21.859 10.7841L21.3613 11.0782C21.3613 11.0782 21.3578 11.08 21.3578 11.0817C21.3578 11.0817 21.3544 11.0835 21.3544 11.0852C21.3544 11.0852 21.3474 11.0887 21.3457 11.0904C21.3457 11.0904 21.3439 11.0922 21.3422 11.0922L20.8915 11.3602L18.8746 12.5539L18.4708 12.7924L16.7289 13.8226L4.64834 20.9696H4.6466C4.53523 20.94 4.41689 20.9244 4.29508 20.9244C3.80956 20.9244 3.38321 21.1784 3.14306 21.563C3.14306 21.563 3.14306 21.5648 3.14306 21.5665L3.02124 21.8153C3.02124 21.8153 3.02124 21.8153 3.02124 21.8171C3.00384 21.8623 2.98992 21.9093 2.97774 21.9598C2.95338 22.0625 2.93945 22.1721 2.93945 22.2835C2.93945 22.8821 3.32578 23.3902 3.86351 23.5712H3.86003Z" fill="#6557EA"/>
<path d="M27.7775 22.2539L30.4191 20.6912L30.5201 20.632H30.5218L31.3762 20.1256L31.3797 20.1238L31.5903 20.0003C31.5903 20.0003 31.5938 19.9986 31.5973 19.9968C33.1199 19.0588 34.2824 17.6092 34.9158 15.9038C34.9158 15.9038 34.9158 15.9021 34.9158 15.9004C35.2047 15.1364 35.384 14.3168 35.4344 13.4641C35.4431 13.3005 35.4483 13.1369 35.4483 12.9716C35.4483 12.9159 35.4483 12.8585 35.4466 12.8028C35.6659 12.5609 35.7999 12.2407 35.7999 11.8874C35.7999 11.6351 35.7303 11.3984 35.6102 11.1966C35.4971 11.0017 35.3352 10.8381 35.1403 10.7232C34.9367 10.5997 34.6966 10.5283 34.4408 10.5283C33.99 10.5283 33.5915 10.7476 33.3427 11.0852C33.1774 11.3097 33.0799 11.5864 33.0799 11.8874C33.0799 12.1398 33.1495 12.3764 33.2696 12.58C33.3601 12.7332 33.4802 12.8689 33.6211 12.9751C33.6211 13.5615 33.5411 14.1288 33.3949 14.67C32.979 16.224 31.9992 17.5466 30.6871 18.401C30.6715 18.4115 30.6541 18.4237 30.6384 18.4324C30.6367 18.4341 30.6349 18.4358 30.6332 18.4358C30.5131 18.5124 30.3913 18.5838 30.266 18.6534H30.2643L25.992 21.1802L25.1341 21.6883L23.1816 22.8438L14.4631 28.0018H18.0636L25.3586 23.6878L27.7775 22.2556V22.2539Z" fill="#6557EA"/>
<path d="M23.1622 20.7225L23.6008 20.4632L25.6386 19.259L26.2424 18.9023L26.4095 18.8031C26.9176 18.4864 27.3544 18.0548 27.6972 17.5536C27.746 17.4822 27.7964 17.4109 27.8417 17.3361C28.3585 17.162 28.7361 16.6852 28.764 16.1179C28.764 16.0953 28.7657 16.0727 28.7657 16.0483C28.7657 15.796 28.6961 15.5593 28.576 15.3557C28.5621 15.3279 28.5447 15.3018 28.5273 15.2774C28.2819 14.9207 27.8713 14.6892 27.4066 14.6892C27.1421 14.6892 26.8967 14.764 26.6879 14.8946C26.3033 15.1347 26.0458 15.5611 26.0458 16.0501C26.0458 16.2241 26.0788 16.3911 26.138 16.5443C25.9257 16.8384 25.656 17.0855 25.3427 17.2699L23.5381 18.3367L22.1721 19.1441L21.8414 19.3391L21.5821 19.4939L19.9498 20.458L7.1958 28.0018H10.8555L21.4185 21.7527L23.1605 20.7225H23.1622Z" fill="#6557EA"/>
<path d="M40.2755 9.81654C40.3938 9.61467 40.4617 9.37975 40.4617 9.12916C40.4617 8.60361 40.1641 8.14594 39.7273 7.92145C39.5411 7.824 39.3271 7.76831 39.1026 7.76831C38.6153 7.76831 38.1872 8.02586 37.9471 8.41219C37.8183 8.61927 37.7418 8.86638 37.7418 9.12916C37.7418 9.39193 37.8114 9.61816 37.9314 9.82176C38.0654 10.0497 38.2673 10.2359 38.5057 10.3525C38.6136 10.9442 38.6693 11.5533 38.6693 12.1763C38.6693 12.7123 38.6275 13.2378 38.5475 13.7512V13.7546C38.4048 14.6613 38.142 15.5297 37.7766 16.3406C37.7766 16.3406 37.7766 16.3423 37.7748 16.3441C36.9308 18.2061 35.5386 19.7688 33.8037 20.8234C33.734 20.8651 33.6644 20.9069 33.5931 20.9487C33.5879 20.9522 33.5844 20.9539 33.5792 20.9574C33.5774 20.9574 33.5757 20.9591 33.5722 20.9609L28.235 24.1193C28.235 24.1193 28.235 24.1193 28.2367 24.1193L21.6709 28.0035H25.2714L32.361 23.8096L32.368 23.8061L32.4341 23.7678L32.4445 23.7609L34.4354 22.5827C34.4354 22.5827 34.4423 22.5793 34.4458 22.5775C34.4493 22.574 34.4545 22.5723 34.458 22.5705C34.4615 22.5688 34.4649 22.5671 34.4684 22.5636C34.4719 22.5618 34.4754 22.5601 34.4789 22.5566L34.8095 22.36C36.6646 21.2201 38.1855 19.5861 39.1879 17.6405C39.1879 17.6405 39.1879 17.637 39.1896 17.637C39.6281 16.7843 39.9675 15.8707 40.192 14.9154C40.192 14.9154 40.192 14.9136 40.192 14.9119C40.3973 14.0331 40.5069 13.1177 40.5069 12.1763C40.5069 11.3688 40.4269 10.5805 40.2738 9.81654H40.2755Z" fill="#6557EA"/>
<path d="M61.8386 7.05143C61.2539 7.05143 60.7805 7.52477 60.7805 8.10948V8.99003C59.5485 7.73359 57.8326 6.95398 55.9358 6.95398C52.1856 6.95398 49.1472 9.99413 49.1472 13.7425C49.1472 17.491 52.1874 20.5311 55.9358 20.5311C57.8343 20.5311 59.5485 19.7515 60.7805 18.4951V19.3756C60.7805 19.9603 61.2539 20.4337 61.8386 20.4337C62.4233 20.4337 62.8966 19.9603 62.8966 19.3756V8.10948C62.8966 7.52477 62.4233 7.05143 61.8386 7.05143ZM60.7805 13.7512C60.777 16.4242 58.6087 18.5908 55.9358 18.5908C53.2628 18.5908 51.0893 16.4207 51.0893 13.7443C51.0893 11.0678 53.2593 8.8978 55.9358 8.8978C58.6122 8.8978 60.777 11.0644 60.7805 13.7373V13.7512Z" fill="#6557EA"/>
<path d="M72.3146 7.0531C70.4161 7.0531 68.7002 7.83272 67.4681 9.08915V8.11115C67.4681 7.52644 66.9948 7.0531 66.4101 7.0531C65.8254 7.0531 65.3521 7.52644 65.3521 8.11115V28H67.4699V18.5959C68.702 19.8524 70.4178 20.632 72.3164 20.632C76.0665 20.632 79.1049 17.5918 79.1049 13.8434C79.1049 10.095 76.0648 7.05484 72.3164 7.05484L72.3146 7.0531ZM72.3146 18.6882C69.6382 18.6882 67.4681 16.5181 67.4681 13.8434C67.4681 11.1687 69.6382 8.99692 72.3146 8.99692C74.9911 8.99692 77.1611 11.167 77.1611 13.8434C77.1611 16.5199 74.9911 18.6882 72.3146 18.6882Z" fill="#6557EA"/>
<path d="M87.8876 7.0531C85.9891 7.0531 84.2732 7.83272 83.0411 9.08915V8.11115C83.0411 7.52644 82.5678 7.0531 81.9831 7.0531C81.3984 7.0531 80.925 7.52644 80.925 8.11115V28H83.0429V18.5959C84.275 19.8524 85.9908 20.632 87.8894 20.632C91.6395 20.632 94.6779 17.5918 94.6779 13.8434C94.6779 10.095 91.6378 7.05484 87.8894 7.05484L87.8876 7.0531ZM87.8876 18.6882C85.2112 18.6882 83.0411 16.5181 83.0411 13.8434C83.0411 11.1687 85.2112 8.99692 87.8876 8.99692C90.5641 8.99692 92.7341 11.167 92.7341 13.8434C92.7341 16.5199 90.5641 18.6882 87.8876 18.6882Z" fill="#6557EA"/>
<path d="M103.718 7.1488H103.184C100.757 7.1488 99.267 8.80026 98.5866 9.93314V8.20685C98.5866 7.62214 98.1132 7.1488 97.5285 7.1488C96.9438 7.1488 96.4705 7.62214 96.4705 8.20685V19.4747C96.4705 20.0594 96.9438 20.5328 97.5285 20.5328C98.1132 20.5328 98.5866 20.0594 98.5866 19.4747V13.8173C98.5866 11.3897 100.69 9.18833 103.184 9.18833H103.718C104.282 9.18833 104.738 8.7324 104.738 8.16857C104.738 7.60474 104.282 7.1488 103.718 7.1488Z" fill="#6557EA"/>
<path d="M117.969 12.4148C117.32 9.14665 114.325 6.72253 110.812 6.97312C107.46 7.21327 104.752 9.94192 104.536 13.2953C104.282 17.2491 107.413 20.5346 111.311 20.5346C113.558 20.5346 115.548 19.4435 116.784 17.7607C117.183 17.2195 117.015 16.5077 116.392 16.2554C115.944 16.0744 115.482 16.2415 115.225 16.5948C114.334 17.8164 112.889 18.6064 111.257 18.589C108.732 18.5612 106.609 16.5338 106.473 14.014C106.47 13.9514 106.47 13.8887 106.468 13.8261H116.932C117.59 13.8261 118.091 13.2414 117.999 12.5905C117.99 12.5261 117.98 12.467 117.969 12.4148ZM106.816 11.9275C107.535 10.1507 109.275 8.8978 111.308 8.8978C113.34 8.8978 115.077 10.1525 115.797 11.9275H106.816Z" fill="#6557EA"/>
<path d="M131.624 7.05143C131.04 7.05143 130.566 7.52477 130.566 8.10948V8.99003C129.334 7.73359 127.619 6.95398 125.722 6.95398C121.972 6.95398 118.933 9.99413 118.933 13.7425C118.933 17.491 121.973 20.5311 125.722 20.5311C127.62 20.5311 129.334 19.7515 130.566 18.4951V19.3756C130.566 19.9603 131.04 20.4337 131.624 20.4337C132.209 20.4337 132.683 19.9603 132.683 19.3756V8.10948C132.683 7.52477 132.209 7.05143 131.624 7.05143ZM130.566 13.7512C130.563 16.4242 128.395 18.5908 125.722 18.5908C123.049 18.5908 120.875 16.4207 120.875 13.7443C120.875 11.0678 123.045 8.8978 125.722 8.8978C128.398 8.8978 130.563 11.0644 130.566 13.7373V13.7512Z" fill="#6557EA"/>
<path d="M137.846 10.3525C139.555 8.64357 142.214 8.46259 144.123 9.80951C144.521 10.0897 145.059 10.0618 145.403 9.71728C145.837 9.28397 145.769 8.56874 145.269 8.21548C142.569 6.29951 138.796 6.57272 136.398 9.0299C136.417 9.00901 136.436 8.98639 136.457 8.96377L136.36 9.06644C136.347 9.07862 136.335 9.08906 136.323 9.10125V9.10473L136.327 9.10821C133.855 11.8682 133.749 16.1073 136.457 18.662C138.926 20.9921 142.668 21.1331 145.289 19.1544C145.776 18.7855 145.821 18.0703 145.377 17.6509C145.022 17.3168 144.485 17.3046 144.095 17.5952C142.231 18.9909 139.584 18.8917 137.827 17.2524C136.659 16.0725 136.217 14.4454 136.495 12.9262C136.687 11.9935 137.144 11.0938 137.846 10.3507V10.3525Z" fill="#6557EA"/>
<path d="M153.019 6.96259C151.525 6.96259 150.389 7.5473 149.448 8.45569V1.05805C149.448 0.473338 148.974 0 148.39 0C147.805 0 147.332 0.473338 147.332 1.05805V19.3773C147.332 19.962 147.805 20.4353 148.39 20.4353C148.974 20.4353 149.448 19.962 149.448 19.3773V12.6113C149.448 10.5648 150.941 9.00733 153.019 9.00733C154.901 9.00733 156.395 10.5666 156.395 12.6113V19.4138C156.395 19.9794 156.852 20.437 157.418 20.437C157.983 20.437 158.441 19.9794 158.441 19.4138V12.6113C158.441 9.62337 156.363 6.96085 153.019 6.96085V6.96259Z" fill="#6557EA"/>
</g>
<defs>
<clipPath id="clip0_5847_6268">
<rect width="158.441" height="28" fill="white"/>
</clipPath>
</defs>
</svg>
