<svg preserveAspectRatio="xMidYMid meet" width="100%" height="100%" overflow="visible" style="display: block;" viewBox="0 0 22.0587 15.1255" fill="none" xmlns="http://www.w3.org/2000/svg">
<g id="Group">
<path id="Vector" d="M11.0876 9.72387L11.1823 9.66796L11.189 9.66417C11.2022 9.68312 11.2174 9.70208 11.2316 9.72008C11.3956 9.89066 11.5832 10.0385 11.7898 10.157L12.2428 9.3704L12.2939 9.28132L12.529 8.87098L12.9857 8.0759C13.0085 8.03704 12.9782 7.98871 12.9327 7.9925L11.9168 8.07305H11.9007V8.07495L11.5481 8.10243L11.4666 8.10906L10.5408 8.18203C10.5559 8.3782 10.5938 8.56773 10.6517 8.74873C10.6592 8.76579 10.6668 8.7838 10.6744 8.79991C10.6744 8.8018 10.6763 8.8037 10.6772 8.80654L10.6725 8.81033L10.5796 8.86529L9.71632 9.37608L0 15.1236H1.95975L10.2243 10.2356L11.0876 9.72482V9.72387Z" fill="var(--fill-0, white)"/>
<path id="Vector_2" d="M2.10195 12.7119C2.10195 12.7119 2.10574 12.7138 2.10669 12.7138C2.17966 12.7384 2.25737 12.7517 2.33792 12.7517C2.70277 12.7517 3.00507 12.4892 3.06667 12.1423L9.33731 8.43225L10.2272 7.90535L10.3589 7.82765L10.5456 7.71772L11.2828 7.2818C11.2828 7.2818 11.2828 7.28464 11.2828 7.28653L12.2542 6.71131C12.2694 6.70183 12.2845 6.6933 12.2997 6.68477C12.5167 6.56063 12.7688 6.4905 13.037 6.4905C13.4009 6.4905 13.7344 6.62033 13.9941 6.83734C13.996 6.83829 13.9979 6.84019 13.9998 6.84208C14.2566 7.05815 14.4395 7.3595 14.5049 7.70255L14.992 7.41447L14.9977 7.41162L15.027 7.39362H15.0289L15.0384 7.38604L15.4061 7.16902L18.0453 5.60729L18.9086 5.0965L19.5417 4.72218L20.5234 4.14126L20.8949 3.92141H20.8968L21.0532 3.82759L21.3868 3.63048C21.3223 3.49875 21.2522 3.36987 21.1783 3.24288C21.1783 3.24288 21.1783 3.24194 21.1783 3.24099C21.1641 3.21445 21.1489 3.18887 21.1337 3.16328C21.1337 3.16328 21.1337 3.16233 21.1328 3.16139C21.0513 3.02587 20.966 2.89415 20.875 2.76527C19.7312 1.13909 17.8624 0.0616023 15.7378 0.00189993C15.734 0.00189993 15.7311 0.00189993 15.7274 0.00189993C15.6695 4.61767e-06 15.6108 4.60814e-06 15.552 4.60814e-06C14.4101 4.60814e-06 13.3374 0.293778 12.4049 0.811198C12.4049 0.811198 12.403 0.811198 12.403 0.812146L12.094 0.995044C12.094 0.995044 12.0903 0.996939 12.0893 0.998834C12.0865 1.00073 12.0836 1.00262 12.0808 1.00357L5.73622 4.75724C5.68315 4.74492 5.62913 4.73923 5.57227 4.73923C5.23491 4.73923 4.94966 4.96572 4.86058 5.27466C4.84163 5.3391 4.8312 5.40828 4.8312 5.47935C4.8312 5.79303 5.02642 6.06121 5.30314 6.16925C5.30503 6.16925 5.30788 6.17114 5.31072 6.17114C5.39222 6.20147 5.4794 6.21852 5.57132 6.21852C5.9447 6.21852 6.25364 5.94181 6.30481 5.58265C6.30481 5.58075 6.30481 5.57791 6.30481 5.57507L9.7666 3.52718L10.7379 2.9529L10.9161 2.84771C10.9085 2.85435 10.9 2.86098 10.8924 2.86856L12.5811 1.86973C12.5811 1.86973 12.5849 1.86783 12.5859 1.86594C12.6949 1.79581 12.8067 1.72948 12.9204 1.66788C12.9242 1.66598 12.928 1.66409 12.9318 1.66125C12.9337 1.6603 12.9346 1.65935 12.9365 1.6584C13.7145 1.2367 14.6053 0.997887 15.552 0.997887C15.6819 0.997887 15.8117 1.00262 15.9396 1.01115C15.9529 1.01115 15.9662 1.01305 15.9785 1.014C17.6369 1.14098 19.0887 2.0024 20.0098 3.27416L18.3979 4.2275C18.1932 3.95457 17.9581 3.70534 17.6975 3.48643C17.6966 3.48548 17.6956 3.48454 17.6937 3.48454C17.4104 3.24383 17.0958 3.03914 16.7575 2.87519C16.3557 2.67903 15.9207 2.54162 15.463 2.47339C15.4554 2.47149 15.4487 2.47054 15.4412 2.4696C15.227 2.43738 15.0081 2.42221 14.7854 2.42221C14.1192 2.42221 13.4861 2.56626 12.9166 2.82592L12.0893 3.31585L11.3833 3.73377L11.1805 3.85412L10.5351 4.23603L9.22075 5.01405L4.13278 8.02286C4.12236 8.02002 4.11193 8.01812 4.10151 8.01528C4.05128 8.00391 3.99727 7.99822 3.94325 7.99822C3.68928 7.99822 3.46563 8.12616 3.33201 8.32043L3.24009 8.50711C3.24009 8.50711 3.24009 8.50711 3.24009 8.50806C3.23819 8.5147 3.23535 8.52133 3.23346 8.52891C3.22967 8.53933 3.22682 8.54976 3.22398 8.56018C3.20976 8.61704 3.20218 8.67769 3.20218 8.73834C3.20218 9.05296 3.3993 9.32305 3.67696 9.42918C3.6817 9.43108 3.68738 9.43392 3.69307 9.43582C3.77078 9.4633 3.85417 9.47941 3.9423 9.47941C4.31094 9.47941 4.61703 9.21027 4.67295 8.8568C4.67295 8.85111 4.67484 8.84543 4.67484 8.83879L9.05207 6.2498L10.1172 5.61961L10.5541 5.36184L11.7197 4.67195C11.7197 4.67195 11.7207 4.67195 11.7216 4.67195L11.8382 4.60277L12.764 4.05503C12.9138 3.94889 13.073 3.85507 13.2398 3.77357C13.2805 3.75462 13.3203 3.73567 13.3611 3.71766C13.3611 3.71766 13.362 3.71766 13.363 3.71766C13.797 3.52529 14.2784 3.4182 14.7844 3.4182C15.0858 3.4182 15.3786 3.45611 15.6582 3.52718C16.0619 3.63048 16.4372 3.80295 16.7707 4.03228C16.7717 4.03228 16.7726 4.03323 16.7745 4.03418C17.0607 4.23129 17.3175 4.46915 17.5345 4.74018C17.5364 4.74208 17.5374 4.74397 17.5393 4.74492L14.8972 6.3076C14.8972 6.3076 14.8944 6.30381 14.8925 6.30287C14.648 6.03278 14.3457 5.81577 14.0045 5.67267C14.0026 5.67267 14.0017 5.67173 13.9998 5.67078C13.7032 5.54664 13.3762 5.4784 13.0351 5.4784C12.9754 5.4784 12.9157 5.4803 12.8569 5.48504C12.6333 5.5002 12.4181 5.54569 12.2153 5.61581C12.1092 5.65277 12.0069 5.69637 11.9074 5.74659C11.9074 5.74659 11.9045 5.74849 11.9036 5.74849L11.6325 5.90864C11.6325 5.90864 11.6306 5.90959 11.6306 5.91054C11.6306 5.91054 11.6287 5.91148 11.6287 5.91243C11.6287 5.91243 11.625 5.91433 11.624 5.91527C11.624 5.91527 11.6231 5.91622 11.6221 5.91622L11.3767 6.06216L10.2783 6.71225L10.0585 6.84208L9.10987 7.40309L2.53124 11.2951H2.5303C2.46965 11.279 2.4052 11.2705 2.33887 11.2705C2.07447 11.2705 1.8423 11.4088 1.71152 11.6183C1.71152 11.6183 1.71152 11.6192 1.71152 11.6202L1.64518 11.7557C1.64518 11.7557 1.64518 11.7557 1.64518 11.7566C1.63571 11.7813 1.62813 11.8069 1.62149 11.8343C1.60823 11.8902 1.60064 11.9499 1.60064 12.0106C1.60064 12.3366 1.81102 12.6133 2.10385 12.7119H2.10195Z" fill="var(--fill-0, white)"/>
<path id="Vector_3" d="M15.1265 11.9945L16.5651 11.1435L16.62 11.1113H16.621L17.0863 10.8355L17.0882 10.8346L17.2028 10.7673C17.2028 10.7673 17.2047 10.7663 17.2066 10.7654C18.0358 10.2546 18.6689 9.4652 19.0138 8.53649C19.0138 8.53649 19.0138 8.53554 19.0138 8.5346C19.1711 8.11858 19.2687 7.67223 19.2962 7.20788C19.3009 7.1188 19.3038 7.02972 19.3038 6.93969C19.3038 6.90937 19.3038 6.87809 19.3028 6.84777C19.4222 6.71604 19.4952 6.54168 19.4952 6.3493C19.4952 6.21189 19.4573 6.08301 19.3919 5.97308C19.3303 5.86694 19.2422 5.77787 19.1361 5.71532C19.0252 5.64804 18.8944 5.60918 18.7551 5.60918C18.5097 5.60918 18.2926 5.72859 18.1571 5.91243C18.0671 6.03468 18.014 6.18536 18.014 6.3493C18.014 6.48671 18.0519 6.61559 18.1173 6.72647C18.1666 6.80986 18.232 6.88378 18.3087 6.94159C18.3087 7.26095 18.2652 7.56988 18.1856 7.8646C17.9591 8.71086 17.4255 9.43108 16.711 9.89638C16.7025 9.90206 16.693 9.9087 16.6845 9.91344C16.6835 9.91438 16.6826 9.91533 16.6816 9.91533C16.6162 9.95703 16.5499 9.99588 16.4817 10.0338H16.4807L14.1542 11.4098L13.687 11.6865L12.6238 12.3157L7.876 15.1246H9.8367L13.8093 12.7754L15.1265 11.9954V11.9945Z" fill="var(--fill-0, white)"/>
<path id="Vector_4" d="M12.6133 11.1605L12.8521 11.0193L13.9618 10.3635L14.2907 10.1692L14.3817 10.1152C14.6584 9.94275 14.8962 9.70773 15.0829 9.43481C15.1095 9.39595 15.1369 9.3571 15.1616 9.31635C15.443 9.22159 15.6487 8.96193 15.6638 8.65299C15.6638 8.64067 15.6648 8.62835 15.6648 8.61509C15.6648 8.47767 15.6269 8.34879 15.5615 8.23792C15.5539 8.22275 15.5444 8.20854 15.535 8.19527C15.4013 8.001 15.1777 7.87497 14.9247 7.87497C14.7806 7.87497 14.647 7.91571 14.5333 7.98679C14.3239 8.11756 14.1836 8.34974 14.1836 8.61603C14.1836 8.7108 14.2016 8.80177 14.2338 8.88517C14.1182 9.04532 13.9713 9.17989 13.8007 9.28034L12.818 9.86125L12.0741 10.301L11.8941 10.4071L11.7529 10.4914L10.864 11.0164L3.91859 15.1245H5.91151L11.6638 11.7215L12.6124 11.1605H12.6133Z" fill="var(--fill-0, white)"/>
<path id="Vector_5" d="M21.9326 5.22158C21.9971 5.11165 22.034 4.98372 22.034 4.84726C22.034 4.56107 21.872 4.31183 21.6341 4.18958C21.5327 4.13652 21.4162 4.10619 21.2939 4.10619C21.0286 4.10619 20.7955 4.24644 20.6647 4.45682C20.5946 4.56959 20.5529 4.70416 20.5529 4.84726C20.5529 4.99035 20.5908 5.11355 20.6561 5.22442C20.7291 5.34857 20.839 5.44997 20.9689 5.51346C21.0276 5.83566 21.058 6.16734 21.058 6.5066C21.058 6.79848 21.0352 7.08467 20.9916 7.36423V7.36613C20.9139 7.85986 20.7708 8.33274 20.5718 8.77434C20.5718 8.77434 20.5718 8.77529 20.5709 8.77624C20.1112 9.79023 19.3531 10.6412 18.4083 11.2155C18.3704 11.2383 18.3325 11.261 18.2936 11.2837C18.2908 11.2856 18.2889 11.2866 18.2861 11.2885C18.2851 11.2885 18.2842 11.2894 18.2823 11.2904L15.3758 13.0104C15.3758 13.0104 15.3758 13.0104 15.3768 13.0104L11.8012 15.1255H13.762L17.6227 12.8417L17.6265 12.8398L17.6625 12.8189L17.6682 12.8151L18.7523 12.1736C18.7523 12.1736 18.7561 12.1717 18.758 12.1707C18.7599 12.1688 18.7627 12.1679 18.7646 12.167C18.7665 12.166 18.7684 12.1651 18.7703 12.1632C18.7722 12.1622 18.7741 12.1613 18.776 12.1594L18.9561 12.0523C19.9663 11.4316 20.7945 10.5417 21.3404 9.48224C21.3404 9.48224 21.3404 9.48035 21.3413 9.48035C21.5801 9.016 21.7649 8.51848 21.8872 7.99821C21.8872 7.99821 21.8872 7.99727 21.8872 7.99632C21.999 7.51775 22.0587 7.01929 22.0587 6.5066C22.0587 6.06689 22.0151 5.6376 21.9317 5.22158H21.9326Z" fill="var(--fill-0, white)"/>
</g>
</svg>
