<?xml version="1.0" encoding="UTF-8"?>
<!-- Created with Inkscape (http://www.inkscape.org/) -->
<svg width="500" height="127" version="1.1" viewBox="0 0 500 127" xmlns="http://www.w3.org/2000/svg">
 <path d="m0 120.83h53.298l0.2835-1.4758-52.56-10.898 1.0214-5.846 52.56 11.352 0.4541-2.0436-49.665-21.569 2.1568-5.9597 49.779 20.944 1.0215-1.4755-44.102-32.751 4.5406-7.1517 43.819 32.75 1.3053-1.7594-34.51-43.819 8.4574-6.8681 34.226 41.776 1.4759-1.3054-19.923-50.687 12.09-5.1084 18.788 49.665 1.4758-0.45402v-55.057h19.298v101.94h-105.29zm306.73-18.05h20.831v22.421h-17.312c-18.22 0-29.402-6.3004-29.402-29.402v-50.063h-12.374c-2.1571 0-3.2923-2.6111-1.8165-4.2004l35.816-40.64c1.5325-1.646 4.3138-0.56759 4.3138 1.7028v20.717h20.66v22.42h-20.66v57.044zm-74.242-81.11c-12.431 0-21.739 7.1518-26.28 18.39h-0.8517v-16.801h-24.691v101.94h25.94v-79.01h17.312c7.549 0 10.33 1.5893 10.33 9.649v69.361h25.94v-74.413c-0.055-20.49-9.8766-29.118-27.699-29.118zm-96.663 103.53h25.939v-101.94h-25.939zm339.37-83.892h-1.0754v-18.05h-25.772v101.94h27.473v-77.591h24.181v-25.939h-3.3507c-12.715 0-18.334 5.6192-21.456 19.639zm-38.878 30.31v7.7191h-77.762c1.4177 15.155 10.896 25.202 25.54 25.202 13.112 0 22.591-6.9816 24.52-15.609h27.643c-5.7885 21.512-25.54 37.973-52.56 37.973-31.502 0-52.899-22.42-52.899-51.822 0-29.402 20.661-53.411 53.581-53.411 31.104 0 51.938 21.399 51.938 49.949zm-76.97-11.068h50.178c-3.9179-10.217-12.203-17.539-25.032-17.539-11.238 0.0567-21.114 5.9597-25.146 17.539z" fill="#ea7100" stroke-width="3.4579"/>
</svg>
