<svg width="570" height="620" viewBox="0 0 570 620" fill="none" xmlns="http://www.w3.org/2000/svg">
<path d="M494.188 550.318C453.292 573.4 383.129 580 286.078 580C189.028 580 118.864 573.4 77.974 550.318C53.421 536.494 41.001 517.648 41.001 504.134C41.001 496.444 45.094 492.038 54.207 492.038H517.94C527.06 492.038 531.153 496.442 531.153 504.134C531.159 517.648 518.732 536.492 494.192 550.318H494.188ZM517.942 192.196H54.208C45.088 192.196 41.002 187.486 41.002 179.008C41.002 128.74 116.662 40 286.078 40C453.929 40 531.16 128.74 531.16 179.008C531.16 187.486 527.068 192.196 517.942 192.196Z" fill="#FF8732"/>
<path d="M139.78 399.532C138.364 397.336 138.214 395.92 138.214 395.296C138.214 393.568 139.156 392.315 141.04 390.586C145.445 386.494 156.305 376.288 162.28 367.023C166.84 359.956 168.724 353.517 168.724 348.183C168.724 334.517 156.304 323.829 142.767 323.829C134.115 323.829 125.937 328.701 120.435 337.653C113.042 349.587 104.229 363.411 98.572 368.913C97.155 370.33 96.37 370.642 95.272 370.642C93.381 370.642 92.596 369.382 92.596 367.343V351.64C92.596 336.249 83.476 323.835 66.957 323.835C50.283 323.835 41.312 336.243 41.312 351.64V448.396C41.312 463.786 50.276 476.206 66.957 476.206C83.476 476.206 92.596 463.798 92.596 448.396V426.1C92.596 424.21 93.381 422.8 95.272 422.8C97.792 422.8 98.421 425.316 99.052 426.57C102.669 435.21 113.199 453.582 122.961 464.424C129.566 471.649 137.745 476.208 146.398 476.208C161.026 476.208 173.302 463.482 173.302 449.814C173.302 441.335 169.678 435.052 162.76 427.517C153.947 417.917 143.56 405.348 139.78 399.539V399.532ZM335.95 314.872C360.645 314.872 376.221 299.164 376.221 276.232C376.221 261.628 367.401 251.572 349.791 251.572H344.763C335.475 251.572 328.239 255.976 328.239 265.87C328.239 274.666 335.949 278.908 341.769 278.908C344.757 278.908 346.653 279.85 346.653 282.052C346.653 284.872 343.353 286.762 339.572 286.762C327.77 286.762 319.749 278.433 319.749 262.882C319.749 245.608 330.766 239.332 339.256 239.332C349.636 239.332 351.369 244.672 358.606 244.672C366.945 244.672 372.61 237.76 372.61 230.536C372.61 225.196 370.246 221.116 366.629 218.284C360.023 213.412 350.746 209.806 336.904 209.806C312.514 209.806 288.766 225.826 288.766 262.894C288.754 298.378 312.509 314.872 335.95 314.872ZM59.398 313.93H81.586C102.508 313.93 115.246 299.951 115.246 282.514C115.246 268.534 106.906 262.096 105.022 260.524C104.242 259.894 103.456 259.27 103.456 258.64C103.456 257.86 103.924 257.542 104.716 256.6C107.698 253.144 110.687 247.648 110.687 239.632C110.687 220.792 97.943 210.73 78.124 210.73H59.404C46.978 210.73 41.002 217.966 41.002 227.698V296.962C41.002 306.706 46.978 313.93 59.398 313.93ZM68.686 237.754C68.686 235.714 69.947 234.136 72.616 234.136H74.662C81.424 234.136 83.476 238.846 83.476 242.938C83.476 246.706 81.435 252.046 74.662 252.046H72.622C69.946 252.046 68.685 250.48 68.685 248.434L68.686 237.754ZM68.686 274.51C68.686 272.47 69.947 270.892 72.616 270.892H75.449C83.003 270.892 85.199 275.914 85.199 280.474C85.199 284.566 82.997 290.374 75.449 290.374H72.623C69.947 290.374 68.686 288.802 68.686 286.756V274.51ZM470.129 314.71C480.195 314.71 485.698 307.168 485.698 297.748V281.098C485.698 279.057 486.645 278.116 488.219 278.116C490.103 278.116 490.727 279.214 491.038 281.098C492.46 289.108 496.233 299.944 500.476 305.446C505.829 312.52 510.856 314.723 515.896 314.723C524.068 314.723 531.155 308.278 531.155 300.262C531.155 294.922 528.953 290.992 526.12 287.386C520.768 280.636 517.47 276.24 515.43 270.742C514.955 269.482 515.268 268.378 516.69 267.285C521.568 263.517 527.232 255.189 527.232 242.001C527.232 222.051 510.709 210.741 490.728 210.741H472.96C460.533 210.741 454.559 217.959 454.559 227.703V297.759C454.559 307.179 460.061 314.709 470.135 314.709L470.129 314.71ZM483.97 240.43C483.97 238.39 485.23 236.806 487.901 236.806H490.102C496.714 236.806 498.754 241.522 498.754 245.608C498.754 249.538 496.714 254.716 490.102 254.716H487.901C485.224 254.716 483.97 253.156 483.97 251.104V240.424V240.43ZM211.516 323.824C193.9 323.824 184.299 337.012 184.299 353.506V446.5C184.299 463 193.9 476.188 211.516 476.188C229.131 476.188 238.726 462.995 238.726 446.5V353.506C238.726 337.023 229.138 323.824 211.516 323.824ZM491.2 384.298H483.495C469.654 384.298 458.956 390.736 458.956 404.866C458.956 417.748 470.597 423.874 479.247 423.874C483.495 423.874 486.483 425.134 486.483 428.428C486.483 432.508 481.449 435.178 476.103 435.178C458.325 435.178 446.211 423.082 446.211 400.618C446.211 375.646 462.73 366.538 475.467 366.538C491.043 366.538 493.557 374.398 504.41 374.398C516.991 374.398 525.487 364.185 525.487 353.818C525.487 346.126 522.026 340.154 516.523 336.07C506.923 328.996 492.459 323.81 472.003 323.81C435.355 323.81 399.643 346.898 399.643 400.618C399.643 451.977 435.343 476.014 470.587 476.014C507.547 476.014 530.987 453.239 530.987 419.938C530.997 398.902 517.792 384.298 491.2 384.298ZM431.74 313.93C440.56 313.93 447.478 308.746 447.478 299.321C447.478 290.05 440.554 284.867 431.746 284.867H417.587C414.917 284.867 413.656 283.301 413.656 281.255V278.267C413.656 276.227 414.917 274.655 417.593 274.655H428.447C436.002 274.655 441.978 270.101 441.978 262.085C441.978 254.081 436.001 249.521 428.447 249.521H417.589C414.918 249.521 413.658 247.949 413.658 245.903V243.389C413.658 241.349 414.918 239.777 417.595 239.777H431.748C440.557 239.777 447.48 234.593 447.48 225.173C447.48 215.897 440.556 210.713 431.748 210.713H402.019C389.6 210.713 383.617 217.937 383.617 227.681V296.946C383.617 306.683 389.594 313.913 402.019 313.913H431.748V313.932H431.741M161.494 314.71C186.976 314.71 200.506 299.47 200.506 280.318V227.38C200.506 217.96 195.004 210.412 184.931 210.412C174.863 210.412 169.361 217.96 169.361 227.38V278.584C169.361 282.346 167.159 286.744 161.495 286.744C155.831 286.744 153.935 282.346 153.935 278.584V227.38C153.935 217.96 148.277 210.412 138.204 210.412C128.137 210.412 122.634 217.96 122.634 227.38V280.312C122.641 299.477 136.015 314.705 161.496 314.705L161.494 314.71ZM271.924 314.71C280.104 314.71 287.189 308.272 287.189 300.256C287.189 294.916 284.987 290.986 282.155 287.38C277.595 281.41 273.503 276.226 271.463 270.736C270.989 269.476 271.302 268.372 272.724 267.274C277.602 263.512 283.266 255.184 283.266 241.99C283.266 222.04 266.742 210.73 246.762 210.73H228.978C216.558 210.73 210.576 217.954 210.576 227.698V297.754C210.576 307.174 216.085 314.723 226.152 314.723C236.22 314.723 241.728 307.174 241.728 297.754V281.11C241.728 279.07 242.669 278.122 244.242 278.122C246.132 278.122 246.756 279.22 247.068 281.11C248.485 289.114 252.257 299.95 256.506 305.458C261.856 312.514 266.884 314.71 271.924 314.71ZM246.124 254.71H243.916C241.24 254.71 239.986 253.144 239.986 251.098V240.424C239.986 238.384 241.246 236.806 243.916 236.806H246.118C252.73 236.806 254.77 241.522 254.77 245.608C254.77 249.526 252.73 254.71 246.118 254.71H246.124ZM362.368 323.824C346.169 323.824 337.36 335.914 337.36 351.154V385.078C337.36 387.898 336.412 389.164 334.684 389.164C333.424 389.164 332.482 388.384 331.384 386.182L309.52 343.78C301.18 327.598 292.528 323.831 282.622 323.831C266.104 323.831 256.978 336.233 256.978 351.791V448.865C256.978 464.104 265.786 476.196 281.986 476.196C298.192 476.196 306.994 464.099 306.994 448.865V414.94C306.994 412.121 307.942 410.848 309.671 410.848C310.931 410.848 311.879 411.634 312.971 413.836L334.834 456.244C343.174 472.426 352.139 476.194 361.738 476.194C378.257 476.194 387.383 463.785 387.383 448.234V351.16C387.383 335.92 378.573 323.83 362.368 323.83V323.824Z" fill="#D62300"/>
</svg>
