<?xml version="1.0" encoding="UTF-8" standalone="no"?>
<svg
   xmlns:dc="http://purl.org/dc/elements/1.1/"
   xmlns:cc="http://creativecommons.org/ns#"
   xmlns:rdf="http://www.w3.org/1999/02/22-rdf-syntax-ns#"
   xmlns:svg="http://www.w3.org/2000/svg"
   xmlns="http://www.w3.org/2000/svg"
   xmlns:sodipodi="http://sodipodi.sourceforge.net/DTD/sodipodi-0.dtd"
   xmlns:inkscape="http://www.inkscape.org/namespaces/inkscape"
   width="700"
   height="700"
   version="1.1"
   id="svg4"
   sodipodi:docname="sams-club-logo.svg"
   style="fill:none"
   inkscape:export-filename="C:\Users\suitedoalex\sites\sams-club-logo-0.png"
   inkscape:export-xdpi="561.73712"
   inkscape:export-ydpi="561.73712"
   inkscape:version="0.92.0 r15299">
  <metadata
     id="metadata10">
    <rdf:RDF>
      <cc:Work
         rdf:about="">
        <dc:format>image/svg+xml</dc:format>
        <dc:type
           rdf:resource="http://purl.org/dc/dcmitype/StillImage" />
        <dc:title></dc:title>
      </cc:Work>
    </rdf:RDF>
  </metadata>
  <defs
     id="defs8" />
  <sodipodi:namedview
     pagecolor="#ffffff"
     bordercolor="#666666"
     borderopacity="1"
     objecttolerance="10"
     gridtolerance="10"
     guidetolerance="10"
     inkscape:pageopacity="0"
     inkscape:pageshadow="2"
     inkscape:window-width="1920"
     inkscape:window-height="1017"
     id="namedview6"
     showgrid="false"
     inkscape:zoom="0.33868432"
     inkscape:cx="-8.3385559"
     inkscape:cy="-134.91482"
     inkscape:window-x="-8"
     inkscape:window-y="-8"
     inkscape:window-maximized="1"
     inkscape:current-layer="svg4" />
  <path
     d="m 653.55109,731.20785 53.814,54.38652 c 2.45368,2.47985 2.45368,6.50061 0.003,8.98045 l -53.80091,54.40616 -9.29125,-9.3894 a 6.5006028,6.5006028 0 0 1 0,-9.12767 l 39.9262,-40.3744 -39.58595,-40.00799 a 7.0076956,7.0076956 0 0 1 0,-9.8376 z m -17.3164,8.99681 -8.89539,-8.99681 -53.52937,54.13134 a 6.7885006,6.7885006 0 0 0 0,9.52353 l 53.54573,54.11826 8.88558,-8.987 c 2.7154,-2.74811 2.7154,-7.19744 0,-9.93902 l -39.53689,-39.95237 39.53361,-39.97854 a 7.0698554,7.0698554 0 0 0 -0.003,-9.92266 z m -100.47962,56.33637 c 0,12.03283 -7.72744,21.12451 -18.99799,21.12451 -11.14623,0 -18.87367,-9.09496 -18.87367,-20.87259 0,-11.90851 7.72744,-21.2521 18.87367,-21.2521 11.27055,0 18.99799,9.08841 18.99799,20.99691 z m -38.12357,18.94565 c 4.30866,9.34686 12.53992,14.21168 22.29246,14.21168 16.3382,0 29.38194,-12.67405 29.38194,-33.03301 0,-20.48655 -13.04374,-33.16059 -29.38194,-33.16059 -9.75254,0 -17.9838,4.86481 -22.29246,14.21168 V 738.9222 l -12.66423,2.56164 v 87.19052 h 12.66423 v -13.18441 z m -107.50695,-7.80923 c 0,15.49414 7.22035,22.40696 20.26736,21.89332 1.1385,0 2.4046,-0.12759 3.54638,-0.38277 v -12.54646 h -3.29447 c -4.55729,0 -7.85176,-2.81682 -7.85176,-8.96409 V 738.9222 l -12.66751,2.56164 z M 240.65976,746.09021 h 13.67515 l -7.97608,25.22377 h -10.51154 z m -60.29497,82.45329 h 12.66096 v -34.43978 c 0,-10.49846 6.46135,-18.69046 15.7068,-18.69046 8.48644,0 12.6675,6.144 12.6675,14.20841 v 38.9251 h 12.66096 v -38.79424 c 0,-16.25968 -9.74926,-26.37537 -23.04818,-26.37537 -8.48645,0 -15.5792,3.71323 -20.89877,12.16369 -3.79829,-7.68491 -10.76345,-12.16369 -19.2499,-12.16369 -8.10694,0 -15.07211,4.48205 -18.87039,12.54646 v -11.39486 h -12.66751 v 64.01474 h 12.66751 v -34.43978 c 0,-10.49846 6.45807,-18.69046 15.70352,-18.69046 8.48644,0 12.66423,6.144 12.66423,14.20841 v 38.9251 z m -168.554382,-5.75796 5.699069,-11.65332 c 4.181062,3.07527 11.65332,6.53005 17.352389,6.53005 7.092756,0 9.880131,-3.45478 9.880131,-7.17128 0.12432,-4.35118 -3.422059,-6.01641 -10.894317,-8.44718 -12.536643,-3.84082 -19.629399,-8.32287 -19.629399,-20.10378 0,-10.75364 8.10367,-18.43527 22.796276,-18.43527 7.599849,0 14.565014,2.43077 20.139764,6.40245 l -5.702341,10.62605 c -3.291196,-2.048 -8.865945,-5.12327 -15.072107,-5.12327 -5.443887,0 -8.735083,2.17886 -8.735083,6.40245 0,3.45805 2.404602,5.76123 10.383953,8.19528 13.550828,4.096 20.264083,9.21927 20.264083,19.97291 0,12.16368 -9.75254,19.59014 -23.30664,19.59014 -9.245448,0 -18.108122,-3.07527 -23.175778,-6.78523 z m 83.843708,-47.24142 c -11.270547,0 -18.997987,9.08841 -18.997987,21.12451 0,11.9085 7.72744,20.99691 18.997987,20.99691 11.146224,0 18.873674,-9.34687 18.873674,-21.2521 0,-11.78091 -7.72745,-20.87259 -18.873674,-20.87259 z m 19.119034,39.94583 c -4.30538,9.34686 -12.53664,14.21168 -22.289182,14.21168 -16.338203,0 -29.385211,-12.67732 -29.385211,-33.1606 0,-20.35895 13.047008,-33.03627 29.385211,-33.03627 9.749272,0 17.983802,4.86809 22.289182,14.21495 v -13.18768 h 12.66751 v 64.01801 h -12.66751 z m 140.71008,-4.35773 -5.69907,11.65332 c 5.06766,3.71323 13.9336,6.78523 23.17905,6.78523 13.55083,0 23.30337,-7.42646 23.30337,-19.59014 0,-10.75364 -6.71325,-15.87691 -20.26408,-19.97291 -7.97935,-2.43405 -10.38723,-4.73723 -10.38723,-8.19528 0,-4.22359 3.29447,-6.40245 8.74163,-6.40245 6.20616,0 11.77764,3.07527 15.07211,5.12327 l 5.69907,-10.62605 a 34.64589,34.64589 0 0 0 -20.13977,-6.40245 c -14.68933,0 -22.79627,7.68163 -22.79627,18.43527 0,11.77764 7.09275,16.25969 19.62939,20.10378 7.47226,2.43077 11.01864,4.096 10.89432,8.44718 0,3.7165 -2.78737,7.17128 -9.88013,7.17128 -5.69907,0 -13.17133,-3.45478 -17.35239,-6.53005 z m 71.94502,-14.59119 c 0,-20.35895 13.9336,-33.03627 33.31109,-33.03627 9.11786,0 17.2248,2.94441 23.43096,9.21927 l -7.72744,9.60205 c -4.81247,-4.86482 -10.51154,-6.78523 -15.5792,-6.78523 -11.65005,0 -19.88458,7.04041 -19.88458,20.87259 0,13.82564 8.23453,21.12124 19.88458,21.12124 5.06766,0 10.76673,-2.048 15.70679,-7.16801 l 7.72417,9.47446 c -6.20616,6.27159 -14.18551,9.72964 -23.55528,9.72964 -19.25317,0 -33.31109,-12.67405 -33.31109,-33.03301 z m 91.85578,5.63037 v -37.64264 h 12.66423 v 38.66991 c 0,8.44719 5.31957,14.20842 14.18551,14.20842 8.86595,0 14.18552,-5.75796 14.18552,-14.21169 v -38.66664 h 12.66423 v 37.64591 c 0,17.54214 -10.76673,27.39937 -26.84975,27.39937 -16.08629,0 -26.84974,-9.85723 -26.84974,-27.39937 z"
     id="path2"
     style="clip-rule:evenodd;fill:#1066a5;fill-opacity:1;fill-rule:evenodd;stroke-width:3.27156663"
     inkscape:connector-curvature="0"
     inkscape:export-filename="C:\Users\suitedoalex\sites\sams-club-logo-4.png"
     inkscape:export-xdpi="96.358543"
     inkscape:export-ydpi="96.358543" />
  <path
     inkscape:connector-curvature="0"
     d="m 378.76485,153.22273 117.92193,119.17654 c 5.37672,5.43402 5.37672,14.24459 0.007,19.67874 l -117.893,119.21945 -20.35981,-20.57489 c -5.46775,-5.54606 -5.46775,-14.45523 0,-20.0013 l 87.4893,-88.47191 -86.74419,-87.66904 c -5.8913,-5.97814 -5.8913,-15.57882 0,-21.557 z M 340.81964,172.93735 321.3273,153.22273 204.02908,271.84008 c -5.69788,5.78946 -5.69788,15.07927 0,20.86876 l 117.33405,118.58862 19.47084,-19.69308 c 5.95023,-6.02193 5.95023,-15.77169 0,-21.77928 l -86.63666,-87.54707 86.62948,-87.60447 c 5.93838,-6.03259 5.93514,-15.7148 -0.007,-21.74338 z"
     id="path2-1"
     style="clip-rule:evenodd;fill:#1066a5;fill-opacity:1;fill-rule:evenodd;stroke-width:7.16894197"
     sodipodi:nodetypes="ccccccccccccccccccccc"
     inkscape:export-filename="C:\Users\suitedoalex\sites\sams-club-logo-5.png"
     inkscape:export-xdpi="113.93197"
     inkscape:export-ydpi="113.93197" />
  <path
     inkscape:connector-curvature="0"
     d="m 630.04267,510.38815 c 0,13.20433 -8.47978,23.1812 -20.84757,23.1812 -12.23148,0 -20.71127,-9.98045 -20.71127,-22.90475 0,-13.06789 8.47979,-23.32121 20.71127,-23.32121 12.36779,0 20.84757,9.9733 20.84757,23.04116 z m -41.83523,20.79021 c 4.72812,10.25685 13.76077,15.59532 24.46285,15.59532 17.92885,0 32.24253,-13.908 32.24253,-36.24905 0,-22.48114 -14.31368,-36.38917 -32.24253,-36.38917 -10.70208,0 -19.73473,5.3385 -24.46285,15.59535 v -42.57119 l -13.89724,2.81102 v 95.67935 h 13.89724 v -14.46804 z m -117.97379,-8.56953 c 0,17.0026 7.92336,24.58848 22.24059,24.0248 1.24937,0 2.63872,-0.14007 3.89165,-0.42002 v -13.76798 h -3.61519 c -5.00102,0 -8.61621,-3.09101 -8.61621,-9.83679 v -75.44922 l -13.90084,2.81102 z M 306.21713,455.02546 h 15.00648 l -8.75258,27.67954 h -11.53494 z m -66.1653,90.48088 h 13.89362 v -37.79276 c 0,-11.52059 7.09048,-20.51019 17.23603,-20.51019 9.3127,0 13.90081,6.74216 13.90081,15.59177 v 42.71475 h 13.89364 v -42.57118 c 0,-17.84274 -10.6985,-28.94325 -25.29214,-28.94325 -9.31273,0 -17.09602,4.07473 -22.93349,13.34791 -4.16808,-8.43304 -11.81142,-13.34791 -21.12406,-13.34791 -8.89619,0 -16.53951,4.91843 -20.70763,13.76796 V 475.2592 h -13.90076 v 70.24714 h 13.90076 v -37.79276 c 0,-11.52059 7.08689,-20.51019 17.23243,-20.51019 9.31271,0 13.89724,6.74216 13.89724,15.59177 v 42.71475 z m -184.964655,-6.31857 6.2539,-12.78786 c 4.58812,3.37472 12.7879,7.16586 19.04175,7.16586 7.78331,0 10.84213,-3.79115 10.84213,-7.86947 0.1365,-4.77486 -3.75526,-6.60216 -11.955,-9.26959 -13.75722,-4.21478 -21.54051,-9.13326 -21.54051,-22.06109 0,-11.80061 8.89263,-20.23017 25.01573,-20.23017 8.33973,0 15.98301,2.66745 22.100545,7.02583 l -6.257485,11.66058 c -3.61167,-2.24732 -9.72914,-5.62203 -16.53953,-5.62203 -5.97388,0 -9.58556,2.39099 -9.58556,7.02577 0,3.79475 2.6387,6.32214 11.39497,8.99315 14.87007,4.49483 22.236935,10.11687 22.236935,21.91746 0,13.34793 -10.702035,21.49741 -25.575745,21.49741 -10.14559,0 -19.87109,-3.37463 -25.43213,-7.44585 z m 92.006645,-51.84078 c -12.36785,0 -20.84763,9.97328 -20.84763,23.18124 0,13.06785 8.47978,23.04115 20.84763,23.04115 12.23146,0 20.71119,-10.25693 20.71119,-23.32121 0,-12.92789 -8.47973,-22.90476 -20.71119,-22.90476 z m 20.98044,43.83496 c -4.72456,10.25689 -13.75718,15.59532 -24.45926,15.59532 -17.92886,0 -32.24609,-13.91158 -32.24609,-36.3891 0,-22.34109 14.31723,-36.2527 32.24609,-36.2527 10.69843,0 19.7347,5.34207 24.45926,15.59894 v -14.47165 h 13.90081 v 70.25077 h -13.90081 z m 154.40952,-4.78202 -6.25396,12.78785 c 5.56108,4.07481 15.29018,7.44585 25.43578,7.44585 14.87008,0 25.57216,-8.14949 25.57216,-21.49742 0,-11.80058 -7.36684,-17.42263 -22.23696,-21.91746 -8.75626,-2.67101 -11.39855,-5.1984 -11.39855,-8.99315 0,-4.63478 3.61521,-7.02577 9.59272,-7.02577 6.81038,0 12.92426,3.37472 16.53953,5.62203 l 6.25391,-11.66057 c -6.45539,-4.58641 -14.18178,-7.04264 -22.10055,-7.02583 -16.11947,0 -25.01573,8.42956 -25.01573,20.23017 0,12.92429 7.7833,17.84268 21.54053,22.06109 8.19975,2.66743 12.09139,4.49473 11.95495,9.26959 0,4.07832 -3.05874,7.86947 -10.84202,7.86947 -6.25396,0 -14.45371,-3.79115 -19.04181,-7.16585 z m 78.94954,-16.01176 c 0,-22.34109 15.29015,-36.2527 36.55425,-36.2527 10.00552,0 18.90179,3.23115 25.71215,10.11687 l -8.4798,10.53688 c -5.28098,-5.3384 -11.5349,-7.44582 -17.09593,-7.44582 -12.7843,0 -21.82057,7.7259 -21.82057,22.90476 0,15.1717 9.03627,23.17754 21.82057,23.17754 5.56103,0 11.81495,-2.24733 17.23595,-7.86582 l 8.47618,10.39688 c -6.81033,6.8822 -15.56658,10.67688 -25.84855,10.67688 -21.12764,0 -36.55425,-13.90792 -36.55425,-36.24907 z m 100.79877,6.1785 v -41.30745 h 13.89724 V 517.694 c 0,9.26963 5.83744,15.59176 15.56658,15.59176 9.72916,0 15.56661,-6.31856 15.56661,-15.59534 v -42.4312 h 13.89719 v 41.31109 c 0,19.25004 -11.81494,30.0669 -29.4638,30.0669 -17.65245,0 -29.46382,-10.81686 -29.46382,-30.06691 z"
     id="path2-1-6"
     style="clip-rule:evenodd;fill:#1066a5;fill-opacity:1;fill-rule:evenodd;stroke-width:3.59008408"
     sodipodi:nodetypes="sssssscssscccccccscccssccscccccccsssccsscscccccsssccccsccssccsscssccssscccsssccccccccsscsscccsccsccsccsssccscccccsssccsssc"
     inkscape:export-filename="C:\Users\suitedoalex\sites\sams-club-logo-5.png"
     inkscape:export-xdpi="113.93197"
     inkscape:export-ydpi="113.93197" />
</svg>
