<?xml version="1.0" encoding="UTF-8"?>
<!DOCTYPE svg PUBLIC "-//W3C//DTD SVG 1.1//EN" "http://www.w3.org/Graphics/SVG/1.1/DTD/svg11.dtd">
<!-- Creator: CorelDRAW 2020 (64 Bit) -->
<svg xmlns="http://www.w3.org/2000/svg" xml:space="preserve" width="1748px" height="1240px" version="1.1" style="shape-rendering:geometricPrecision; text-rendering:geometricPrecision; image-rendering:optimizeQuality; fill-rule:evenodd; clip-rule:evenodd"
viewBox="0 0 174800 124014"
 xmlns:xlink="http://www.w3.org/1999/xlink"
 xmlns:xodm="http://www.corel.com/coreldraw/odm/2003">
 <defs>
  <style type="text/css">
   <![CDATA[
    .fil0 {fill:none}
    .fil2 {fill:#00C5FF;fill-rule:nonzero}
    .fil1 {fill:#414141;fill-rule:nonzero}
   ]]>
  </style>
 </defs>
 <g id="Camada_x0020_1">
  <metadata id="CorelCorpID_0Corel-Layer"/>
  <rect class="fil0" x="8760" y="23123" width="157084" height="77951"/>
  <g id="_905832898688">
   <g>
    <path id="Fill-1" class="fil1" d="M85763 81627l-5787 0 0 -8020 5787 0c2735,42 4600,1586 4600,4002 0,2416 -1865,4018 -4600,4018l0 0zm787 -13943l-13412 0 0 28358 6838 0 0 -8117 6533 0c7211,0 10732,-5124 10732,-10316 0,-5192 -3480,-9925 -10691,-9925zm64688 17307l-12997 -17307 -6971 0 0 28358 6971 0 0 -17348 12997 17348 6972 0 0 -28358 -6972 0 0 17307zm-74904 -25918l0 -2752 2767 0c1267,0 1930,333 1930,1376 0,917 -643,1376 -1930,1376l-2767 0zm0 -8319l2553 0c1228,0 1812,458 1812,1417 0,1105 -428,1543 -1812,1543l-2553 0 0 -2960zm8146 7131c0,-1522 -701,-2753 -1987,-3441 292,-229 1247,-1251 1247,-2710 0,-2273 -1208,-3900 -5048,-3900l-5554 0 0 14179 6334 0c3625,0 5008,-1814 5008,-4128l0 0zm27575 -4546l7237 8674 3471 0 0 -14179 -3471 0 0 8653 -7237 -8653 -3471 0 0 14179 3471 0 0 -8674zm29140 5863l-2819 -1935c-675,818 -1698,1339 -2841,1339 -2037,0 -3688,-1649 -3688,-3683 0,-2033 1651,-3681 3688,-3681 1139,0 2162,518 2835,1332l2819 -1937c-1297,-1705 -3347,-2803 -5654,-2803 -3924,0 -7101,3175 -7101,7089 0,3915 3177,7090 7101,7090 2311,0 4363,-1102 5660,-2811zm11343 -7962c2033,0 3681,1651 3681,3684 0,2032 -1648,3681 -3681,3681 -2033,0 -3682,-1649 -3682,-3681 0,-2033 1649,-3684 3682,-3684l0 0zm0 10773c3915,0 7089,-3174 7089,-7089 0,-3916 -3174,-7090 -7089,-7090 -3915,0 -7090,3174 -7090,7090 0,3915 3175,7089 7090,7089zm-55952 -10301l1918 4707c-639,97 -1289,150 -1938,150 -648,0 -1291,-52 -1925,-148l1945 -4709zm-3165 7660c1030,212 2082,321 3145,321 946,0 1895,-86 2820,-257 106,-19 213,-44 320,-66l1077 2643 3547 0 -5919 -14179 -3710 0 -5967 14179 3595 0 1092 -2641zm17999 25901c-1319,0 -2626,-103 -3916,-299l3957 -9533 3899 9528c-1298,198 -2620,304 -3940,304l0 0zm-3747 -17589l-11850 28358 7086 0 2193 -5283c2070,425 4183,643 6318,643 1900,0 3806,-173 5663,-513 215,-39 429,-90 644,-134l2163 5287 7126 0 -11890 -28358 -7453 0z"/>
   </g>
   <g id="_905832895760">
    <g>
     <path id="Fill-17" class="fil1" d="M35564 73421c-4651,0 -8431,-3706 -8431,-8266 0,-4559 3780,-8266 8431,-8266 4651,0 8431,3707 8431,8266 0,4560 -3780,8266 -8431,8266l0 0zm0 -28422c-11337,0 -20559,9041 -20559,20156l0 30887 12128 0 0 -12473 954 367c2387,913 4899,1376 7477,1376 11337,0 20559,-9042 20559,-20157 0,-11115 -9222,-20156 -20559,-20156z"/>
    </g>
    <polygon id="Fill-19" class="fil2" points="15005,39327 26348,39327 26348,27984 15005,27984 "/>
   </g>
  </g>
 </g>
</svg>
