<svg preserveAspectRatio="none" width="100%" height="100%" overflow="visible" style="display: block;" viewBox="0 0 124 22" fill="none" xmlns="http://www.w3.org/2000/svg">
<g id="image">
<path id="Vector" d="M11.182 22C17.358 22 22.364 17.075 22.364 11V3.3C22.364 1.477 20.862 0 19.009 0H11.741V4.826C11.741 5.927 11.809 7.067 12.396 8.005C13.247 9.364 14.655 10.292 16.256 10.55L16.47 10.584C16.651 10.645 16.773 10.812 16.773 11C16.773 11.188 16.651 11.355 16.47 11.416L16.256 11.45C13.885 11.831 12.027 13.66 11.64 15.992L11.605 16.202C11.543 16.38 11.373 16.5 11.182 16.5C10.991 16.5 10.82 16.38 10.759 16.202L10.724 15.992C10.462 14.417 9.518 13.031 8.137 12.195C7.184 11.617 6.025 11.55 4.905 11.55H0.013C0.306 17.37 5.194 22 11.182 22V22" fill="var(--fill-0, #151515)"/>
<path id="Vector_2" d="M0 10.45H4.905C6.025 10.45 7.184 10.383 8.137 9.805C8.882 9.354 9.509 8.737 9.967 8.005C10.555 7.067 10.623 5.927 10.623 4.826V0H3.355C1.502 0 0 1.477 0 3.3V10.45M25.973 1.1C25.973 1.708 25.472 2.2 24.854 2.2C24.237 2.2 23.736 1.708 23.736 1.1C23.736 0.492 24.237 0 24.854 0C25.472 0 25.973 0.492 25.973 1.1V1.1M118.366 6.657C121.492 6.657 123 8.805 123 11.293V15.965H119.729V11.847C119.729 10.72 119.311 9.789 118.111 9.789C116.912 9.789 116.512 10.72 116.512 11.847V15.964H113.241V11.847C113.241 10.72 112.841 9.789 111.642 9.789C110.442 9.789 110.024 10.72 110.024 11.847V15.964H106.753V11.292C106.753 8.804 108.261 6.657 111.387 6.657C113.096 6.657 114.331 7.319 114.895 8.411C115.494 7.319 116.803 6.656 118.366 6.656V6.657M100.875 13.101C101.929 13.101 102.384 12.152 102.384 11.024V7.015H105.654V11.418C105.654 14.049 104.092 16.233 100.875 16.233C97.658 16.233 96.095 14.05 96.095 11.418V7.015H99.367V11.024C99.367 12.152 99.821 13.101 100.875 13.101V13.101M91.286 16.251C89.232 16.251 87.905 15.553 87.124 14.193L89.486 12.886C89.813 13.459 90.304 13.745 91.122 13.745C91.794 13.745 92.103 13.512 92.103 13.226C92.103 12.134 87.305 13.244 87.305 9.772C87.305 8.089 88.759 6.729 91.231 6.729C93.393 6.729 94.575 7.767 95.102 8.769L92.739 10.094C92.54 9.557 91.921 9.235 91.303 9.235C90.831 9.235 90.577 9.431 90.577 9.7C90.577 10.81 95.374 9.789 95.374 13.154C95.374 15.034 93.502 16.251 91.286 16.251V16.251M79.857 20.082H76.585V11.472C76.585 8.733 78.675 6.746 81.583 6.746C84.418 6.746 86.581 8.876 86.581 11.472C86.581 14.336 84.654 16.233 81.765 16.233C81.092 16.233 80.42 16.036 79.857 15.732V20.082M81.583 13.208C82.619 13.208 83.31 12.421 83.31 11.49C83.31 10.541 82.619 9.771 81.583 9.771C80.547 9.771 79.857 10.541 79.857 11.49C79.857 12.421 80.547 13.208 81.583 13.208V13.208M73.309 6.066C72.236 6.066 71.346 5.189 71.346 4.133C71.346 3.077 72.236 2.2 73.309 2.2C74.381 2.2 75.272 3.077 75.272 4.133C75.272 5.189 74.381 6.066 73.309 6.066V6.066M71.673 7.015H74.944V15.965H71.673V7.015M65.397 16.233C62.562 16.233 60.399 14.086 60.399 11.472C60.399 8.876 62.562 6.729 65.397 6.729C68.232 6.729 70.395 8.876 70.395 11.472C70.395 14.086 68.232 16.233 65.397 16.233V16.233M65.397 13.208C66.433 13.208 67.123 12.421 67.123 11.489C67.123 10.541 66.433 9.754 65.397 9.754C64.361 9.754 63.67 10.541 63.67 11.489C63.67 12.421 64.361 13.208 65.397 13.208V13.208M54.222 20.35C51.969 20.35 50.333 19.366 49.497 17.611L52.205 16.179C52.496 16.788 53.041 17.415 54.168 17.415C55.349 17.415 56.13 16.68 56.222 15.392C55.786 15.768 55.094 16.054 54.059 16.054C51.533 16.054 49.497 14.139 49.497 11.454C49.497 8.859 51.66 6.746 54.495 6.746C57.403 6.746 59.493 8.733 59.493 11.472V15.016C59.493 18.238 57.221 20.35 54.222 20.35V20.35M54.44 13.03C55.422 13.03 56.167 12.367 56.167 11.382C56.167 10.416 55.422 9.771 54.44 9.771C53.477 9.771 52.714 10.416 52.714 11.383C52.714 12.367 53.477 13.029 54.44 13.029V13.03M43.948 16.233C41.113 16.233 38.95 14.086 38.95 11.472C38.95 8.876 41.113 6.729 43.948 6.729C46.783 6.729 48.946 8.876 48.946 11.472C48.946 14.086 46.783 16.233 43.948 16.233V16.233M43.948 13.208C44.984 13.208 45.675 12.421 45.675 11.489C45.675 10.541 44.984 9.754 43.948 9.754C42.912 9.754 42.222 10.541 42.222 11.489C42.222 12.421 42.912 13.208 43.948 13.208V13.208M32.994 3.883V12.922H38.41V15.965H32.539C30.468 15.965 29.632 14.891 29.632 13.19V3.883H32.994" fill="var(--fill-0, #151515)"/>
</g>
</svg>
