<svg preserveAspectRatio="none" width="100%" height="100%" overflow="visible" style="display: block;" viewBox="0 0 129 23" fill="none" xmlns="http://www.w3.org/2000/svg">
<g id="image" clip-path="url(#clip0_0_25)">
<path id="Vector" d="M49.391 7.175C49.391 11.365 49.391 13.02 43.873 13.02C49.391 13.02 49.391 14.674 49.391 18.865C49.391 14.699 49.391 13.02 54.823 13.02C49.391 13.02 49.391 11.34 49.391 7.175V7.175" fill="var(--fill-0, #151515)"/>
<path id="Vector_2" d="M22.184 22.368C20.275 22.368 18.598 21.984 17.15 21.215C15.719 20.43 14.598 19.34 13.787 17.946C13.656 17.715 13.536 17.477 13.427 17.233L12.786 22.032H0.071V21.792H0.095C0.668 21.792 1.129 21.639 1.479 21.335C1.829 21.031 2.004 20.59 2.004 20.013V6.17C2.004 5.593 1.829 5.129 1.479 4.776C1.129 4.424 0.668 4.248 0.095 4.248H0.071V4.007H7.681V4.248H7.586C7.013 4.248 6.552 4.424 6.202 4.776C5.852 5.129 5.677 5.593 5.677 6.17V20.109C5.677 20.622 5.797 21.023 6.035 21.311C6.29 21.583 6.727 21.72 7.347 21.72H7.848C9.263 21.72 10.456 21.279 11.426 20.398C12.373 19.538 12.978 18.336 13.244 16.791C12.81 15.66 12.594 14.403 12.594 13.02C12.594 11.145 12.992 9.511 13.787 8.117C14.598 6.707 15.719 5.617 17.15 4.848C18.598 4.063 20.275 3.671 22.184 3.671C24.046 3.671 25.681 4.045 27.089 4.792C28.591 4.045 30.336 3.671 32.322 3.671C32.942 3.671 33.451 3.695 33.849 3.743C34.262 3.775 34.628 3.815 34.946 3.863C35.264 3.911 35.614 3.959 35.996 4.007C36.393 4.039 36.887 4.055 37.475 4.055L38.191 8.862H37.952C37.666 7.34 37.022 6.146 36.02 5.281C35.034 4.416 33.801 3.983 32.322 3.983C31.416 3.983 30.589 4.199 29.841 4.632C29.349 4.917 28.905 5.275 28.509 5.706C28.325 5.907 28.151 6.123 27.988 6.355C27.969 6.381 27.951 6.408 27.933 6.434C27.78 6.664 27.636 6.907 27.501 7.164C27.324 7.502 27.164 7.864 27.02 8.25C26.96 8.409 26.904 8.572 26.85 8.74C26.794 8.912 26.742 9.089 26.692 9.27C26.406 10.376 26.263 11.602 26.263 12.947C26.263 14.188 26.375 15.329 26.6 16.37L26.22 17.504C26.022 18.098 25.784 18.617 25.512 19.067C25.344 19.334 25.166 19.574 24.979 19.788L24.961 19.808C24.371 19.267 23.866 18.646 23.448 17.946C22.605 16.536 22.184 14.878 22.184 12.971C22.184 11.113 22.605 9.487 23.448 8.093C24.024 7.141 24.755 6.335 25.642 5.675C25.283 5.255 24.886 4.908 24.45 4.632C23.766 4.199 23.011 3.983 22.184 3.983C21.357 3.983 20.601 4.199 19.917 4.632C19.234 5.065 18.653 5.673 18.176 6.459C17.683 7.244 17.301 8.197 17.031 9.318C16.777 10.424 16.649 11.65 16.649 12.996C16.649 14.341 16.777 15.567 17.031 16.673C17.301 17.778 17.683 18.723 18.176 19.508C18.653 20.294 19.234 20.902 19.917 21.335C20.601 21.768 21.357 21.984 22.184 21.984C23.011 21.984 23.766 21.768 24.45 21.335C25.134 20.902 25.722 20.294 26.215 19.508C26.692 18.723 27.058 17.778 27.313 16.673C27.583 15.567 27.718 14.341 27.718 12.996C27.718 11.779 27.608 10.66 27.387 9.64L27.796 8.543C28.029 7.919 28.304 7.375 28.618 6.904C28.702 6.781 28.789 6.664 28.878 6.552C28.956 6.455 29.036 6.362 29.118 6.273L29.135 6.258C29.689 6.799 30.163 7.418 30.557 8.117C31.368 9.511 31.774 11.145 31.774 13.02C31.774 14.894 31.368 16.536 30.557 17.946C30.018 18.891 29.329 19.697 28.49 20.362C28.842 20.75 29.229 21.074 29.65 21.335C30.366 21.768 31.161 21.984 32.036 21.984C32.688 21.984 33.308 21.872 33.897 21.647C34.501 21.423 34.962 21.143 35.28 20.806V14.678C35.28 14.101 35.105 13.636 34.755 13.284C34.406 12.931 33.944 12.755 33.372 12.755H33.3V12.515H39.811C39.877 10.85 40.271 9.384 40.994 8.117C41.805 6.707 42.926 5.617 44.357 4.848C45.805 4.063 47.483 3.671 49.391 3.671C51.299 3.671 52.969 4.063 54.401 4.848C55.848 5.617 56.969 6.707 57.764 8.117C58.287 9.015 58.641 10.013 58.827 11.11V6.17C58.827 5.593 58.652 5.129 58.302 4.776C57.952 4.424 57.491 4.248 56.918 4.248H56.895V4.007H71.248C72.472 4.023 73.538 4.239 74.444 4.656C75.367 5.057 76.082 5.617 76.591 6.338C76.783 6.602 76.939 6.882 77.061 7.179C77.256 6.251 77.731 5.49 78.485 4.896C79.519 4.079 80.879 3.671 82.564 3.671C82.978 3.671 83.312 3.687 83.567 3.719C83.674 3.732 83.779 3.746 83.882 3.761C84.037 3.784 84.186 3.81 84.33 3.839C84.584 3.887 84.878 3.927 85.213 3.959C85.547 3.991 85.976 4.007 86.5 4.007H94.036V4.248H93.965C93.392 4.248 92.931 4.424 92.582 4.776C92.232 5.129 92.056 5.593 92.056 6.17V15.711C92.056 17.41 92.486 18.756 93.345 19.749C94.219 20.726 95.396 21.215 96.875 21.215C98.37 21.215 99.547 20.718 100.406 19.725C101.265 18.715 101.694 17.378 101.694 15.711V6.531C101.694 5.842 101.487 5.297 101.074 4.896C100.66 4.496 100.112 4.28 99.428 4.248V4.007H107.301L113.122 17.586L118.942 4.007H123.403V4.248C122.894 4.248 122.465 4.4 122.115 4.704C121.765 5.009 121.606 5.425 121.638 5.954L122.854 20.181C122.934 20.726 123.188 21.135 123.618 21.407C124.063 21.679 124.5 21.816 124.929 21.816V22.032H117.534V21.816C117.805 21.816 118.083 21.752 118.37 21.623C118.656 21.495 118.887 21.311 119.061 21.071C119.252 20.83 119.324 20.55 119.276 20.23L118.107 6.963L111.476 22.368L104.796 6.939L103.675 19.581C103.611 20.221 103.794 20.742 104.223 21.143C104.653 21.543 105.178 21.76 105.798 21.792V22.032H101.027V21.792C101.631 21.76 102.14 21.535 102.553 21.119C102.967 20.702 103.205 20.181 103.269 19.557L104.462 6.266C104.16 5.641 103.778 5.153 103.317 4.8C103.238 4.735 103.156 4.676 103.068 4.622C102.943 4.701 102.827 4.793 102.72 4.896C102.306 5.297 102.1 5.842 102.1 6.531V15.711C102.1 17.057 101.821 18.227 101.265 19.22C100.724 20.214 99.937 20.99 98.903 21.551C97.885 22.096 96.668 22.368 95.253 22.368C93.854 22.368 92.637 22.096 91.603 21.551C90.57 21.006 89.766 20.237 89.194 19.244C88.637 18.235 88.359 17.057 88.359 15.711V6.17C88.359 5.593 88.184 5.129 87.834 4.776C87.497 4.437 87.056 4.261 86.512 4.248L86.739 8.862H86.5C86.278 7.372 85.801 6.194 85.07 5.329C84.337 4.464 83.455 4.031 82.421 4.031C81.69 4.031 81.101 4.248 80.656 4.68C80.227 5.113 80.012 5.69 80.012 6.41C80.012 7.035 80.211 7.636 80.608 8.213C81.022 8.774 81.73 9.431 82.731 10.184L83.757 10.953C84.807 11.722 85.634 12.435 86.238 13.092C86.859 13.733 87.303 14.357 87.574 14.966C87.845 15.575 87.98 16.224 87.98 16.913C87.98 17.97 87.717 18.908 87.192 19.725C86.667 20.542 85.936 21.183 84.997 21.647C84.075 22.096 82.986 22.336 81.73 22.368C81.316 22.368 80.974 22.352 80.704 22.32C80.449 22.288 80.195 22.248 79.941 22.2C79.686 22.152 79.376 22.112 79.01 22.08C78.645 22.048 78.143 22.032 77.507 22.032L76.672 15.783H76.959C77.197 17.754 77.738 19.276 78.581 20.35C79.439 21.407 80.537 21.936 81.873 21.936C82.859 21.936 83.662 21.655 84.282 21.095C84.902 20.534 85.213 19.805 85.213 18.908C85.213 18.523 85.141 18.155 84.997 17.802C84.87 17.45 84.648 17.073 84.33 16.673C84.012 16.272 83.59 15.839 83.065 15.375C82.541 14.894 81.888 14.357 81.109 13.765L80.131 13.02C78.939 12.106 78.112 11.289 77.65 10.568C77.505 10.341 77.382 10.106 77.282 9.866C77.163 10.447 76.932 10.978 76.591 11.457C76.082 12.178 75.35 12.747 74.397 13.164C73.458 13.564 72.345 13.765 71.057 13.765H68.862V19.869C68.862 20.446 69.037 20.91 69.387 21.263C69.737 21.615 70.198 21.792 70.771 21.792H70.818V22.032H56.895V21.792H56.918C57.491 21.792 57.952 21.615 58.302 21.263C58.652 20.91 58.827 20.446 58.827 19.869V14.932C58.641 16.033 58.287 17.038 57.764 17.946C56.969 19.34 55.848 20.43 54.401 21.215C52.969 21.984 51.299 22.368 49.391 22.368C47.483 22.368 45.805 21.984 44.357 21.215C42.926 20.43 41.805 19.34 40.994 17.946C40.202 16.542 39.804 14.908 39.801 13.043C39.694 13.111 39.594 13.191 39.503 13.284C39.153 13.636 38.978 14.101 38.978 14.678V20.806C38.66 21.127 38.151 21.407 37.451 21.647C36.767 21.872 35.988 22.048 35.113 22.176C34.254 22.304 33.396 22.368 32.537 22.368C30.461 22.368 28.653 21.998 27.113 21.257C25.7 21.998 24.057 22.368 22.184 22.368V22.368M53.422 19.508C53.9 18.723 54.265 17.778 54.52 16.673C54.79 15.567 54.926 14.341 54.926 12.996C54.926 11.65 54.79 10.424 54.52 9.318C54.265 8.197 53.9 7.244 53.422 6.459C52.93 5.673 52.341 5.065 51.657 4.632C50.973 4.199 50.218 3.983 49.391 3.983C48.564 3.983 47.809 4.199 47.125 4.632C46.441 5.065 45.86 5.673 45.383 6.459C44.89 7.244 44.509 8.197 44.238 9.318C43.984 10.424 43.857 11.65 43.857 12.996C43.857 14.341 43.984 15.567 44.238 16.673C44.509 17.778 44.89 18.723 45.383 19.508C45.86 20.294 46.441 20.902 47.125 21.335C47.809 21.768 48.564 21.984 49.391 21.984C50.218 21.984 50.973 21.768 51.657 21.335C52.341 20.902 52.93 20.294 53.422 19.508V19.508M65.188 19.869V6.17C65.188 5.593 65.013 5.129 64.663 4.776C64.44 4.551 64.171 4.398 63.856 4.316C63.542 4.398 63.273 4.551 63.049 4.776C62.7 5.129 62.524 5.593 62.524 6.17V19.869C62.524 20.446 62.7 20.91 63.049 21.263C63.273 21.488 63.542 21.641 63.856 21.723C64.171 21.641 64.44 21.488 64.663 21.263C65.013 20.91 65.188 20.446 65.188 19.869V19.869M72.035 12.875C72.544 12.475 72.934 11.93 73.204 11.241C73.49 10.552 73.633 9.767 73.633 8.886C73.633 8.005 73.49 7.22 73.204 6.531C72.934 5.842 72.544 5.305 72.035 4.92C71.526 4.52 70.929 4.32 70.245 4.32H68.862V13.452H70.269C70.953 13.452 71.542 13.26 72.035 12.875V12.875" fill="var(--fill-0, #151515)"/>
<path id="Vector_3" d="M128.071 2.038C128.071 2.961 127.329 3.708 126.414 3.708C125.498 3.708 124.756 2.961 124.756 2.038C124.756 1.116 125.498 0.368 126.414 0.368C127.329 0.368 128.071 1.116 128.071 2.038V2.038" fill="var(--fill-0, #151515)"/>
</g>
<defs>
<clipPath id="clip0_0_25">
<rect width="129" height="23" fill="white"/>
</clipPath>
</defs>
</svg>
