<svg width="3502" height="2660" viewBox="0 0 3502 2660" fill="none" xmlns="http://www.w3.org/2000/svg">
<g clip-path="url(#clip0_6268_18)">
<path d="M1137.05 2546.68C1094.22 2573.45 1045.62 2589 994.671 2587.66C917.248 2584.85 844.033 2551.72 790.814 2495.44C693.076 2391.67 686.6 2213.9 796.363 2115.92C923.682 2002.28 1133.57 1989.59 1255.44 2119.8C1338.46 2208.5 1331.67 2303.91 1330.69 2416.52C1330.22 2469.96 1331.78 2524.14 1329.63 2577.9C1287.62 2581.52 1227.12 2576.04 1194.14 2580.52C1191.39 2481.11 1197.06 2378.55 1192.63 2280.04C1187.89 2174.41 1121.8 2066.53 1002.35 2083.82C959.206 2090.07 927.084 2105.67 898.943 2141.04C832.53 2230.44 831.038 2400.22 920.106 2476.1C972.504 2520.11 1046.26 2510.45 1109.12 2503.6C1118.68 2504.29 1129.05 2505.53 1138.41 2503.85C1138.22 2513.16 1138.28 2538.56 1137.05 2546.68Z" fill="black"/>
<path d="M1830.32 2034.22C1875.61 2033.76 1920.9 2033.91 1966.18 2034.66L1966.17 2225.11C1966.1 2275.46 1962.63 2330.55 1973.53 2379.54C1990.94 2457.69 2049.43 2536.51 2137.82 2533.5C2322.31 2527.24 2318.5 2329.55 2318.33 2198.87C2318.02 2144.01 2318.11 2089.13 2318.62 2034.27C2362.7 2033.81 2406.79 2033.95 2450.89 2034.7C2449.93 2050.92 2450.47 2071.9 2450.45 2088.52C2450.5 2165.81 2451.55 2246.82 2450.18 2323.62C2446.44 2395.14 2413.32 2461.92 2359 2509.3C2212.69 2636.95 1915.28 2599.71 1844.37 2403.09C1821.31 2339.15 1830.8 2243.21 1829.14 2174.4C1828.14 2132.9 1827.65 2076.2 1830.32 2034.22Z" fill="black"/>
<path d="M2562.67 2582.6C2562.82 2534.31 2565.58 2488.66 2567.42 2441.19C2572.33 2315.03 2544.99 2149.47 2663.31 2065.21C2713.05 2029.79 2804.88 2026.39 2861.32 2037.14C2857.6 2049.99 2858.75 2073.33 2857.14 2089.15C2847.55 2089.22 2829.87 2087.78 2822.8 2091.68C2681.79 2097.65 2700.01 2235.72 2700.06 2336L2699.99 2582.16C2654.79 2583.18 2608.09 2582.35 2562.67 2582.6Z" fill="black"/>
<path d="M2861.32 2037.14C2865.7 2038.91 2871.05 2039.67 2871.91 2044.98C2873.96 2057.63 2878.14 2084.52 2871 2095.16C2854.94 2095.01 2840.19 2092.11 2822.8 2091.68C2829.87 2087.78 2847.55 2089.22 2857.14 2089.15C2858.75 2073.33 2857.6 2049.99 2861.32 2037.14Z" fill="black" fill-opacity="0.94902"/>
<path d="M1109.12 2503.6C1123.63 2499.5 1140.73 2494.85 1154.57 2489.2C1154.79 2513.26 1159.93 2533.14 1137.05 2546.68C1138.28 2538.56 1138.22 2513.16 1138.41 2503.85C1129.05 2505.53 1118.68 2504.29 1109.12 2503.6Z" fill="black" fill-opacity="0.956863"/>
<path d="M1986.39 0H2122.56C2131.25 5.00703 2178.34 17.5089 2191.5 22.1788C2274.82 51.7392 2330.11 98.6425 2373.95 174.854C2424.1 262.022 2438.34 392.753 2419.14 490.843C2403.67 569.871 2367.86 659.558 2345.44 739.086C2390.35 716.398 2439.57 694.431 2485.34 672.048C2581.92 625.374 2685.78 566.898 2795.95 601.495C2911.97 637.923 2900.57 758.322 2868.95 850.66C2823.66 981.511 2712 1091.84 2596.27 1163.97C2550.71 1192.37 2486.32 1223.07 2437.21 1247.33C2447.41 1251.67 2456.78 1254.98 2467.25 1257.41C2486.25 1261.59 2552.13 1266.63 2562.75 1283.65C2605.18 1351.59 2421.47 1449.93 2391.83 1464.63C2324.16 1498.18 2270.53 1525.22 2206.09 1543.93C2163.9 1556.37 2120.34 1563.6 2076.39 1565.46C2037.17 1566.91 1994.28 1566.43 1955.47 1562.23C1926.28 1559.08 1899.41 1552.96 1869.62 1551.22C1841.95 1569.89 1822.05 1586.1 1789.77 1598.36C1675.23 1640.01 1556.05 1616.66 1438.33 1595.25C1356.97 1580.46 1224.68 1559.88 1181.82 1473.77C1170.54 1451.12 1183.91 1420.17 1194 1398.5C1007.22 1365.92 819.148 1255.99 696.947 1111.6C652.03 1058.53 598.152 982.594 621.654 909.358C658.322 795.1 935.919 931.819 970.753 916.216C969.633 906.278 950.529 885.296 943.403 875.898C843.39 744 754.143 629.029 748.557 454.694C749.345 383.226 771.369 299.311 824.457 248.989C1010.22 72.9009 1255.5 169.324 1404.05 340.519C1460.34 405.381 1502.89 476.152 1557.83 541.413C1561.37 545.615 1566.96 549.151 1572.42 548.953C1584.11 521.524 1593.57 486.609 1603.18 458.065C1629.73 379.14 1654.74 296.92 1693.51 223.109C1739.09 136.333 1812.08 62.5767 1904.05 26.6831C1930.13 16.5068 1959.26 8.19128 1986.39 0ZM743.798 1042.16C753.524 1109.94 801.848 1162.46 854.95 1202.63C951.304 1275.58 1072.7 1305.72 1188.36 1332.8C1232 1343.02 1277.86 1348.95 1320.11 1364.14C1388.11 1388.58 1352.69 1427.07 1319.96 1460.73C1305.3 1480.14 1296.22 1505.45 1323.44 1519.86C1417.05 1569.42 1548.38 1575.08 1652.2 1566.38C1722.71 1558.65 1749.28 1487.2 1801.45 1478.47C1865.78 1469.47 1929.94 1501.54 1993.43 1505.15C2112.59 1511.94 2234.69 1482.94 2339.89 1427.22C2358.18 1417.53 2396.79 1395.17 2400.29 1373.69C2398.52 1367.13 2395.86 1361.02 2388.85 1358.33C2347.12 1342.3 2299.44 1338.83 2256.23 1326.94C2230.62 1320.6 2175.06 1310.82 2196.04 1271.93C2198.69 1267.03 2207.38 1255.64 2212.06 1253.29C2380.92 1168.37 2598.96 1115.78 2697.35 937.723C2713.15 909.145 2728.92 866.008 2720.07 832.912C2706.1 787.416 2673.06 762.342 2625.33 763.207C2544.79 764.151 2478.91 815.339 2409.69 849.31C2360.51 873.441 2311.67 899.948 2261.19 921.328C2211.02 942.576 2167.12 963.475 2117.32 929.817C2113.89 922.255 2108.37 910.813 2108.63 902.591C2109.79 865.453 2128.92 820.079 2141.51 784.896C2157.58 740.03 2173.19 695.001 2188.34 649.813C2202.89 606.8 2215.07 573.46 2224.49 528.895C2250.45 406.117 2219.21 295.637 2094.1 249.197C2052.31 233.686 2032.32 231.721 1988.11 233.661C1939.88 236.366 1895.53 264.545 1864.21 300.218C1775.28 401.609 1753.81 538.08 1714.1 662.338C1696.58 717.178 1682.65 797.161 1611.07 801.34C1550.68 804.863 1508.9 740.309 1476.26 698.614C1438.91 650.959 1401.89 603.05 1365.19 554.891C1339.96 521.9 1315.08 487.765 1287.44 457.642C1217.44 381.348 1053.52 324.219 974.326 415.451C855.789 552.009 977.381 723.762 1070.98 834.634C1086.96 853.569 1099.65 873.935 1116.19 892.33C1148.33 930.159 1203.19 981.053 1219.77 1026.41C1210.22 1046.99 1200.78 1060.19 1178.49 1068.09C1105.23 1094.06 838.289 982.584 770.755 1009.67C758.017 1014.78 750.401 1029.25 744.481 1040.77C744.246 1041.23 744.026 1041.7 743.798 1042.16Z" fill="black"/>
<path d="M3307.48 2548.22C3170.51 2638.51 2967.7 2561.4 2910.57 2414.3C2853.49 2267.34 2909.59 2129.56 3050.58 2062.42C3238.49 1972.95 3456.54 2053.57 3501.36 2265.41C3501.56 2265.91 3501.78 2266.42 3502 2266.93V2577.85C3477.67 2579.22 3392.34 2582.67 3371.56 2577.97C3359.43 2564.82 3365.98 2508.74 3364.95 2488.05C3359.33 2376.15 3393.83 2189.15 3290.71 2111.31C3206.92 2048.07 3074.47 2090.59 3042.09 2195.33C3013.21 2288.77 3013.29 2408.82 3095.58 2478.59C3143.17 2518.61 3224.48 2511.4 3281.07 2503.58C3289.92 2504.26 3301.74 2505.66 3310.2 2504.46C3310.07 2520.62 3310.39 2532.21 3307.48 2548.22Z" fill="black"/>
<path d="M0 2235.76C9.98811 2213.95 15.3058 2191.39 25.5286 2169.36C52.576 2111.08 107.495 2062.88 168.015 2041.6C325.004 1986.4 542.962 2023.46 606.076 2196.77C613.295 2217.07 617.959 2238.18 619.954 2259.62C622.899 2289.13 621.666 2353.67 621.375 2385.63C620.84 2444.57 622.725 2510.5 620.368 2568.81C573.46 2569.98 528.853 2568 483.349 2568.93C483.961 2501.48 484.137 2434 483.875 2366.54C483.885 2318.95 487.397 2278.96 479.123 2227.43C457.185 2090.76 313.079 2011.53 201.6 2109.46C156.579 2149.01 134.799 2229.99 136.859 2287.35C135.214 2378.59 140.583 2478.89 136.11 2568.17C106.383 2569.86 28.1444 2572.16 0 2568.15V2235.76Z" fill="black"/>
<path d="M1462.01 1788.19C1504.53 1786.12 1547.12 1786.24 1589.62 1788.53C1588.6 1865.57 1591.89 1946.47 1589.02 2023.03C1626.16 2024.59 1663.59 2024.27 1700.78 2024.31C1691.8 2037 1696.19 2087.98 1696.01 2107.72C1669.95 2104.84 1630.72 2110.62 1596.87 2107.69L1588.84 2111.73C1593.8 2191.11 1586.8 2273.94 1589.57 2355.19C1591.99 2426.01 1582.56 2533.23 1637.27 2588.12C1655.64 2606.58 1689.2 2602.94 1712.07 2609.83C1719.03 2613.5 1727.04 2612.47 1735.24 2612.45C1734.92 2623.99 1733.38 2642.47 1736.78 2652.84C1741.27 2655.53 1739.41 2654.87 1746.08 2653.28L1746.02 2660H1644.48C1601.62 2645.75 1561.15 2635.11 1527.9 2601.76C1466.3 2539.98 1463.64 2437.76 1462.05 2355.68C1461.09 2306.12 1462 2255.97 1462 2206.58L1462.01 1788.19Z" fill="black"/>
<path d="M1700.78 2024.31C1704.56 2025.18 1709.02 2025.28 1709.71 2028.08C1714.45 2047.45 1712.17 2094.68 1712.15 2112.83C1688.69 2113.3 1606.19 2116.55 1588.84 2111.73L1596.87 2107.69C1630.72 2110.61 1669.95 2104.84 1696.01 2107.72C1696.19 2087.98 1691.8 2037 1700.78 2024.31Z" fill="black" fill-opacity="0.976471"/>
<path d="M3281.07 2503.58C3296.16 2499.47 3311.2 2495.14 3326.17 2490.62C3326.46 2516.56 3331.79 2533.68 3307.48 2548.22C3310.39 2532.21 3310.07 2520.62 3310.2 2504.46C3301.74 2505.66 3289.92 2504.26 3281.07 2503.58Z" fill="black" fill-opacity="0.956863"/>
<path d="M1712.07 2609.83C1727.55 2607.12 1734.6 2606.07 1750.61 2605.58C1750.97 2619.81 1753.24 2641.42 1746.08 2653.28C1739.41 2654.87 1741.27 2655.53 1736.78 2652.84C1733.38 2642.47 1734.92 2623.99 1735.24 2612.45C1727.04 2612.47 1719.03 2613.5 1712.07 2609.83Z" fill="black" fill-opacity="0.968627"/>
</g>
<defs>
<clipPath id="clip0_6268_18">
<rect width="3502" height="2660" fill="white"/>
</clipPath>
</defs>
</svg>
