<svg preserveAspectRatio="none" width="100%" height="100%" overflow="visible" style="display: block;" viewBox="0 0 77 35" fill="none" xmlns="http://www.w3.org/2000/svg">
<g id="image" clip-path="url(#clip0_0_35)">
<path id="Vector" d="M45.454 6.485C45.59 6.622 45.766 6.714 45.965 6.667C47.695 6.258 49.391 5.702 50.96 4.852C51.149 4.749 51.294 4.516 51.365 4.322C51.446 4.1 51.479 3.795 51.414 3.563C51.36 3.371 51.266 3.146 51.076 3.052C50.895 2.962 50.715 2.968 50.535 3.066C50.032 3.339 49.514 3.583 48.985 3.8C47.982 4.195 46.945 4.49 45.896 4.738C45.442 4.845 45.201 5.425 45.232 5.855C45.247 6.073 45.295 6.324 45.454 6.485V6.485" fill="var(--fill-0, #151515)"/>
<path id="Vector_2" d="M73.146 7.002C73.075 6.851 72.961 6.667 72.774 6.652C72.577 6.635 72.45 6.74 72.312 6.869C71.623 7.521 71.063 8.295 70.378 8.951C70.152 9.153 69.912 9.338 69.658 9.502C69.737 9.334 69.818 9.168 69.903 9.003C70.165 8.495 70.457 8.003 70.774 7.528C70.898 7.349 71.018 7.172 71.1 6.965C71.213 6.675 71.219 6.284 71.097 5.996C71.018 5.812 70.801 5.55 70.563 5.656C70.432 5.714 70.353 5.767 70.248 5.876C70.214 5.911 70.182 5.948 70.149 5.984C70.074 6.07 69.998 6.155 69.923 6.241C69.772 6.415 69.622 6.59 69.474 6.766C69.192 7.102 68.915 7.442 68.638 7.782C68.095 8.449 67.553 9.115 66.973 9.749C66.812 9.925 66.649 10.099 66.482 10.27C66.582 10.071 66.678 9.87 66.772 9.668C67.144 8.867 67.481 8.05 67.87 7.257C67.983 7.025 68.101 6.795 68.224 6.568C68.284 6.459 68.344 6.351 68.406 6.244C68.44 6.186 68.475 6.13 68.507 6.072C68.602 5.902 68.647 5.726 68.693 5.537C68.741 5.338 68.717 5.012 68.628 4.824C68.548 4.651 68.446 4.527 68.256 4.473C67.965 4.389 67.707 4.775 67.533 4.965C67.418 5.091 67.303 5.216 67.188 5.341C66.934 5.618 66.678 5.894 66.423 6.169C65.877 6.759 65.329 7.348 64.782 7.938C64.352 8.4 63.922 8.862 63.493 9.326C63.639 8.893 63.782 8.458 63.924 8.023C64.05 7.632 64.18 7.242 64.301 6.85C64.437 6.41 64.477 5.838 64.161 5.459C63.952 5.209 63.606 5.14 63.334 5.339C63.077 5.527 62.928 5.852 62.762 6.119C62.643 6.311 62.524 6.502 62.405 6.693C62.183 7.051 61.96 7.409 61.737 7.767C61.335 8.41 60.93 9.052 60.506 9.681C60.109 10.263 59.691 10.847 59.183 11.336C59.017 11.481 58.84 11.613 58.646 11.717C58.506 11.775 58.361 11.816 58.211 11.836C58.213 11.829 58.214 11.821 58.215 11.814C58.22 11.794 58.226 11.774 58.232 11.754C58.295 11.532 58.372 11.314 58.455 11.1C58.497 10.991 58.541 10.884 58.586 10.778L58.587 10.775C58.615 10.714 58.642 10.654 58.669 10.593C59.06 9.743 59.513 8.92 59.99 8.117C60.093 7.943 60.198 7.769 60.305 7.598C60.417 7.422 60.458 7.193 60.473 6.99C60.487 6.801 60.481 6.582 60.398 6.407C60.346 6.296 60.278 6.19 60.178 6.116C60.038 6.015 59.84 6.052 59.708 6.142C58.538 6.942 57.379 7.76 56.249 8.618V8.615C56.252 8.589 56.254 8.562 56.257 8.535C56.267 8.436 56.279 8.336 56.293 8.237C56.308 8.138 56.324 8.04 56.342 7.942C56.351 7.896 56.375 7.799 56.389 7.738C56.428 7.599 56.468 7.461 56.517 7.325C56.534 7.28 56.552 7.235 56.57 7.191C56.593 7.14 56.633 7.049 56.653 7.008C56.685 6.946 56.719 6.886 56.754 6.825C56.927 6.604 57.097 6.38 57.263 6.152C57.408 5.95 57.504 5.742 57.544 5.493C57.577 5.277 57.575 4.984 57.479 4.779C57.407 4.628 57.293 4.445 57.107 4.429C56.915 4.413 56.774 4.512 56.646 4.647C56.398 4.906 56.185 5.19 56 5.49C55.405 6.23 54.763 6.928 54.077 7.587C53.996 7.665 53.914 7.743 53.833 7.82C53.808 7.468 53.723 7.105 53.561 6.799C53.372 6.445 53.107 6.155 52.702 6.071C52.35 5.998 52.007 6.127 51.695 6.272C51.38 6.418 51.096 6.625 50.829 6.846C50.175 7.389 49.59 8.008 49.042 8.658C49.114 8.519 49.187 8.381 49.255 8.24C49.405 7.936 49.493 7.565 49.409 7.225C49.35 6.989 49.243 6.759 49.006 6.669C48.631 6.526 48.305 6.909 48.076 7.158C47.798 7.459 47.515 7.753 47.249 8.065C46.906 8.468 46.576 8.882 46.249 9.298C45.871 9.781 45.498 10.268 45.125 10.754C45.374 10.224 45.599 9.675 45.702 9.1C45.777 8.675 45.77 8.143 45.491 7.786C45.286 7.522 44.988 7.459 44.673 7.524C44.504 7.559 44.345 7.638 44.189 7.709C44.034 7.78 43.884 7.863 43.738 7.951C43.487 8.101 43.245 8.266 43.008 8.437C42.978 8.359 42.937 8.286 42.88 8.226C42.759 8.099 42.579 7.987 42.394 8.049C41.02 8.511 39.732 9.22 38.615 10.15C38.024 10.644 37.469 11.174 36.973 11.766C36.422 12.425 35.905 13.13 35.569 13.927C35.43 14.255 35.336 14.618 35.3 14.981C34.731 15.42 34.161 15.855 33.588 16.288C34.382 15.064 35.164 13.832 35.922 12.586C36.151 12.209 36.381 11.832 36.592 11.445C36.704 11.238 36.819 11.027 36.896 10.805C37.025 10.43 37.05 9.921 36.772 9.6C36.635 9.441 36.466 9.385 36.268 9.413C36.112 9.436 35.991 9.55 35.879 9.647C35.692 9.807 35.537 10.009 35.381 10.199C35.263 10.342 35.148 10.488 35.032 10.633C34.955 10.423 34.853 10.226 34.721 10.036C34.584 9.84 34.388 9.656 34.172 9.552C33.363 9.164 32.491 9.603 31.826 10.087C31.184 10.555 30.607 11.107 30.053 11.677C30.027 11.697 30 11.719 29.975 11.743C29.872 11.844 29.764 11.939 29.653 12.03C29.487 12.15 29.312 12.254 29.125 12.336C28.973 12.385 28.818 12.417 28.659 12.43C28.57 12.427 28.482 12.421 28.395 12.407C28.397 12.339 28.398 12.271 28.397 12.202C28.391 11.528 28.221 10.777 27.787 10.246C27.53 9.931 27.153 9.774 26.753 9.811C26.54 9.83 26.35 9.931 26.192 10.073C26.109 10.078 26.027 10.102 25.954 10.151C24.767 10.952 23.685 11.884 22.714 12.926C22.692 12.945 22.671 12.965 22.652 12.988C22.63 13.013 22.609 13.038 22.587 13.063C22.342 13.331 22.106 13.607 21.876 13.888C20.806 15.119 19.705 16.324 18.505 17.428C18.076 17.822 17.634 18.202 17.177 18.563C16.639 18.976 16.08 19.361 15.489 19.694C15.297 19.803 15.151 20.02 15.076 20.223C14.994 20.445 14.961 20.75 15.029 20.982C15.086 21.176 15.185 21.4 15.377 21.494C15.559 21.583 15.751 21.584 15.932 21.482C17.154 20.792 18.261 19.895 19.292 18.945C19.579 18.682 19.86 18.411 20.136 18.137C20.148 18.189 20.162 18.241 20.178 18.292C20.367 18.889 20.77 19.42 21.349 19.679C21.923 19.934 22.559 19.951 23.163 19.792C24.829 19.352 26.044 18.08 26.92 16.638C26.814 17.134 26.771 17.64 26.896 18.143C27.034 18.699 27.375 19.24 27.973 19.351C28.41 19.432 28.843 19.238 29.222 19.043C29.778 18.758 30.28 18.36 30.748 17.939C30.526 18.275 30.302 18.61 30.078 18.945C29.27 19.564 28.465 20.188 27.67 20.823C26.685 21.088 25.704 21.364 24.726 21.653C23.662 21.966 22.602 22.294 21.547 22.638C20.536 22.968 19.529 23.312 18.528 23.672C17.519 24.034 16.516 24.414 15.518 24.81C14.618 25.167 13.723 25.538 12.836 25.927C11.99 26.298 11.151 26.684 10.321 27.087C9.54 27.467 8.767 27.862 8.003 28.276C7.284 28.664 6.574 29.069 5.876 29.494C5.544 29.695 5.214 29.901 4.888 30.111C4.893 30.104 4.898 30.097 4.903 30.09C5.845 28.782 6.777 27.466 7.706 26.149C8.406 25.157 9.105 24.164 9.805 23.172C9.838 23.149 9.871 23.126 9.904 23.102C10.812 22.448 11.701 21.768 12.58 21.076C13.509 20.344 14.423 19.594 15.324 18.829C16.282 18.016 17.226 17.187 18.156 16.341C19.104 15.48 20.037 14.601 20.953 13.705C21.851 12.827 22.733 11.931 23.592 11.014C24.4 10.151 25.189 9.269 25.948 8.361C26.672 7.494 27.373 6.605 28.024 5.681C28.294 5.296 28.556 4.906 28.804 4.506C29.114 4.007 29.464 3.476 29.62 2.906C29.742 2.461 29.834 1.968 29.684 1.517C29.614 1.309 29.53 1.107 29.37 0.95C29.207 0.791 29.066 0.722 28.854 0.654C28.605 0.575 28.316 0.602 28.064 0.651C27.751 0.713 27.445 0.837 27.158 0.973C26.437 1.315 25.786 1.804 25.17 2.309C24.56 2.808 23.98 3.35 23.417 3.903C22.274 5.026 21.167 6.185 20.092 7.373C19.034 8.543 18.007 9.741 17.007 10.962C15.975 12.22 14.97 13.502 13.984 14.798C13.037 16.043 12.11 17.302 11.194 18.569C10.458 19.587 9.731 20.61 9.006 21.635C8.288 22.141 7.559 22.631 6.805 23.081C6.291 23.387 5.764 23.681 5.21 23.905C5.03 23.971 4.843 24.028 4.653 24.049C4.636 24.048 4.619 24.046 4.602 24.043C4.539 24.019 4.473 24.01 4.404 24.02C4.305 24.012 4.212 24.037 4.125 24.094C3.939 24.198 3.778 24.422 3.711 24.622C3.632 24.861 3.592 25.135 3.665 25.381C3.718 25.563 3.821 25.823 4.014 25.894C4.127 25.936 4.233 25.982 4.353 25.991C4.484 26 4.62 25.994 4.751 25.977C4.942 25.953 5.128 25.894 5.308 25.829C5.677 25.694 6.033 25.532 6.381 25.353C6.16 25.666 5.94 25.98 5.718 26.293C4.79 27.604 3.856 28.911 2.91 30.209C2.43 30.866 1.948 31.521 1.461 32.173C1.167 32.567 0.795 32.966 0.735 33.477C0.698 33.794 0.735 34.154 0.959 34.4C1.105 34.561 1.32 34.635 1.533 34.593C1.759 34.548 1.947 34.386 2.118 34.245C2.37 34.035 2.624 33.828 2.882 33.625C3.539 33.118 4.216 32.636 4.907 32.178C5.691 31.658 6.494 31.166 7.309 30.698C8.186 30.195 9.077 29.719 9.979 29.265C10.95 28.776 11.934 28.313 12.927 27.872C13.982 27.403 15.047 26.959 16.12 26.536C16.218 26.497 16.316 26.459 16.414 26.421C17.698 25.924 18.992 25.455 20.295 25.012C21.573 24.577 22.858 24.168 24.15 23.779C23.521 24.342 22.903 24.917 22.302 25.509C21.471 26.326 20.641 27.162 19.941 28.098C19.151 29.155 18.519 30.337 18.245 31.64C18.109 32.287 18.106 33.025 18.399 33.631C18.537 33.914 18.742 34.192 19.029 34.333C19.24 34.436 19.462 34.501 19.696 34.498C19.945 34.494 20.174 34.464 20.407 34.374C20.654 34.278 20.891 34.167 21.115 34.022C21.536 33.75 21.922 33.41 22.272 33.051C23.078 32.225 23.694 31.239 24.315 30.272C25.615 28.25 26.948 26.251 28.287 24.255C28.732 23.591 29.178 22.927 29.624 22.263C31.006 21.911 32.394 21.578 33.786 21.266C35.455 20.892 37.131 20.545 38.811 20.223C40.021 19.992 41.233 19.774 42.447 19.568C42.204 20.222 42.013 20.9 41.983 21.598C41.976 21.779 41.992 21.966 42.028 22.143C42.084 22.417 42.268 22.72 42.579 22.706C42.887 22.691 43.128 22.371 43.209 22.094C43.488 21.148 43.8 20.214 44.138 19.289C52.205 17.998 60.355 16.703 68.517 16.38C68.98 16.362 69.263 16.064 69.242 15.792C69.212 15.393 69.002 15.13 68.486 15.13C60.638 15.44 52.833 16.305 45.023 17.207C45.123 17.023 45.224 16.839 45.327 16.656C45.772 15.863 46.24 15.082 46.726 14.314C46.791 14.519 46.874 14.717 46.985 14.902C47.119 15.125 47.293 15.342 47.536 15.45C47.795 15.565 48.051 15.592 48.33 15.525C48.89 15.391 49.364 14.981 49.777 14.601C50.244 14.172 50.657 13.685 51.049 13.187C51.452 12.674 51.837 12.146 52.206 11.607C52.609 11.125 53.04 10.666 53.495 10.227C54.009 9.732 54.534 9.25 55.041 8.749C55.021 9.027 55.014 9.305 55.018 9.58C54.259 10.191 53.519 10.828 52.833 11.52C52.376 11.981 51.909 12.49 51.614 13.076C51.431 13.439 51.317 13.818 51.305 14.227C51.297 14.533 51.368 14.874 51.561 15.12C51.828 15.462 52.248 15.481 52.642 15.44C53.006 15.402 53.362 15.278 53.696 15.13C54.141 14.932 54.571 14.696 54.957 14.396C55.393 14.057 55.771 13.66 56.056 13.183C56.409 12.591 56.547 11.877 56.444 11.196C56.412 10.985 56.376 10.775 56.343 10.564C56.82 10.2 57.302 9.844 57.788 9.494C57.775 9.521 57.762 9.549 57.749 9.577C57.512 10.104 57.279 10.643 57.136 11.205C56.978 11.827 56.849 12.528 57.105 13.143C57.194 13.357 57.345 13.576 57.559 13.678C57.805 13.796 58.03 13.796 58.297 13.749C58.7 13.679 59.084 13.46 59.399 13.205C59.836 12.85 60.21 12.425 60.552 11.979C61.026 11.36 61.455 10.706 61.877 10.051C61.927 9.974 61.976 9.896 62.026 9.818C61.906 10.154 61.784 10.489 61.657 10.822C61.571 11.046 61.483 11.269 61.394 11.491C61.352 11.595 61.309 11.698 61.266 11.801C61.244 11.855 61.221 11.908 61.199 11.962C61.168 12.035 61.065 12.271 61.203 11.953C61.099 12.195 61.023 12.421 61.026 12.691C61.029 12.882 61.073 13.161 61.206 13.314C61.315 13.44 61.469 13.541 61.644 13.484C61.818 13.428 61.972 13.282 62.054 13.119C62.212 12.911 62.395 12.718 62.567 12.525C62.952 12.093 63.344 11.665 63.737 11.239C64.333 10.591 64.932 9.946 65.53 9.301C65.447 9.465 65.361 9.628 65.271 9.79C65.147 10.011 65.004 10.225 64.898 10.457C64.692 10.911 64.573 11.409 64.671 11.909C64.732 12.221 64.894 12.568 65.185 12.726C65.486 12.89 65.784 12.835 66.077 12.685C66.32 12.562 66.509 12.356 66.703 12.169C67.248 11.643 67.758 11.082 68.249 10.505C68.337 10.842 68.553 11.157 68.865 11.316C69.009 11.39 69.174 11.457 69.338 11.465C69.583 11.477 69.755 11.424 69.962 11.293C70.535 10.93 71.032 10.452 71.486 9.949C71.964 9.42 72.411 8.865 72.93 8.374C73.086 8.227 73.179 7.916 73.211 7.716C73.244 7.5 73.242 7.206 73.146 7.002V7.002M16.069 14.636C16.153 14.527 16.239 14.419 16.324 14.31C17.483 12.838 18.675 11.39 19.91 9.981C21.178 8.533 22.49 7.125 23.854 5.769C24.589 5.038 25.342 4.314 26.157 3.672C26.661 3.287 27.201 2.924 27.787 2.682C27.92 2.635 28.056 2.597 28.194 2.574C27.976 2.982 27.725 3.376 27.473 3.763C27.161 4.238 26.833 4.703 26.494 5.159C26.318 5.396 26.139 5.63 25.958 5.862C25.204 6.815 24.412 7.737 23.596 8.637C22.692 9.635 21.758 10.606 20.804 11.556C19.82 12.537 18.814 13.496 17.791 14.436C16.783 15.362 15.757 16.269 14.716 17.157C14.224 17.575 13.729 17.99 13.229 18.4C14.159 17.132 15.103 15.876 16.069 14.636V14.636M37.263 13.809C37.784 13.111 38.379 12.474 39.038 11.907C39.817 11.263 40.676 10.723 41.595 10.306C41.598 10.347 41.604 10.387 41.612 10.425C41.508 10.719 41.392 11.008 41.265 11.293C40.961 11.934 40.601 12.546 40.187 13.121C39.697 13.772 39.14 14.37 38.52 14.898C38.223 15.144 37.91 15.382 37.563 15.549C37.443 15.593 37.321 15.625 37.195 15.64C37.12 15.635 37.046 15.623 36.974 15.604C36.92 15.577 36.869 15.547 36.82 15.512C36.781 15.471 36.745 15.427 36.712 15.382C36.689 15.339 36.669 15.295 36.651 15.251C36.639 15.207 36.629 15.163 36.621 15.119C36.62 15.098 36.619 15.077 36.619 15.057C36.626 15.006 36.634 14.955 36.644 14.905C36.67 14.822 36.7 14.74 36.733 14.659C36.884 14.36 37.068 14.08 37.263 13.809V13.809M25.339 16.24C25.049 16.597 24.727 16.926 24.368 17.213C24.062 17.435 23.734 17.622 23.385 17.766C23.116 17.862 22.838 17.929 22.554 17.95C22.379 17.947 22.208 17.924 22.041 17.875C21.93 17.827 21.825 17.768 21.726 17.698C21.679 17.652 21.634 17.604 21.592 17.553C21.572 17.518 21.553 17.483 21.535 17.446C21.53 17.427 21.524 17.407 21.519 17.387C21.518 17.365 21.517 17.342 21.517 17.319C21.522 17.277 21.529 17.235 21.537 17.193C21.571 17.087 21.612 16.983 21.657 16.88C21.914 16.388 22.251 15.936 22.593 15.499C22.66 15.415 22.729 15.332 22.798 15.249C22.966 15.054 23.134 14.858 23.302 14.661C23.994 13.892 24.75 13.183 25.564 12.544C25.646 12.481 25.729 12.42 25.813 12.358C25.865 12.504 25.928 12.646 25.999 12.78C26.18 13.119 26.42 13.423 26.705 13.677C26.578 14.04 26.427 14.394 26.263 14.741C25.999 15.267 25.695 15.772 25.339 16.24V16.24M29.838 16.577C29.469 16.875 29.075 17.151 28.642 17.344C28.55 17.379 28.456 17.406 28.358 17.42C28.325 17.417 28.292 17.413 28.26 17.406C28.245 17.398 28.23 17.389 28.215 17.38C28.212 17.376 28.209 17.372 28.206 17.368C28.202 17.362 28.199 17.355 28.196 17.348C28.191 17.33 28.186 17.312 28.182 17.293C28.18 17.251 28.179 17.209 28.179 17.168C28.19 17.084 28.206 17.001 28.224 16.919C28.301 16.639 28.4 16.367 28.517 16.102C28.714 15.706 28.95 15.332 29.209 14.974C29.573 14.494 29.97 14.045 30.383 13.608C30.513 13.502 30.638 13.392 30.757 13.275C30.826 13.208 30.884 13.126 30.932 13.037C31.268 12.697 31.614 12.367 31.98 12.061C32.277 11.824 32.592 11.602 32.937 11.443C33.07 11.394 33.205 11.358 33.345 11.343C33.408 11.347 33.469 11.356 33.53 11.371C33.574 11.393 33.617 11.418 33.658 11.447C33.691 11.481 33.722 11.518 33.751 11.556C33.773 11.597 33.792 11.638 33.81 11.68C33.828 11.746 33.843 11.812 33.855 11.88C33.859 11.935 33.86 11.99 33.86 12.046C33.858 12.068 33.856 12.091 33.853 12.114C32.85 13.379 31.842 14.647 30.698 15.786C30.421 16.061 30.136 16.326 29.838 16.577V16.577M23.954 28.14C23.507 28.827 23.08 29.531 22.616 30.207C22.512 30.358 22.405 30.508 22.296 30.655C21.927 31.139 21.523 31.594 21.06 31.989C20.832 32.168 20.589 32.331 20.327 32.454C20.191 32.505 20.051 32.541 19.907 32.556C19.836 32.552 19.765 32.542 19.696 32.525C19.662 32.509 19.629 32.491 19.596 32.472C19.587 32.461 19.578 32.45 19.57 32.438C19.557 32.415 19.546 32.391 19.535 32.367C19.53 32.345 19.525 32.323 19.521 32.3C19.519 32.256 19.518 32.213 19.518 32.169C19.531 32.056 19.55 31.944 19.574 31.833C19.663 31.509 19.779 31.19 19.915 30.883C20.162 30.382 20.458 29.908 20.786 29.457C21.451 28.583 22.242 27.798 23.022 27.03C23.834 26.232 24.674 25.463 25.533 24.717C25.997 24.313 26.467 23.917 26.94 23.525C26.99 23.484 27.041 23.443 27.091 23.402C26.503 24.28 25.916 25.158 25.332 26.039C24.87 26.738 24.41 27.437 23.954 28.14V28.14M35.175 19.014C34.016 19.263 32.859 19.524 31.705 19.799C32.531 19.175 33.358 18.552 34.183 17.927C34.685 17.547 35.184 17.166 35.682 16.782C35.922 17.151 36.229 17.426 36.667 17.546C37.12 17.67 37.596 17.512 37.999 17.31C38.324 17.147 38.615 16.92 38.897 16.691C39.206 16.439 39.507 16.178 39.791 15.898C40.334 15.366 40.811 14.775 41.247 14.152C42.019 13.048 42.616 11.797 42.991 10.498C43.221 10.324 43.453 10.155 43.691 9.994C43.839 9.894 43.99 9.796 44.144 9.704C43.849 10.346 43.519 10.972 43.188 11.596C42.792 12.341 42.389 13.083 42.003 13.834C41.801 14.227 41.604 14.622 41.419 15.023C41.327 15.221 41.262 15.409 41.247 15.63C41.234 15.82 41.244 16.04 41.331 16.214C41.389 16.328 41.463 16.434 41.568 16.508C41.717 16.612 41.923 16.576 42.066 16.487C42.301 16.341 42.511 16.15 42.713 15.964C42.924 15.769 43.122 15.561 43.315 15.349C43.797 14.817 44.248 14.256 44.692 13.692C45 13.301 45.304 12.907 45.606 12.511C44.928 13.932 44.279 15.369 43.688 16.829C43.578 17.042 43.471 17.256 43.366 17.472C43.182 17.502 42.998 17.532 42.815 17.562C41.518 17.779 40.223 18.01 38.931 18.256C37.676 18.494 36.424 18.747 35.175 19.014V19.014M49.447 12.756C49.315 12.893 49.178 13.025 49.035 13.152C48.854 13.303 48.661 13.443 48.451 13.55C48.372 13.581 48.29 13.604 48.205 13.617C48.171 13.614 48.137 13.61 48.103 13.602C48.085 13.592 48.067 13.581 48.049 13.569C48.025 13.542 48.002 13.513 47.981 13.483C47.955 13.431 47.932 13.377 47.912 13.322C47.863 13.144 47.83 12.962 47.806 12.78C47.803 12.751 47.801 12.722 47.798 12.693C47.913 12.528 48.027 12.362 48.144 12.197C48.528 11.662 48.924 11.134 49.338 10.622C49.726 10.141 50.129 9.672 50.559 9.229C50.753 9.03 50.954 8.837 51.162 8.653C51.419 8.436 51.693 8.231 51.994 8.083C52.093 8.044 52.195 8.015 52.3 8C52.334 8.002 52.368 8.007 52.402 8.014C52.419 8.024 52.436 8.034 52.452 8.045C52.464 8.058 52.476 8.072 52.486 8.087C52.499 8.113 52.51 8.139 52.521 8.166C52.532 8.209 52.541 8.252 52.549 8.295C52.55 8.322 52.55 8.348 52.55 8.375C52.547 8.398 52.543 8.421 52.539 8.443C52.528 8.48 52.514 8.516 52.501 8.552C52.361 8.822 52.18 9.078 52.019 9.331C51.812 9.655 51.601 9.976 51.386 10.293C51.26 10.478 51.133 10.66 51.004 10.842C50.524 11.51 50.019 12.164 49.447 12.756V12.756M55.298 11.843C55.294 11.851 55.29 11.86 55.286 11.868C55.287 11.863 55.288 11.858 55.289 11.853C55.354 11.698 55.326 11.782 55.298 11.843V11.843M55.258 11.921C55.234 11.969 55.208 12.015 55.18 12.06C55.081 12.193 54.971 12.318 54.853 12.435C54.582 12.676 54.282 12.885 53.966 13.061C53.884 13.107 53.801 13.149 53.717 13.191C53.505 13.287 53.287 13.372 53.062 13.433C53.216 13.263 53.376 13.098 53.539 12.937C53.659 12.818 53.782 12.701 53.906 12.585C54.322 12.204 54.75 11.836 55.186 11.478C55.21 11.626 55.235 11.773 55.258 11.921V11.921M69.328 10.258C69.321 10.277 69.314 10.297 69.306 10.317C69.236 10.477 69.275 10.382 69.328 10.258V10.258" fill="var(--fill-0, #151515)"/>
<path id="Vector_3" d="M74.942 4.392C74.994 4.339 75.052 4.271 75.123 4.192C75.195 4.112 75.266 4.03 75.344 3.941C75.419 3.853 75.491 3.767 75.556 3.687C75.621 3.608 75.676 3.537 75.721 3.478C75.767 3.422 75.789 3.384 75.796 3.363C75.803 3.342 75.806 3.325 75.806 3.31C75.806 3.254 75.763 3.224 75.679 3.224C75.562 3.224 75.413 3.257 75.234 3.322L75.237 3.348C75.237 3.363 75.227 3.398 75.204 3.457C75.185 3.519 75.159 3.596 75.126 3.687C75.046 3.932 74.984 4.168 74.942 4.392V4.392M74.681 5.336C74.831 5.336 74.98 5.286 75.13 5.186C75.279 5.086 75.422 4.947 75.559 4.77C75.267 4.873 75.056 5.107 74.876 5.189L74.831 5.195C74.711 5.195 74.626 5.121 74.581 4.976C74.545 4.873 74.525 4.746 74.525 4.596C74.525 4.319 74.561 4.041 74.636 3.767C74.675 3.599 74.72 3.457 74.775 3.339C74.831 3.224 74.88 3.156 74.928 3.136L74.925 3.112C74.925 3.095 74.935 3.08 74.958 3.065C74.987 3.044 75.062 3.021 75.175 2.994C75.282 2.98 75.377 2.974 75.458 2.974C75.585 2.974 75.702 2.988 75.806 3.015C75.923 3.05 76.008 3.109 76.066 3.192C76.098 3.245 76.115 3.301 76.115 3.354C76.115 3.528 75.982 3.773 75.715 4.086C75.607 4.207 75.484 4.342 75.341 4.493L75.565 4.431C75.647 4.41 75.728 4.401 75.806 4.401C75.884 4.269 75.952 4.133 76.017 3.997C76.138 3.732 76.225 3.493 76.274 3.283C76.29 3.198 76.3 3.121 76.3 3.059C76.287 2.903 76.232 2.797 76.134 2.735C76.072 2.699 75.994 2.682 75.9 2.682C75.793 2.682 75.676 2.705 75.543 2.752C75.383 2.808 75.224 2.885 75.062 2.988C74.899 3.092 74.759 3.201 74.645 3.319C74.515 3.449 74.425 3.566 74.379 3.673C74.246 4.065 74.171 4.401 74.161 4.676C74.161 4.782 74.168 4.87 74.184 4.944C74.216 5.103 74.294 5.215 74.425 5.28C74.496 5.319 74.581 5.336 74.681 5.336V5.336M74.876 5.673C74.749 5.673 74.629 5.655 74.512 5.622C74.327 5.572 74.168 5.484 74.028 5.357C73.882 5.224 73.778 5.053 73.716 4.844C73.67 4.708 73.651 4.561 73.651 4.404C73.651 4.304 73.657 4.195 73.677 4.083C73.657 4.077 73.638 4.071 73.621 4.062C73.573 4.035 73.547 3.985 73.547 3.918C73.547 3.805 73.609 3.658 73.732 3.472C73.826 3.331 73.947 3.189 74.096 3.044C74.242 2.9 74.408 2.773 74.593 2.658C74.902 2.469 75.211 2.375 75.52 2.375C75.653 2.375 75.777 2.384 75.897 2.407C76.242 2.472 76.485 2.59 76.625 2.764C76.69 2.844 76.723 2.941 76.723 3.056V3.112C76.677 3.566 76.567 3.997 76.394 4.407C76.294 4.649 76.17 4.861 76.024 5.05C75.702 5.466 75.318 5.673 74.876 5.673V5.673" fill="var(--fill-0, #151515)"/>
<path id="Vector_4" d="M71.904 14.979C71.437 14.938 70.96 14.941 70.499 15.002C70.322 15.026 70.17 15.117 70.07 15.225C69.957 15.348 69.882 15.532 69.894 15.684C69.904 15.824 69.945 15.984 70.081 16.09C70.2 16.182 70.356 16.247 70.531 16.223C70.786 16.19 71.045 16.174 71.304 16.175C71.405 16.179 71.504 16.185 71.604 16.193C71.784 16.209 71.939 16.172 72.075 16.082C72.218 15.986 72.329 15.823 72.357 15.68C72.387 15.531 72.387 15.361 72.286 15.223C72.207 15.114 72.08 14.994 71.904 14.979V14.979" fill="var(--fill-0, #151515)"/>
</g>
<defs>
<clipPath id="clip0_0_35">
<rect width="77" height="35" fill="white"/>
</clipPath>
</defs>
</svg>
