<?xml version="1.0" encoding="UTF-8" standalone="no"?>
<svg
   xmlns:dc="http://purl.org/dc/elements/1.1/"
   xmlns:cc="http://creativecommons.org/ns#"
   xmlns:rdf="http://www.w3.org/1999/02/22-rdf-syntax-ns#"
   xmlns:svg="http://www.w3.org/2000/svg"
   xmlns="http://www.w3.org/2000/svg"
   version="1.1"
   id="Layer_1"
   x="0px"
   y="0px"
   width="2838px"
   height="299px"
   viewBox="0 0 2838 299"
   enable-background="new 0 0 2838 299"
   xml:space="preserve"><metadata
   id="metadata8"><rdf:RDF><cc:Work
       rdf:about=""><dc:format>image/svg+xml</dc:format><dc:type
         rdf:resource="http://purl.org/dc/dcmitype/StillImage" /><dc:title></dc:title></cc:Work></rdf:RDF></metadata><defs
   id="defs6" />  <path
   id="path46"
   style="fill:#e71a3b;fill-opacity:1"
   d="m 2674.8968,4.9570821 -1.2695,2.7714901 C 2667.8498,20.334842 2547.557,292.02042 2547.557,292.46294 c 0,0.31677 9.4891,0.45508 21.0878,0.30664 l 21.0899,-0.26953 15.8633,-36.5 15.8652,-36.5 h 72.1719 72.1719 l 5.2226,12 c 2.8729,6.6 10.071,23.1375 15.9961,36.75 l 10.7734,24.75 h 20.879 c 11.4832,0 20.8776,-0.3375 20.8769,-0.75 -6e-4,-0.4125 -28.5407,-65.1 -63.4238,-143.75 l -63.4238,-142.9999979 -18.9063,-0.27148 z m 18.4805,48.8730499 c 0.496,-0.48824 49.9362,112.250518 55.3965,126.320308 0.6931,1.78593 -1.2054,1.84961 -55.2129,1.84961 h -55.9336 l 1.8437,-4.25 c 1.014,-2.3375 13.4052,-31.025 27.5352,-63.75 14.1301,-32.724998 25.9972,-59.801788 26.3711,-60.169918 z" /><path
   id="path38"
   style="fill:#e71a3b;fill-opacity:1"
   d="m 1925.057,5.0371621 -63,142.1171879 c -34.65,78.16451 -63.324,142.95729 -63.7188,143.98242 -0.6866,1.7829 0.2041,1.86219 20.5,1.84179 l 21.2188,-0.0215 16,-36.97852 16,-36.97851 72,0.004 72,0.004 16,36.98438 16,36.98242 21.2011,0.0137 21.2032,0.0117 -1.2286,-2.91797 c -0.6747,-1.60465 -29.3399,-66.38994 -63.7011,-143.96875 L 1963.057,5.0607821 l -19,-0.01172 z m 18.3105,49.7539099 c 1.411,-0.28944 5.612,9.06429 27.9609,60.863278 14.9133,34.56522 27.4142,63.6332 27.7793,64.5957 0.6271,1.6536 -2.3981,1.75 -54.9433,1.75 -30.5839,0 -55.6074,-0.26429 -55.6074,-0.58789 0,-0.68654 52.6475,-122.775198 54.4453,-126.257808 0.1032,-0.20002 0.2192,-0.33334 0.3652,-0.36328 z" /><path
   id="path24"
   style="fill:#0032c5"
   d="M 426.02172,4.9746621 365.84594,147.23638 c -33.09629,78.24448 -60.47242,143.05117 -60.83789,144.01367 -0.62563,1.64761 1.55654,1.75 37.3125,1.75 h 37.97852 l 9.3789,-24.5 9.37891,-24.5 60.98047,0.25 60.98047,0.25 9.51953,24.24414 9.51953,24.24609 37.75,0.006 c 20.7625,0.003 37.75,-0.34128 37.75,-0.76367 0,-0.42238 -27.12414,-65.10988 -60.27539,-143.75 L 495.0061,5.5000521 460.51391,5.2363821 Z m 34.07227,83.2792999 c 0.4692,0.5872 36.46289,93.431598 36.46289,94.054678 0,0.94224 -72.99473,0.88369 -73.01953,-0.0586 -0.025,-0.95116 36.291,-94.328538 36.55664,-93.996088 z" /><path
   style="fill:#e71a3b;fill-opacity:1"
   d="M 2458.5568,150 V 7.0000021 h 20 20 V 150 293 h -20 -20 z"
   id="path44" /><path
   style="fill:#e71a3b;fill-opacity:1"
   d="M 2140.5568,150 V 7.0000021 h 19.4925 19.4926 l 0.2574,63.2499999 0.2575,63.249998 79.25,0.25602 79.25,0.25602 V 70.506022 7.0000021 h 20 20 V 150 293 h -20 -20 V 231.5 170 h -79.5 -79.5 v 61.5 61.5 h -19.5 -19.5 z"
   id="path42" /><path
   id="path32"
   style="fill:#e71a3b;fill-opacity:1"
   d="M 1531.557,7.0000521 V 150.06255 293.12505 l 75.75,-0.41016 c 66.0042,-0.35774 76.8436,-0.63001 84.25,-2.10351 25.6936,-5.1117 43.5531,-13.96173 57.0097,-28.25196 14.2065,-15.08671 20.6326,-35.31374 18.084,-56.92382 -2.7892,-23.65042 -14.9766,-41.9727 -34.6582,-52.10547 -7.8488,-4.0408 -10.7049,-5.12433 -19.4004,-7.36914 l -4.4629,-1.1543 6.9629,-3.25391 c 24.3929,-11.39755 37.7945,-33.18804 37.8535,-61.552728 0.046,-22.1309 -7.4954,-39.16281 -23.1621,-52.30273 -6.7915,-5.69615 -20.955,-12.9506 -30.7265,-15.73828 -16.6223,-4.7421499 -20.6731,-4.9510799 -96.25,-4.9550799 z m 40,33.8085899 48.75,0.46875 c 54.0314,0.51864 57.0942,0.83043 70.9472,7.22266 14.5875,6.73114 23.0028,18.34771 24.0137,33.14844 1.5539,22.749928 -10.8859,38.939498 -35.7188,46.486328 -7.2944,2.21678 -8.8234,2.28727 -57.7421,2.62304 l -50.25,0.34375 V 85.955132 Z m 0,126.083988 56.25,0.35547 c 62.9016,0.39739 61.4943,0.25528 77.3671,7.81445 21.2693,10.1292 28.7132,31.6738 18.4922,53.51563 -5.704,12.18916 -18.6894,21.6134 -36.6679,26.61328 -7.6521,2.12807 -9.9033,2.22332 -61.6914,2.57226 l -53.75,0.36133 v -45.61523 z" /><path
   id="path28"
   style="fill:#0032c5"
   d="M 1018.8948,4.9746621 958.76391,147.23638 c -33.07186,78.24452 -60.42032,143.05117 -60.77539,144.01367 -0.60769,1.64725 1.58157,1.75 37.27539,1.75 h 37.91992 l 9.43555,-24.50781 9.4375,-24.50781 60.94342,0.25781 60.9453,0.25781 9.5254,24.25 9.5254,24.25 h 37.7793 c 20.7791,0 37.7718,-0.3375 37.7598,-0.75 -0.012,-0.4125 -27.1578,-65.1 -60.3242,-143.75 l -60.3028,-142.9999979 -34.5078,-0.26367 z m 33.9278,83.4335899 c 0.1841,-0.17878 33.8102,85.762108 36.3262,92.841798 0.5851,1.64643 -1.5786,1.75 -36.545,1.75 -20.4413,0 -36.9558,-0.3375 -36.7011,-0.75 0.2548,-0.4125 8.6126,-21.64562 18.5742,-47.18359 9.9615,-25.53796 18.217,-46.533258 18.3457,-46.658208 z" /><path
   style="fill:#0032c5"
   d="m 1331.5568,297.87877 c -38.8727,-4.46663 -71.0375,-21.38874 -89.241,-46.95037 -9.1217,-12.80874 -16.8743,-32.83716 -18.3731,-47.46555 l -0.6647,-6.48839 35.7524,0.26278 35.7523,0.26278 1.7157,5.5 c 2.4807,7.95266 4.6739,11.71313 10.3016,17.66359 9.4771,10.02064 21.4093,15.4511 38.3369,17.44748 21.7156,2.56107 41.5676,-3.84153 47.6038,-15.35308 2.7195,-5.18626 2.989,-14.65851 0.55,-19.33314 -2.4993,-4.79031 -8.9114,-9.97341 -15.2912,-12.36042 -3.2005,-1.19743 -20.4202,-5.32835 -38.266,-9.17981 -17.8459,-3.85146 -36.0292,-8.13425 -40.4074,-9.51732 -28.6004,-9.03486 -47.6178,-23.03333 -56.8099,-41.81712 -5.3836,-11.00117 -7.0055,-17.90174 -7.6504,-32.550177 -2.1845,-49.617271 29.534,-85.449771 84.691,-95.6758209 13.2037,-2.44794996 44.6923,-2.45903996 58,-0.0204 15.246,2.7938 26.7277,6.4175001 38.5,12.1508099 12.6855,6.17807 21.4587,12.52406 30.1055,21.77646 13.6404,14.59589 20.4221,29.7824 24.7926,55.51898 l 0.5519,3.25 h -35.904 -35.9041 l -1.6591,-5.70729 c -2.4933,-8.57667 -6.1143,-15.01948 -11.4272,-20.33233 -8.5178,-8.51783 -18.3664,-11.9604 -34.2165,-11.9604 -16.0002,0 -26.8868,3.38099 -34.0943,10.58853 -4.9155,4.91551 -7.0562,9.75744 -7.5507,17.07865 -0.7695,11.39238 4.9421,19.565068 17.3284,24.795458 2.1876,0.92376 19.2775,5.25124 37.9775,9.61662 45.1463,10.53909 57.646,14.74309 72.6024,24.41837 23.6878,15.32357 33.9445,36.22551 32.6175,66.47084 -1.3712,31.25046 -15.7999,55.16887 -42.8944,71.10569 -24.034,14.13659 -62.2786,20.77416 -96.8255,16.80459 z"
   id="path22" /><path
   style="fill:#0032c5"
   d="m 738.55676,297.94647 c -46.09848,-5.71316 -80.58081,-27.18789 -97.36955,-60.6393 -4.95318,-9.86917 -10.63045,-29.83499 -10.63045,-37.38518 v -2.94725 l 35.54503,0.26263 35.54503,0.26263 2.30825,6.60657 c 6.76448,19.36103 23.6057,31.21249 48.26038,33.96165 15.49433,1.72772 31.0928,-0.98762 39.82788,-6.93312 13.28134,-9.03991 13.63734,-27.56558 0.69446,-36.13858 -6.74936,-4.47059 -10.24349,-5.47186 -45.52995,-13.04702 -18.0669,-3.87853 -37.48819,-8.57158 -43.15841,-10.42901 -27.35081,-8.95946 -45.31844,-22.46171 -54.41265,-40.8898 -5.14232,-10.42017 -7.01867,-18.33494 -7.73572,-32.630687 -1.6409,-32.714341 11.89236,-59.990621 38.64215,-77.883271 29.59339,-19.79468986 75.69672,-25.5031799 118.42748,-14.6636399 32.83268,8.3286999 58.59395,28.4385799 70.73669,55.2188199 3.17828,7.00954 7.11337,21.21004 8.19637,29.57809 l 0.61475,4.75 h -35.90991 -35.90991 l -1.65916,-5.70729 c -6.42965,-22.11722 -20.81204,-32.29271 -45.64364,-32.29271 -15.68523,0 -25.31153,2.81824 -32.83121,9.61182 -6.38518,5.76862 -8.45727,10.5035 -8.48473,19.38818 -0.0278,9.00494 2.4613,14.259818 8.87583,18.738028 7.73626,5.40096 9.58821,5.96839 49.68587,15.2236 41.91171,9.67392 54.94333,14.21509 70.50384,24.56869 14.83179,9.86873 24.62289,23.13932 29.12092,39.46968 2.55429,9.27348 2.49848,34.66148 -0.0978,44.5 -9.43555,35.75551 -39.64086,60.02202 -84.61182,67.97592 -11.20721,1.98219 -41.98186,2.83607 -53,1.47055 z"
   id="path20" /><path
   style="fill:#0032c5"
   d="M 135.23175,298.0097 C 53.407696,287.71174 -0.75152374,224.06294 2.9074369,142.5 4.6126198,104.48929 18.198574,71.849242 43.017873,46.135302 55.453598,33.251312 66.538835,25.180202 83.056757,16.983172 102.8577,7.1569421 118.89885,2.8364721 142.13873,1.0702121 208.0773,-3.9411779 264.84272,28.817452 288.0121,85.251962 c 3.53613,8.61309 9.08033,27.545698 8.2961,28.329928 -0.3875,0.3875 -68.2133,11.40533 -70.26393,11.41388 -0.55687,0.002 -1.87978,-3.03327 -2.9398,-6.74577 -7.11914,-24.933348 -25.21765,-42.981318 -49.04771,-48.910748 -10.35043,-2.57541 -31.42983,-2.33232 -41.78672,0.48188 -27.61398,7.50335 -47.713695,28.696561 -54.891233,57.877518 -2.782554,11.31274 -3.015881,32.24544 -0.475454,42.65478 4.027767,16.50369 10.826242,28.96985 21.621433,39.64657 11.275464,11.15172 22.922534,17.36717 38.632024,20.61596 9.50478,1.96563 29.95038,1.44636 38.63917,-0.98135 23.22967,-6.49053 40.89812,-24.65449 47.39203,-48.72111 0.9518,-3.52743 1.80708,-6.53393 1.90061,-6.68113 0.0935,-0.14719 15.75918,2.21531 34.81254,5.25 19.05336,3.0347 35.11582,5.51763 35.69435,5.51763 1.55221,0 0.31939,5.80451 -4.06114,19.12127 -7.19278,21.8659 -16.93297,37.79903 -32.97761,53.94513 -19.84195,19.96744 -43.09743,32.10868 -72.79181,38.00321 -12.01232,2.38452 -38.82318,3.41386 -50.5332,1.94009 z"
   id="path12" />
</svg>
