<svg width="892" height="182" viewBox="0 0 892 182" fill="none" xmlns="http://www.w3.org/2000/svg">
<g clip-path="url(#clip0_6270_37)">
<path d="M84.752 48.3008C87.1965 49.8054 111.802 81.6811 115.255 86.032L101.814 86.0203C101.734 91.703 101.797 97.5239 101.795 103.22C109.197 103.711 119.561 104.955 126.854 106.103C127.298 98.8 127.059 88.3147 127.099 80.7788C135.963 82.9753 145.688 87.5858 154.772 89.2627L154.822 141.78L85.7463 141.746L14.9299 141.793C14.2151 126.204 14.5971 105.134 14.9188 89.4074C23.9791 86.9237 33.4455 83.5302 42.5281 80.7319C42.7619 88.832 42.5914 97.8538 42.6084 106.025C50.9967 104.912 59.4067 103.968 67.8336 103.194L67.8488 86.0853L54.6512 86.0566C61.1826 76.4243 76.9274 57.38 84.752 48.3008Z" fill="black"/>
<path d="M435.195 60.2715L435.191 141.936C431.676 141.95 426.947 142.001 423.383 141.968C421.927 141.954 422.177 139.695 420.704 137.584C417.928 137.681 414.288 140.341 411.7 141.584C404.155 145.208 395.609 143.708 388.036 141.297L387.486 141.049C369.661 132.945 362.909 112.592 371.317 95.1924C375.037 87.4989 381.729 81.6502 389.853 78.9932C400.398 75.4409 408.502 77.3236 418.01 81.9814L418.242 60.252L435.195 60.2715ZM419.274 108.01C417.97 98.7719 409.54 92.2554 400.272 93.3203C394.059 94.0339 388.723 98.0616 386.333 103.84C383.944 109.619 384.879 116.238 388.774 121.13C392.668 126.022 398.91 128.416 405.077 127.383C414.279 125.841 420.577 117.248 419.274 108.01Z" fill="black"/>
<path d="M190.446 60.2458C201.121 60.2007 220.005 59.1967 229.898 61.1882C254.709 66.1819 259.902 97.0145 236.923 110.872C242.098 120.856 248.983 131.777 254.613 141.887L240.235 141.94C239.271 141.975 235.783 142.072 235.386 141.53C230.047 134.235 223.475 121.665 219.209 114.041L207.891 114.056L207.859 141.779L190.309 141.926C190.288 115.228 189.769 86.8067 190.446 60.2458ZM229.382 79.0925C223.196 75.6499 214.742 76.471 207.901 76.5847L207.85 97.7742C215.24 97.8134 224.953 98.9249 230.631 94.4978C234.411 89.3822 235.881 82.7093 229.382 79.0925Z" fill="black"/>
<path d="M701.572 77.4553C710.677 76.4792 717.082 79.7393 724.265 84.5324L726.035 78.7658L738.884 78.7932C738.556 99.5956 738.931 120.886 738.75 141.775C735.111 141.693 729.199 142.688 726.199 141.198C724.775 140.49 724.617 137.932 724.248 136.249C721.869 137.942 719.308 139.36 716.771 140.821C713.789 142.071 710.648 142.899 707.437 143.282C664.324 148.17 655.635 81.8921 701.572 77.4553ZM718.19 99.219C714.165 94.431 707.86 92.2039 701.713 93.4026C692.549 95.1913 686.485 103.959 688.038 113.166C689.59 122.374 698.198 128.665 707.444 127.348C713.637 126.465 718.87 122.292 721.102 116.447C723.334 110.603 722.221 104.007 718.19 99.219Z" fill="black"/>
<path d="M473.719 76.9764C492.129 74.8766 508.764 88.0712 510.914 106.474C513.059 124.877 499.91 141.548 481.512 143.743C463.043 145.947 446.298 132.737 444.142 114.266C441.986 95.7944 455.241 79.084 473.719 76.9764ZM494.502 107.991C493.184 98.6857 484.606 92.1867 475.289 93.4364C465.879 94.699 459.299 103.383 460.629 112.783C461.959 122.183 470.696 128.7 480.082 127.304C489.381 125.92 495.821 117.296 494.502 107.991Z" fill="black"/>
<path d="M848.672 76.8562C867.193 75.5573 883.253 89.5166 884.549 108.034C885.844 126.551 871.881 142.611 853.365 143.902C834.85 145.192 818.795 131.233 817.5 112.722C816.205 94.212 830.162 78.1554 848.672 76.8562ZM868.054 108.692C867.117 99.2937 858.732 92.4385 849.334 93.3865C839.953 94.3334 833.109 102.702 834.047 112.087C834.978 121.471 843.346 128.322 852.732 127.395C862.131 126.467 868.992 118.091 868.054 108.692Z" fill="black"/>
<path d="M531.615 60.256C544.987 60.3122 571.143 57.6747 581.186 66.5499C600.176 83.3232 592.266 112.726 565.553 116.175C560.274 116.415 554.338 116.381 549 116.473L548.977 141.838L531.422 141.922C531.41 115.676 530.731 86.2466 531.615 60.256ZM569.678 79.713C563.754 75.6229 555.826 76.5395 549.006 76.6515L548.988 100.008C556.008 100.132 564.364 101.138 570.07 97.0636C574.301 91.5609 576.363 84.3246 569.678 79.713Z" fill="black"/>
<path d="M285.468 77.428C304.67 76.0711 319.804 89.3915 320.49 108.705C320.567 110.884 320.524 113.078 320.491 115.258L272.729 115.263C278.333 131.047 290.421 132.6 301.98 121.254C306.823 121.11 312.163 121.225 317.045 121.231C318.666 121.398 318.052 121.041 319.02 122.199C318.897 124.459 317.416 126.454 316.178 128.341C305.506 146.175 277.16 149.13 263.954 132.682C246.702 111.195 257.619 80.8801 285.468 77.428ZM303.781 103.46C299.674 94.0458 294.924 91.2294 284.677 92.011C279.039 93.9731 276.93 95.843 274.29 101.329C273.947 102.036 273.631 102.755 273.342 103.485C279.755 103.567 286.168 103.599 292.582 103.584L303.781 103.46Z" fill="black"/>
<path d="M777.762 77.4198C796.043 75.9632 808.037 85.7596 812.795 102.959L796.529 103.031C788.783 92.9633 777.24 88.0833 768.474 99.4985C756.668 114.874 775.031 137.516 791.021 123.32C793.91 120.753 794.49 117.759 798.392 117.096C803.262 117.102 808.131 117.149 813 117.237C809.754 131.028 800.818 140.6 786.574 143.06C777.639 144.636 768.445 142.587 761.021 137.367C753.902 132.197 749.174 124.372 747.902 115.666C744.721 95.1605 757.752 80.1501 777.762 77.4198Z" fill="black"/>
<path d="M647.607 60.0225L648.926 60.2609C650.689 62.5131 650.074 75.3246 650.08 78.8839L667.236 78.9461L667.254 92.5367L650.238 92.5045C650.297 100.155 648.076 117.898 653.068 123.699C656.033 127.14 663.193 126.901 667.629 126.985L667.594 141.814L659.637 141.923C627.117 141.506 633.094 116.896 633.305 92.566C630.205 92.4998 624.797 92.7781 622.078 91.9192C619.881 86.1252 642.592 63.8566 647.607 60.0225Z" fill="black"/>
<path d="M329.269 86.2449L346.151 86.1816L346.146 141.916L329.18 141.869L329.269 86.2449Z" fill="black"/>
<path d="M598.805 86.125L615.744 86.2099L615.785 141.825C610.096 141.757 604.406 141.82 598.722 142.016C598.64 123.386 598.664 104.755 598.805 86.125Z" fill="black"/>
<path d="M598.787 60.2799L615.621 60.2412L615.639 77.1868L598.717 77.2284L598.787 60.2799Z" fill="black"/>
<path d="M329.191 60.248L346.064 60.292L346.058 77.196L329.2 77.2253L329.191 60.248Z" fill="black"/>
</g>
<defs>
<clipPath id="clip0_6270_37">
<rect width="892" height="182" fill="white"/>
</clipPath>
</defs>
</svg>
