<?xml version="1.0" encoding="UTF-8" standalone="no"?>
<svg
   xmlns:dc="http://purl.org/dc/elements/1.1/"
   xmlns:cc="http://creativecommons.org/ns#"
   xmlns:rdf="http://www.w3.org/1999/02/22-rdf-syntax-ns#"
   xmlns:svg="http://www.w3.org/2000/svg"
   xmlns="http://www.w3.org/2000/svg"
   xmlns:sodipodi="http://sodipodi.sourceforge.net/DTD/sodipodi-0.dtd"
   xmlns:inkscape="http://www.inkscape.org/namespaces/inkscape"
   viewBox="0 0 700 700"
   version="1.1"
   id="svg18"
   sodipodi:docname="reserva-logo.svg"
   width="700"
   height="700"
   inkscape:export-filename="C:\Users\alex\sites\reserva-logo-0.png"
   inkscape:export-xdpi="561.73999"
   inkscape:export-ydpi="561.73999"
   inkscape:version="0.92.1 r15371">
  <metadata
     id="metadata22">
    <rdf:RDF>
      <cc:Work
         rdf:about="">
        <dc:format>image/svg+xml</dc:format>
        <dc:type
           rdf:resource="http://purl.org/dc/dcmitype/StillImage" />
        <dc:title></dc:title>
      </cc:Work>
    </rdf:RDF>
  </metadata>
  <sodipodi:namedview
     pagecolor="#ffffff"
     bordercolor="#666666"
     borderopacity="1"
     objecttolerance="10"
     gridtolerance="10"
     guidetolerance="10"
     inkscape:pageopacity="0"
     inkscape:pageshadow="2"
     inkscape:window-width="1600"
     inkscape:window-height="838"
     id="namedview20"
     showgrid="false"
     inkscape:zoom="0.72478445"
     inkscape:cx="424.1851"
     inkscape:cy="288.06316"
     inkscape:window-x="-8"
     inkscape:window-y="-8"
     inkscape:window-maximized="1"
     inkscape:current-layer="svg18" />
  <defs
     id="defs5">
    <clipPath
       id="clip-Logo-rsv-100">
      <rect
         width="100"
         height="16"
         id="rect2"
         x="0"
         y="0" />
    </clipPath>
  </defs>
  <g
     id="Logo-rsv-100"
     clip-path="url(#clip-Logo-rsv-100)"
     transform="matrix(5.1431357,0,0,5.1431357,92.849352,309.23016)"
     inkscape:export-filename="C:\Users\alex\sites\reserva-logo-4.png"
     inkscape:export-xdpi="74.664406"
     inkscape:export-ydpi="74.664406">
    <g
       id="Camada_2"
       data-name="Camada 2"
       transform="translate(0,1)">
      <g
         id="Layer_1"
         data-name="Layer 1">
        <path
           id="Caminho_1"
           data-name="Caminho 1"
           d="M 14.01,4.037 C 14.01,1.516 11.1,0 6.747,0 H 0 l 1.928,1.812 v 9.607 L 0,13.111 H 8.595 L 6.564,11.419 V 8.436 h 0.744 c 1.675,3.3 3.621,4.675 7.3,4.675 h 1.086 a 46.182,46.182 0 0 1 -4.1,-5.877 C 13.044,6.4 14.01,5.228 14.01,4.037 Z M 6.666,7.086 h -0.1 V 1.022 C 8.484,1.255 9.21,2.171 9.21,4.251 9.208,6.042 8.574,7.086 6.666,7.086 Z"
           inkscape:connector-curvature="0" />
        <path
           id="Caminho_2"
           data-name="Caminho 2"
           d="m 226.2,15.878 c -0.353,0 -0.553,-0.176 -0.553,-0.511 v -4.075 c 0,-3.173 -2.235,-4.252 -5.313,-4.252 -2.933,0 -5.288,1.259 -5.288,2.753 0,0.927 0.758,1.322 1.682,1.322 a 3.462,3.462 0 0 0 2.521,-0.917 1.928,1.928 0 0 1 -0.677,-1.318 0.843,0.843 0 0 1 0.92,-0.927 c 1.089,0 2.073,1.082 2.073,2.658 v 0.257 c -4.935,0.726 -6.811,2.637 -6.811,4.488 a 2.611,2.611 0 0 0 2.852,2.6 4.23,4.23 0 0 0 3.793,-2.468 h 0.063 v 0.236 a 2.019,2.019 0 0 0 2.256,2.246 4.252,4.252 0 0 0 3.733,-2.383 3.215,3.215 0 0 1 -1.251,0.291 z m -4.636,-2.658 c 0,1.41 -0.635,1.971 -1.456,1.971 a 1.4,1.4 0 0 1 -1.273,-1.537 1.262,1.262 0 0 1 1.354,-1.318 2.612,2.612 0 0 1 1.375,0.374 z"
           transform="translate(-139.044,-4.558)"
           inkscape:connector-curvature="0" />
        <path
           id="Caminho_3"
           data-name="Caminho 3"
           d="m 48.13,13.08 6.046,-2.013 C 54.053,8.843 52.167,7.09 49.241,7.09 a 5.373,5.373 0 0 0 -5.313,5.475 5.608,5.608 0 0 0 5.785,5.492 4.813,4.813 0 0 0 4.981,-4.135 4.456,4.456 0 0 1 -2.848,0.945 4.837,4.837 0 0 1 -3.716,-1.787 z m 0.042,-4.23 c 0.74,0 1.689,0.687 2.2,2.073 l -2.82,1.326 a 4.058,4.058 0 0 1 -0.518,-1.9 c 0.014,-1.012 0.508,-1.505 1.153,-1.505 z"
           transform="translate(-28.441,-4.591)"
           inkscape:connector-curvature="0" />
        <path
           id="Caminho_4"
           data-name="Caminho 4"
           d="m 152.992,10.29 c 0,-1.812 -1.519,-2.82 -5.806,-2.82 h -6.346 l 1.791,1.95 v 6.874 l -1.784,1.653 h 7.386 l -1.622,-1.713 v -2.38 h 0.6 c 1.763,3.293 3.071,4.1 6.092,4.1 h 1.086 l -3.53,-5.454 c 1.251,-0.4 2.133,-1.1 2.133,-2.21 z m -6.3,2.468 h -0.081 v -4.3 a 1.972,1.972 0 0 1 2.3,2.115 1.958,1.958 0 0 1 -2.217,2.2 z"
           transform="translate(-91.189,-4.837)"
           inkscape:connector-curvature="0" />
        <path
           id="Caminho_5"
           data-name="Caminho 5"
           d="m 81.6,9.157 c 0,-0.571 0.511,-0.906 1.354,-0.906 a 5.157,5.157 0 0 1 4.082,2.581 L 86.584,7.6 A 11.045,11.045 0 0 0 82.918,7 c -3.081,0 -5.147,1.548 -5.147,3.673 0,3.6 5.993,3.212 5.993,4.981 0,0.649 -0.515,0.984 -1.354,0.984 -1.192,0 -2.933,-0.649 -4.84,-2.753 l 0.677,3.384 a 10.409,10.409 0 0 0 4.326,0.705 c 3.525,-0.06 5.21,-1.456 5.21,-3.663 C 87.779,10.419 81.6,11.047 81.6,9.157 Z"
           transform="translate(-50.224,-4.532)"
           inkscape:connector-curvature="0" />
        <path
           id="Caminho_6"
           data-name="Caminho 6"
           d="m 184.82,7.814 a 1.883,1.883 0 0 1 1.252,1.868 6.779,6.779 0 0 1 -0.821,2.954 l -0.73,1.431 -0.687,-1.216 a 7.249,7.249 0 0 1 -1.209,-3.173 1.964,1.964 0 0 1 1.17,-1.865 h -7.735 a 13.142,13.142 0 0 1 1.992,2.993 l 4.717,7.971 4.636,-7.795 a 12.4,12.4 0 0 1 2.468,-3.173 z"
           transform="translate(-113.993,-5.057)"
           inkscape:connector-curvature="0" />
        <path
           id="Caminho_7"
           data-name="Caminho 7"
           d="m 114.248,13.08 6.049,-2.013 C 120.174,8.843 118.288,7.09 115.362,7.09 a 5.373,5.373 0 0 0 -5.334,5.475 5.608,5.608 0 0 0 5.785,5.492 4.816,4.816 0 0 0 4.985,-4.135 4.467,4.467 0 0 1 -2.852,0.945 4.83,4.83 0 0 1 -3.698,-1.787 z m 0.042,-4.23 c 0.74,0 1.685,0.687 2.2,2.073 l -2.82,1.326 a 4.058,4.058 0 0 1 -0.518,-1.9 c 0.018,-1.012 0.508,-1.505 1.146,-1.505 z"
           transform="translate(-71.239,-4.591)"
           inkscape:connector-curvature="0" />
        <path
           id="Caminho_8"
           data-name="Caminho 8"
           d="m 255.979,2.937 a 0.423,0.423 0 0 1 0,0.067 c 0,0.109 -0.025,0.219 -0.028,0.328 a 1.3,1.3 0 0 0 0.021,0.286 c 0.021,0.109 0.07,0.127 0.166,0.06 a 0.606,0.606 0 0 0 0.155,-0.145 3.027,3.027 0 0 0 0.18,-0.254 l 0.137,-0.2 a 0.608,0.608 0 0 1 0.092,-0.1 0.1,0.1 0 0 1 0.166,0.021 0.571,0.571 0 0 1 0.078,0.145 0.973,0.973 0 0 1 0.042,0.4 1.728,1.728 0 0 1 -0.074,0.353 1.566,1.566 0 0 0 -0.067,0.353 0.455,0.455 0 0 0 0,0.155 0.13,0.13 0 0 0 0.162,0.1 h 0.088 a 0.06,0.06 0 0 1 0.067,0.049 0.373,0.373 0 0 1 0,0.2 c -0.028,0.081 -0.06,0.166 -0.1,0.247 a 2.077,2.077 0 0 1 -0.211,0.353 4.112,4.112 0 0 0 -0.353,0.631 0.9,0.9 0 0 0 -0.085,0.331 2.321,2.321 0 0 0 0.518,1.731 5.135,5.135 0 0 0 0.564,0.578 c 0.12,0.106 0.243,0.215 0.353,0.317 a 12.2,12.2 0 0 1 1.787,1.858 c 0.275,0.353 0.539,0.705 0.807,1.058 a 16.464,16.464 0 0 0 1.058,1.308 c 0.063,0.074 0.134,0.141 0.2,0.215 a 4.985,4.985 0 0 0 0.853,0.733 c 0.282,0.2 0.568,0.384 0.864,0.561 a 0.486,0.486 0 0 1 0.236,0.3 0.5,0.5 0 0 1 0,0.24 0.62,0.62 0 0 1 -0.705,0.511 1.453,1.453 0 0 1 -0.384,-0.109 2.229,2.229 0 0 1 -0.476,-0.282 c -0.141,-0.106 -0.275,-0.212 -0.405,-0.324 -0.13,-0.112 -0.353,-0.3 -0.511,-0.444 a 5.542,5.542 0 0 0 -0.564,-0.43 3.138,3.138 0 0 0 -0.659,-0.353 c -0.116,-0.042 -0.134,-0.042 -0.166,0.078 -0.032,0.12 -0.074,0.293 -0.116,0.437 a 0.162,0.162 0 0 0 0.081,0.2 l 0.166,0.106 a 4.53,4.53 0 0 1 0.522,0.374 0.351,0.351 0 0 1 0.081,0.078 0.049,0.049 0 0 1 0,0.049 0.053,0.053 0 0 1 -0.046,0.021 0.352,0.352 0 0 1 -0.106,-0.039 l -0.307,-0.176 a 3.624,3.624 0 0 0 -0.733,-0.307 2.115,2.115 0 0 0 -0.758,-0.1 2.629,2.629 0 0 0 -0.286,0.035 h -0.063 a 0.123,0.123 0 0 1 0,-0.046 0.663,0.663 0 0 1 0.465,-0.25 1.509,1.509 0 0 1 0.353,0 h 0.226 a 0.12,0.12 0 0 0 0.12,-0.071 0.192,0.192 0 0 0 0,-0.042 c 0.042,-0.145 0.088,-0.289 0.127,-0.434 0,-0.053 0,-0.071 -0.042,-0.092 a 4.2,4.2 0 0 0 -0.8,-0.289 1.343,1.343 0 0 0 -0.236,-0.025 0.48,0.48 0 0 0 -0.381,0.215 0.6,0.6 0 0 0 -0.1,0.212 3.084,3.084 0 0 0 -0.06,0.3 3.937,3.937 0 0 0 -0.035,0.405 0.561,0.561 0 0 0 0.293,0.5 l 0.18,0.137 0.293,0.215 a 0.61,0.61 0 0 1 0.078,0.063 c 0.032,0.032 0.039,0.063 0.021,0.088 -0.018,0.025 -0.053,0.028 -0.1,0 l -0.042,-0.018 -0.081,-0.028 a 3.452,3.452 0 0 0 -1.156,-0.458 2.133,2.133 0 0 0 -0.617,-0.042 0.36,0.36 0 0 0 -0.148,0.021 H 256.5 c 0,-0.039 0,-0.056 0.025,-0.074 a 0.67,0.67 0 0 1 0.451,-0.215 h 0.391 a 0.229,0.229 0 0 0 0.2,-0.155 0.683,0.683 0 0 1 0.042,-0.137 2.632,2.632 0 0 0 0.113,-0.55 0.952,0.952 0 0 0 -0.173,-0.6 2.468,2.468 0 0 0 -0.3,-0.353 l -0.8,-0.712 -0.85,-0.79 a 4.582,4.582 0 0 1 -0.486,-0.525 3,3 0 0 1 -0.479,-0.811 2.863,2.863 0 0 1 -0.152,-1.075 3.032,3.032 0 0 1 0.2,-0.966 c 0.071,-0.194 0.141,-0.388 0.2,-0.585 a 1.65,1.65 0 0 0 0.085,-0.705 0.882,0.882 0 0 0 -0.078,-0.286 0.575,0.575 0 0 0 -0.437,-0.353 1.371,1.371 0 0 0 -0.4,0 3.582,3.582 0 0 0 -0.769,0.18 l -0.353,0.134 a 0.353,0.353 0 0 1 -0.088,0.025 0.071,0.071 0 0 1 -0.07,-0.042 0.06,0.06 0 0 1 0.021,-0.071 l 0.088,-0.053 a 5.727,5.727 0 0 1 0.867,-0.37 c 0.166,-0.053 0.353,-0.109 0.5,-0.152 a 0.219,0.219 0 0 0 0.173,-0.324 1.964,1.964 0 0 1 -0.173,-0.61 1.784,1.784 0 0 1 0.123,-0.948 0.973,0.973 0 0 1 0.176,-0.282 1.372,1.372 0 0 1 0.152,-0.134 c 0.028,-0.021 0.032,0 0.1,-0.021 0.068,-0.021 0,0.071 0,0.106 v 0.13 c 0,0.042 0,0.028 0.028,0.056 0.021,-0.039 0.039,-0.067 0.053,-0.1 a 1.121,1.121 0 0 1 0.159,-0.264 1.365,1.365 0 0 1 0.141,-0.145 0.113,0.113 0 0 1 0.106,-0.028 0.092,0.092 0 0 1 0,0.1 0.584,0.584 0 0 1 -0.049,0.145 0.907,0.907 0 0 0 -0.056,0.353 0.2,0.2 0 0 0 0.035,0.127 c 0.035,0 0.035,-0.021 0.042,-0.035 0.039,-0.106 0.071,-0.212 0.113,-0.314 a 1.269,1.269 0 0 1 0.293,-0.43 0.575,0.575 0 0 1 0.2,-0.127 0.085,0.085 0 0 1 0.1,0.028 z"
           transform="translate(-163.672,-1.88)"
           inkscape:connector-curvature="0"
           style="fill:#d71921;fill-opacity:1" />
      </g>
    </g>
  </g>
</svg>
