<?xml version="1.0" encoding="utf-8"?>
<!-- Generator: Adobe Illustrator 25.0.1, SVG Export Plug-In . SVG Version: 6.00 Build 0)  -->
<svg version="1.1" id="Camada_1" xmlns="http://www.w3.org/2000/svg" xmlns:xlink="http://www.w3.org/1999/xlink" x="0px" y="0px"
	 viewBox="0 0 160 25" style="enable-background:new 0 0 160 25;" xml:space="preserve">
<style type="text/css">
	.st0{fill:#8200FF;}
</style>
<g>
	<g>
		<path class="st0" d="M56.6,17.8c0-0.4,0.1-1,0.3-2.3l1.2-5.3h4.9l1.1-5h-4.9L60.3,0H54l-3.3,15.6c-0.4,1.8-0.5,2.7-0.5,3.4
			c0,3.9,2.8,6,6.2,6c1.5,0,2.5-0.2,3.7-0.5l1.1-5c-0.8,0.1-1.6,0.2-2.3,0.2C57.4,19.6,56.6,19,56.6,17.8L56.6,17.8z"/>
		<path class="st0" d="M41.7,4.7c-7,0-11.3,5-11.3,12c0,5.3,3.7,8.3,8.9,8.3c2.5,0,4.4-0.2,6.3-0.8l1-4.9c-1.6,0.4-3.3,0.5-5.4,0.5
			c-3.3,0-5.2-1.1-5.2-3.5c0-0.1,0-0.1,0-0.2c1.5,0.2,3,0.3,5.2,0.3c4.7,0,7.8-1.7,7.8-6.2C49.1,7.3,47.2,4.7,41.7,4.7z M43.4,11
			c-0.2,1.2-1.2,1.9-4,1.9c-0.6,0-1.5-0.1-2.5-0.2c0.7-1.9,2.1-3.6,4.5-3.6c1.4,0,2.1,0.7,2.1,1.6C43.4,10.8,43.4,10.9,43.4,11
			L43.4,11z"/>
		<path class="st0" d="M113.3,4.8c-6.3,0-9.6,3.4-10.8,9.3c-0.2,1.1-0.3,2.1-0.3,3c0,5.4,3.7,7.9,8.6,7.9c6.1,0,9.5-3.1,10.8-9.3
			c0.2-1.1,0.3-2,0.3-2.9C121.8,7.7,118.6,4.8,113.3,4.8z M115.6,14.3l-0.3,1.5c-0.5,2.3-1.8,3.7-4.2,3.7c-1.9,0-2.7-1.2-2.7-2.8
			c0-0.4,0-0.8,0.1-1.3l0.3-1.5c0.5-2.3,1.7-3.8,4-3.8c1.9,0,2.8,1.3,2.8,3C115.7,13.5,115.7,13.9,115.6,14.3L115.6,14.3z"/>
		<path class="st0" d="M21.6,15.5c-0.6,2.8-1.2,3.4-1.8,3.4c-0.9,0-1-0.8-1.3-2.8l-0.9-5.2c-0.7-4.5-3.1-6.1-6.6-6.1
			c-4.7,0-7.6,3.1-8.9,9.5L0,24.5h6.1l2.2-10.3c0.6-2.8,1.2-3.4,1.8-3.4c0.9,0,1,0.8,1.3,2.8l0.9,5.2c0.7,4.5,3.1,6.1,6.6,6.1
			c4.7,0,7.6-3.1,8.9-9.5l2.2-10.3h-6.1L21.6,15.5z"/>
		<path class="st0" d="M134.8,16.5c4.7,0,7.8-1.7,7.8-6.2c0-3.1-1.9-5.6-7.4-5.6c-7,0-11.3,5-11.3,12c0,5.3,3.7,8.3,8.9,8.3
			c2.5,0,4.4-0.2,6.3-0.8l1-4.9c-1.6,0.4-3.3,0.5-5.4,0.5c-3.3,0-5.2-1.1-5.2-3.5c0-0.1,0-0.1,0-0.2C131,16.4,132.5,16.5,134.8,16.5
			z M134.7,9.1c1.4,0,2.1,0.7,2.1,1.6c0,0.1,0,0.2,0,0.3c-0.2,1.2-1.2,1.9-4,1.9c-0.6,0-1.5-0.1-2.5-0.2
			C131,10.8,132.3,9.1,134.7,9.1L134.7,9.1z"/>
		<path class="st0" d="M74.9,9.5c1.2,0,2.8,0.2,4.7,0.4l1-4.6c-1.8-0.4-4-0.6-6.2-0.6c-4.6,0-8.9,1.8-8.9,6c0,2.1,1,3.1,3.9,5.3
			c2,1.4,2.9,2.1,2.9,2.6c0,1-1.1,1.3-3.6,1.3c-1.5,0-3.2-0.2-5.1-0.5l-1,4.9c1.7,0.4,4.2,0.7,7.1,0.7c5.2,0,9.1-2.3,9.1-6.8
			c0-2.3-1.6-3.8-4.4-5.7l-1.2-0.8c-0.8-0.6-1.2-0.8-1.2-1.2C71.9,9.7,72.9,9.5,74.9,9.5L74.9,9.5z"/>
		<path class="st0" d="M154.3,9.5c1.2,0,2.8,0.2,4.7,0.4l1-4.6c-1.8-0.4-4-0.6-6.2-0.6c-4.6,0-8.9,1.8-8.9,6c0,2.1,1,3.1,3.9,5.3
			c2,1.4,2.9,2.1,2.9,2.6c0,1-1.1,1.3-3.6,1.3c-1.5,0-3.2-0.2-5.1-0.5l-1,4.9c1.7,0.4,4.2,0.7,7.1,0.7c5.2,0,9.1-2.3,9.1-6.8
			c0-2.3-1.6-3.8-4.4-5.7l-1.2-0.8c-0.8-0.6-1.2-0.8-1.2-1.2C151.3,9.7,152.3,9.5,154.3,9.5L154.3,9.5z"/>
		<path class="st0" d="M95.5,4.8c-2.2,0-4,0.7-5.7,2.1L91.2,0H85l-5.2,24.5h6.3L89,10.8c1.1-0.5,2.2-0.8,3.2-0.8
			c1.4,0,2.1,0.5,2.1,1.6c0,0.2,0,0.4-0.1,0.7l-2.6,12.2h6.3l2.6-12.3c0.2-0.8,0.2-1.5,0.2-2.2C100.8,6.3,98.2,4.8,95.5,4.8
			L95.5,4.8z"/>
	</g>
</g>
</svg>
