<svg preserveAspectRatio="none" width="100%" height="100%" overflow="visible" style="display: block;" viewBox="0 0 61 25" fill="none" xmlns="http://www.w3.org/2000/svg">
<g id="image">
<path id="Vector" d="M3.862 2.541C4.018 1.801 4.756 1.2 5.508 1.2H9.595L6.196 17.294H2.109C1.356 17.294 0.873 16.694 1.029 15.953L3.862 2.541M17.486 2.541C17.643 1.801 18.38 1.2 19.132 1.2H23.219L19.82 17.294H15.733C14.981 17.294 14.497 16.694 14.654 15.953L17.486 2.541M44.735 2.541C44.891 1.801 45.628 1.2 46.381 1.2H50.468L47.069 17.294H42.981C42.229 17.294 41.746 16.694 41.903 15.953L44.735 2.541V2.541M24.582 1.2H28.669C29.421 1.2 29.905 1.8 29.748 2.541L26.916 15.953C26.76 16.694 26.022 17.294 25.27 17.294H21.183L24.582 1.2M51.831 1.2H55.918C56.67 1.2 57.154 1.8 56.997 2.541L54.164 15.953C54.008 16.694 53.271 17.294 52.519 17.294H48.431L51.831 1.2M31.111 2.541C31.267 1.801 32.004 1.2 32.756 1.2H36.844L33.444 17.294H29.357C28.605 17.294 28.121 16.694 28.278 15.953L31.11 2.541H31.111M38.206 1.2H42.294C43.046 1.2 43.529 1.8 43.373 2.541L39.124 22.659C38.967 23.399 38.23 24 37.478 24H33.39L38.206 1.2M8.691 11.929H14.141L13.292 15.953C13.135 16.694 12.398 17.294 11.646 17.294H7.558L8.691 11.93V11.929M27.712 18.635H33.161L32.028 24H27.941C27.188 24 26.705 23.4 26.862 22.659L27.711 18.635H27.712M42.504 19.883L41.814 23.15C41.784 23.291 41.738 23.329 41.595 23.329H41.281C41.138 23.329 41.107 23.291 41.137 23.15L41.827 19.883C41.857 19.743 41.904 19.704 42.047 19.704H42.36C42.503 19.704 42.534 19.743 42.504 19.883V19.883M43.412 22.087H43.347C43.279 22.087 43.255 22.106 43.241 22.174L43.035 23.15C43.005 23.291 42.957 23.329 42.815 23.329H42.501C42.359 23.329 42.327 23.291 42.357 23.15L43.047 19.883C43.077 19.743 43.125 19.704 43.267 19.704H43.915C44.661 19.704 44.944 19.97 44.806 20.622L44.691 21.169C44.553 21.821 44.158 22.087 43.412 22.087V22.087M43.601 20.468L43.421 21.323C43.406 21.391 43.422 21.41 43.491 21.41H43.594C43.834 21.41 43.963 21.314 44.015 21.067L44.087 20.724C44.139 20.478 44.052 20.381 43.811 20.381H43.708C43.64 20.381 43.616 20.4 43.601 20.468V20.468M45.844 20.995L46.354 21.556C46.622 21.845 46.659 22.019 46.59 22.343L46.572 22.43C46.443 23.039 46.136 23.378 45.424 23.378C44.712 23.378 44.537 23.093 44.701 22.314L44.721 22.218C44.751 22.078 44.799 22.039 44.941 22.039H45.275C45.417 22.039 45.449 22.078 45.419 22.217L45.374 22.43C45.333 22.624 45.395 22.701 45.567 22.701C45.739 22.701 45.833 22.629 45.87 22.455L45.889 22.363C45.918 22.227 45.902 22.16 45.755 22L45.275 21.483C45.006 21.198 44.972 21.033 45.04 20.709L45.062 20.603C45.191 19.994 45.498 19.655 46.21 19.655C46.922 19.655 47.098 19.941 46.934 20.719L46.913 20.816C46.883 20.956 46.836 20.995 46.694 20.995H46.359C46.217 20.995 46.186 20.956 46.215 20.816L46.26 20.603C46.301 20.41 46.239 20.333 46.067 20.333C45.896 20.333 45.801 20.405 45.765 20.579L45.747 20.661C45.717 20.801 45.733 20.869 45.844 20.995V20.995M48.719 19.883C48.749 19.743 48.796 19.704 48.939 19.704H49.253C49.395 19.704 49.427 19.743 49.397 19.883L48.883 22.315C48.719 23.093 48.423 23.378 47.711 23.378C46.999 23.378 46.823 23.093 46.988 22.314L47.501 19.883C47.531 19.743 47.579 19.704 47.721 19.704H48.035C48.177 19.704 48.209 19.743 48.179 19.883L47.641 22.43C47.6 22.624 47.667 22.701 47.854 22.701C48.035 22.701 48.14 22.624 48.181 22.43L48.719 19.883M50.763 21.85C50.765 21.889 50.777 21.898 50.802 21.898C50.826 21.898 50.843 21.889 50.861 21.85L51.71 19.83C51.751 19.728 51.8 19.704 51.923 19.704H52.4C52.542 19.704 52.573 19.743 52.544 19.883L51.854 23.15C51.824 23.291 51.776 23.329 51.633 23.329H51.408C51.266 23.329 51.234 23.291 51.264 23.15L51.595 21.584C51.604 21.541 51.596 21.531 51.567 21.531C51.547 21.531 51.525 21.541 51.513 21.575L50.828 23.17C50.778 23.286 50.715 23.329 50.573 23.329H50.44C50.292 23.329 50.248 23.286 50.248 23.17L50.231 21.574C50.228 21.541 50.22 21.531 50.196 21.531C50.166 21.531 50.154 21.541 50.145 21.584L49.815 23.15C49.785 23.291 49.738 23.329 49.595 23.329H49.37C49.227 23.329 49.196 23.291 49.226 23.15L49.916 19.883C49.946 19.743 49.993 19.704 50.135 19.704H50.543C50.715 19.704 50.77 19.743 50.769 19.912L50.762 21.85H50.763M61 1.2C61 1.863 60.466 2.4 59.808 2.4C59.49 2.399 59.187 2.272 58.963 2.047C58.739 1.822 58.614 1.517 58.616 1.2C58.616 0.537 59.15 0 59.808 0C60.466 0 61 0.537 61 1.2V1.2" fill="var(--fill-0, #151515)"/>
</g>
</svg>
