<svg preserveAspectRatio="none" width="100%" height="100%" overflow="visible" style="display: block;" viewBox="0 0 54 21" fill="none" xmlns="http://www.w3.org/2000/svg">
<g id="image" clip-path="url(#clip0_0_30)">
<path id="Vector" d="M12.818 0C10.709 0 8.687 0.847 7.195 2.355L2.329 7.275C0.838 8.783 0 10.828 0 12.96C0 17.401 3.56 21 7.951 21C10.06 21 12.083 20.153 13.574 18.645L16.94 15.242V15.242L26.748 5.325C27.46 4.605 28.426 4.2 29.433 4.2C31.119 4.2 32.549 5.311 33.045 6.849L36.14 3.719C34.728 1.483 32.252 0 29.433 0C27.324 0 25.302 0.847 23.811 2.355L10.637 15.675C9.924 16.395 8.959 16.8 7.951 16.8C5.854 16.8 4.154 15.081 4.154 12.96C4.154 11.942 4.554 10.965 5.266 10.245L10.133 5.325C10.845 4.605 11.811 4.2 12.818 4.2C14.504 4.2 15.934 5.311 16.429 6.849L19.525 3.719C18.113 1.483 15.637 0 12.818 0V0" fill="var(--fill-0, #151515)"/>
<path id="Vector_2" d="M27.252 15.675C26.54 16.395 25.574 16.8 24.567 16.8C22.881 16.8 21.451 15.689 20.956 14.152L17.86 17.281C19.272 19.517 21.748 21 24.567 21C26.676 21 28.698 20.153 30.189 18.645L43.363 5.325C44.076 4.605 45.041 4.2 46.049 4.2C48.146 4.2 49.846 5.919 49.846 8.04C49.846 9.058 49.446 10.035 48.734 10.755L43.867 15.675C43.155 16.395 42.189 16.8 41.182 16.8C39.496 16.8 38.067 15.689 37.571 14.151L34.476 17.281C35.888 19.517 38.364 21 41.182 21C43.291 21 45.313 20.153 46.805 18.645L51.671 13.725C53.162 12.217 54 10.172 54 8.04C54 3.599 50.44 0 46.049 0C43.94 0 41.917 0.847 40.426 2.355L27.252 15.675" fill="var(--fill-0, #151515)"/>
</g>
<defs>
<clipPath id="clip0_0_30">
<rect width="54" height="21" fill="white"/>
</clipPath>
</defs>
</svg>
